<?xml version="1.0" encoding="UTF-8"?>
<svg id="_레이어_2" data-name="레이어 2" xmlns="http://www.w3.org/2000/svg" viewBox="0 0 1000 1000">
  <defs>
    <style>
      .cls-1 {
        fill: none;
      }
    </style>
  </defs>
  <g id="_레이어_1-2" data-name="레이어 1">
    <g>
      <path d="m221.45,436.54c-4,.63-7.78.94-11.6.97-7.04.05-13.3-2.28-19.44-5.47-7.89-4.1-15.33-9.14-24.05-11.55-4.34-1.2-4.31-1.35-2.15-5.39.71-1.32,1.41-2.65,2.22-3.91,1.12-1.72.83-2.88-.83-4.2-4.24-3.39-8.74-6.39-13.33-9.25-1.63-1.02-1.67-1.72-.32-2.95,4.05-3.71,7.15-8.37,11.64-11.64,1.14-.83,1.26-1.69-.06-2.51-.35-.22-.64-.53-.94-.82-2.23-2.11-2.08-2.02.15-4.04,4.56-4.14,8.84-8.6,13.44-12.68,10.21-9.06,19.19-19.42,29.84-28,3.72-3,6.97-2.96,10.51.22,1.92,1.73,3.71,3.6,5.49,5.46,9.35,9.79,20.28,17.77,30.41,26.67,2.62,2.31,5.05,4.84,7.59,7.24,1.61,1.53.48,2.94-.23,4.28-1.93,3.67-1.94,3.63,1.07,6.59,3.02,2.99,5.93,6.1,9.01,9.02,1.62,1.54,1.21,2.29-.52,3.3-4.39,2.57-8.62,5.38-12.53,8.65-2.54,2.13-2.64,2.61-1.01,5.42,1,1.73,1.99,3.46,2.95,5.22.27.5.72,1.3.53,1.59-1.67,2.52.72,3.32,1.89,4.51,10.75,10.95,23.36,19.78,34.51,30.29,3.38,3.19,3.67,3.96.9,7.73-1.2,1.64-1.16,2.66.39,3.91,3.3,2.69,6.03,5.98,9.01,8.99.9.91,1.76,1.46,3.07.76,3.96-2.12,7.25-.69,10.19,2.09,2.36,2.23,4.66,4.53,6.9,6.87,9.12,9.55,19.73,17.38,29.69,25.97,2.77,2.39,5.48,4.86,8.13,7.39,2.89,2.76,3.15,3.93.71,7.03-1.78,2.26-1.51,3.62.6,5.31,1.88,1.5,3.51,3.32,5.17,5.07.98,1.04,1.67.94,2.69,0,5.08-4.68,10.26-9.26,15.35-13.93,5.62-5.15,9.57-5.19,14.83.24,11.9,12.29,25.07,23.14,38.21,34.04,3.58,2.97,6.84,6.33,10.28,9.48,1.1,1.01,1.15,2.04.6,3.36-.61,1.49-1.45,2.81-2.38,4.09-.74,1.01-.99,1.89.14,2.79,1.17.94,1.82,0,2.52-.67,2.55-2.4,5.12-4.77,7.61-7.22,4.74-4.66,10.09-8.62,14.49-13.71,6.11-7.06,13.59-12.76,20.49-19.03,3.64-3.31,8.12-2.89,11.89.72,5.23,5.01,10.38,10.11,15.6,15.13,5.41,5.2,11.5,9.61,17.1,14.57,1.53,1.36,2.49.15,3.38-.72,3.82-3.72,7.7-7.36,11.82-10.76,7.19-5.94,14.37-11.89,21.33-18.09,4.85-4.31,9.32-9.05,13.97-13.59.95-.93,1.92-1.86,3-2.63,3.73-2.65,7.26-2.5,10.69.55,5.6,4.98,11.15,10.01,16.64,15.11,1.3,1.21,2.03,1.49,3.36-.03,1.85-2.12,4.04-3.95,6.13-5.86,1.04-.95,1.31-1.85.26-2.97-.4-.42-.69-.94-1-1.43-1.97-3.15-1.82-4.01.78-6.68,6.52-6.71,13.89-12.45,21.09-18.36,8.19-6.73,15.82-14.03,23.27-21.54,3.17-3.21,6.54-4.85,10.91-2.5,1.03.56,1.74,0,2.42-.68,3.32-3.28,6.62-6.58,9.96-9.83.89-.86.96-1.68.23-2.63-.35-.46-.72-.92-1.02-1.42-1.81-2.92-1.72-3.62.66-6.01,8.4-8.48,18.11-15.45,27-23.36,3.48-3.1,6.74-6.45,10.09-9.69.29-.28.75-.78.66-.99-1.59-3.79,1.81-5.86,3.07-8.6,1.46-3.17,1.68-3-1.08-5.27-4-3.29-8.32-6.11-12.74-8.78-1.58-.95-1.59-1.74-.33-3.06,3.55-3.75,6.91-7.68,10.91-10.98,1.13-.93,1.29-1.86.29-2.96-.22-.25-.4-.53-.59-.81-2.33-3.47-2.3-4.02.7-6.95,8.18-7.98,17.39-14.76,25.91-22.34,4.41-3.92,8.57-8.14,12.83-12.23,1.2-1.15,2.27-2.46,3.58-3.47,3.91-3.03,7.07-2.8,10.75.47,6.96,6.2,13.71,12.61,20.31,19.2,6.76,6.76,14.13,12.92,20.76,19.84.11.12.24.23.37.34,3.11,2.64,3.14,2.67.35,5.8-.96,1.07-.89,1.78.2,2.66,4.03,3.26,7.38,7.22,11.05,10.84,1.63,1.61,1.71,2.63-.43,3.96-4.53,2.8-9.01,5.69-13.11,9.13-1.29,1.08-1.55,1.95-.72,3.36,1.26,2.16,2.36,4.41,3.64,6.55.95,1.59.66,2.38-1.18,2.8-6.56,1.51-12.5,4.49-18.35,7.74-4.71,2.62-9.34,5.37-14.38,7.4-7.31,2.95-14.8,2.72-22.38,1.7-.56-.08-1.12-.4-1.93.16,1.72,2.38,4.2,3.97,6.3,5.86,3.78,3.41,7.31,7.06,10.95,10.6,1.37,1.34,2.7,2.73,4.3,3.8,1.26.84,1.46,1.71.26,2.77-.62.55-1.18,1.18-1.78,1.75-.95.9-.82,1.66.16,2.48,4.23,3.54,7.96,7.56,11.61,11.68,1.01,1.13,1.14,1.72-.27,2.67-4.55,3.07-9.24,5.94-13.5,9.45-1.69,1.39-1.81,2.46-.72,4.17,1.24,1.97,2.27,4.07,3.42,6.1.82,1.44.6,2.27-1.16,2.65-7.1,1.54-13.4,4.9-19.66,8.44-4.48,2.53-8.9,5.27-13.79,6.92-9.3,3.13-18.63,3.19-27.85-.47-.65-.26-1.24-.91-2.23-.43,1.32,1.9,2.97,3.36,4.72,4.73,2.12,1.65,2.15,2.23.24,4.12-2.65,2.62-2.71,2.7.21,5.03,4.26,3.4,7.37,7.92,11.39,11.55,1.25,1.13.76,1.89-.51,2.68-5.1,3.15-10.03,6.57-14.77,10.25-1.57,1.22-1.88,2.32-.88,4,1.33,2.21,2.52,4.51,3.81,6.74.93,1.61,1.05,2.54-1.27,3.11-7.91,1.94-15.09,5.62-22.08,9.74-4.63,2.73-9.4,5.23-14.48,7.11-4.88,1.8-9.92,1.79-14.99,1.88-5.69.11-11.06-1.01-16.18-3.48-.65-.31-1.53-.73-2.04.04-.44.68.37,1.17.76,1.68.1.13.24.23.34.36,1.26,1.61,4.01,2.71,3.72,4.66-.26,1.69-2.95,2.42-4.63,3.45-4.27,2.63-8.16,5.75-12.17,8.73-1.93,1.44-2.04,2.68-.8,4.58,1.45,2.23,2.69,4.6,4,6.92.97,1.73.54,2.69-1.49,3.21-8.06,2.03-15.47,5.56-22.61,9.79-6.71,3.97-13.48,8.07-21.32,9.29-9.28,1.45-18.44,1.34-27.36-2.66-7.38-3.32-14.08-7.85-21.35-11.31-1.58-.75-3.19-1.44-4.79-2.14-.95-.41-1.94-.71-2.76.21-.79.88-.24,1.74.2,2.53,1.45,2.63,2.93,5.23,4.41,7.84.97,1.71.72,2.64-1.41,3.14-8.2,1.91-15.6,5.65-22.85,9.85-5.44,3.16-10.96,6.19-16.92,8.37-5.05,1.84-10.26,1.77-15.49,2.03-7.2.36-13.9-1.77-20.2-4.71-4.01-1.87-7.96-4.11-11.78-6.49-6.83-4.26-14.13-7.45-21.99-9.28-1.43-.33-1.79-1.04-1.07-2.33,1.47-2.61,2.94-5.23,4.36-7.87.62-1.15,1.55-2.39.27-3.63-1.26-1.22-2.5-2.19-4.62-1.48-6.04,2.03-11.69,4.81-17.17,8.02-6.59,3.86-13.16,7.97-20.71,9.55-9.48,1.99-18.9,1.83-28.12-2.02-7.24-3.03-13.83-7.22-20.73-10.84-4.9-2.57-10.06-4.39-15.37-5.83-2.55-.69-2.82-1.06-1.55-3.36,1.32-2.41,2.64-4.83,4.08-7.17,1.04-1.69.66-2.86-.79-4.07-5.01-4.15-10.44-7.72-15.94-11.16-1.6-1-1.57-1.53-.4-2.72,2.08-2.1,4.06-4.29,5.97-6.66-9.6,5.25-19.86,5.88-30.27,4.34-4.55-.67-8.76-2.8-12.89-5-9.31-4.96-18.18-10.94-28.73-13.19-1.81-.39-1.97-1.23-1.17-2.63,1.35-2.39,2.65-4.82,4.08-7.16.97-1.59.64-2.58-.79-3.79-4.6-3.89-9.65-7.11-14.71-10.32-1.49-.94-1.79-1.46-.47-2.91,4.04-4.44,8.08-8.86,12.72-12.69,1.1-.91,1.08-1.6.09-2.64-3.31-3.5-3.27-3.52.48-6.57,1.14-.93,2.3-1.86,3-3.18-.78-.82-1.36-.23-1.91,0-9.79,4.02-19.56,3.91-29.4.1-6.55-2.54-12.39-6.41-18.57-9.64-4.38-2.29-8.95-4.06-13.77-5.14-1.68-.38-1.81-1.14-1.06-2.47,1.18-2.11,2.19-4.32,3.51-6.33,1.2-1.83.68-2.95-.83-4.22-4.16-3.5-8.77-6.35-13.34-9.24-1.62-1.03-1.75-1.69-.37-2.92,3.91-3.49,6.85-7.96,11.11-11.12,1.57-1.17,1.99-2.16.02-3.57-2.59-1.86-2.38-2.39.1-4.63,3.64-3.3,7.16-6.73,10.69-10.14,2.75-2.66,5.36-5.48,8.55-7.66.6-.41,1.23-.86,1.54-2.13Z"/>
      <path d="m793.22,713.55c2.51,2.23.86,3.38-.51,4.36-1.76,1.26-1.52,2.02.04,3.36,3.79,3.25,7.26,6.86,10.52,10.66,1,1.17,1.07,1.75-.31,2.67-4.16,2.76-8.41,5.38-12.3,8.54-1.85,1.5-2.28,2.82-.95,4.82,1.15,1.73,2.11,3.59,3.15,5.39.79,1.37.39,2.18-1.14,2.52-9.69,2.15-17.78,7.69-26.35,12.27-4.74,2.54-9.95,4.16-15.48,4.33-6.32.2-12.49-.26-18.27-3.14-.26-.13-.6-.1-1.26-.19,1.32,2.12,2.94,3.49,4.6,4.81,2.07,1.65,2.11,2.32.15,4.04-2.4,2.12-2.42,2.13.02,4.39,3.85,3.57,7.38,7.44,11.01,11.23,1.19,1.24,1.04,1.79-.27,2.61-4.65,2.92-9.25,5.92-13.58,9.33-1.95,1.54-2.43,2.89-1.03,5.01,1.24,1.87,2.21,3.92,3.36,5.85.82,1.39.79,2.27-1.02,2.69-10.42,2.37-19.12,8.46-28.45,13.19-3.9,1.98-7.91,4.02-12.4,4.36-7.65.57-15.21.85-22.61-2.27-4.01-1.69-7.57-4.1-11.48-5.91-1.41-.65-2.4-.64-3.66.17-5.17,3.36-10.33,6.72-15.13,10.6-1.47,1.19-1.68,2.28-.77,3.84,1.43,2.44,2.78,4.93,4.16,7.41.72,1.29.62,2.09-1.07,2.49-6.77,1.62-13.11,4.32-19.12,7.8-5.89,3.41-11.79,6.79-18.16,9.25-2.44.94-4.96,1.51-7.53,1.69-7.93.55-15.71.51-23.28-2.83-7.25-3.21-13.78-7.68-20.91-11.04-1.88-.89-3.82-1.65-5.75-2.44-.61-.25-1.31-.48-1.86.14-.56.62-.2,1.27.1,1.85,1.34,2.5,2.66,5,4.08,7.45.8,1.39.52,2.21-1.01,2.56-10.6,2.4-19.44,8.52-28.85,13.5-6.38,3.38-13.35,4.74-20.71,4.56-6.06-.15-11.72-1.51-17.08-4.04-4.65-2.19-9.11-4.83-13.53-7.46-4.85-2.89-10.11-4.71-15.45-6.32-2.84-.86-3-1.04-1.57-3.75.97-1.84,2.05-3.62,3.1-5.42.65-1.13,1.19-2.26.1-3.43-1.04-1.12-2.21-1.62-3.8-1.13-5.76,1.79-11.12,4.45-16.39,7.33-5.3,2.9-10.34,6.3-16.13,8.28-10.3,3.52-20.55,3.61-30.78-.21-6.56-2.45-12.45-6.21-18.51-9.62-5.42-3.04-11.15-5.23-17.17-6.68-1.59-.38-1.96-.92-1.13-2.37,1.49-2.6,2.84-5.28,4.32-7.89.81-1.42.52-2.33-.75-3.39-4.31-3.57-8.91-6.71-13.6-9.74-1.34-.86-2.5-.57-3.75.06-3.61,1.83-7,4.08-10.94,5.28-9.69,2.96-19.24,3.17-28.81-.65-6.9-2.76-13.02-6.95-19.63-10.22-4.11-2.03-8.34-3.83-12.85-4.76-2.27-.47-2.49-1.47-1.4-3.27,1.21-2,2.29-4.06,3.49-6.06.99-1.65.68-2.78-.86-4.04-4.33-3.56-8.98-6.62-13.73-9.55-1.66-1.03-1.82-1.84-.35-3.18,4-3.64,7.23-8.06,11.48-11.44,1.48-1.18,1.58-1.97,0-3.25-3.08-2.51-2.99-2.67.23-5.23,1.41-1.12,2.74-2.34,3.79-3.86-1.04-.72-1.8-.25-2.54.07-9.95,4.2-19.88,4.09-29.86.05-4.72-1.91-9.02-4.58-13.41-7.06-5.19-2.93-10.56-5.29-16.37-6.62-1.39-.32-1.86-.99-1.13-2.3,1.17-2.11,2.26-4.27,3.51-6.34.91-1.49.71-2.47-.65-3.62-4.04-3.39-8.47-6.19-12.91-8.98-1.53-.96-1.54-1.63-.29-2.79,3.72-3.45,6.6-7.74,10.74-10.78,1.27-.93,1.12-1.61.07-2.97-2.19-2.84-4.79-3.78-8.29-4-7.44-.48-13.67-4.45-19.92-8.04-6.1-3.5-12.28-6.68-19.2-8.2-1.47-.32-1.72-1.11-1.02-2.35,1.09-1.96,2.05-4.02,3.29-5.89,1.26-1.89.78-3.01-.89-4.37-3.96-3.22-8.26-5.92-12.54-8.65-1.34-.86-1.57-1.49-.35-2.62,3.73-3.44,6.58-7.76,10.74-10.78,1.58-1.15,1.39-2.05-.11-3.27-2.61-2.11-2.46-2.4.19-4.54,1.62-1.3,3.11-2.78,4.53-4.29,6.21-6.64,13.58-12.06,19.73-18.76,5.13-5.6,11.03-10.37,16.61-15.48,2.78-2.54,6.11-2.68,9.1-.32,1.95,1.54,3.68,3.37,5.42,5.16,9.18,9.48,19.69,17.44,29.65,26.02,2.08,1.79,3.91,3.89,6.06,5.59,2.27,1.79,2.44,3.77.76,5.78-1.92,2.29-1.3,3.7.76,5.47,3.35,2.87,6.31,6.17,9.2,9.52.46.54,1.35,1.17.44,1.86-1.93,1.46-.32,2.24.51,3.1,8.54,8.93,18.23,16.57,27.69,24.46,2.95,2.46,5.78,5.03,8.49,7.74,2.59,2.58,2.93,3.04.82,5.9-1.85,2.51-1.01,3.76.91,5.48,2.85,2.55,5.59,5.25,7.99,8.25.79.98,1.54,1.51,2.95.69,4.37-2.55,6.99-2.1,10.69,1.5,4.41,4.29,8.69,8.74,13.3,12.81,6.92,6.12,14.09,11.95,21.11,17.96,2.91,2.49,5.72,5.1,8.49,7.74,2.42,2.3,2.65,3.24.59,5.96-2.66,3.5-1.52,3.48.81,5.88.64.66,1.32,1.28,1.97,1.92,3.22,3.19,3.31,3.28,6.59.14,4.09-3.92,7.95-8.08,12.04-11.99,4.39-4.2,8.89-8.29,13.44-12.32,4.38-3.88,8.54-3.74,12.9.25,2.76,2.53,5.3,5.29,7.92,7.96,8.9,9.06,19.12,16.58,28.65,24.9,3.13,2.74,6.08,5.69,9.25,8.38,2.01,1.71,2.01,3.45.76,5.49-.39.64-.72,1.35-1.22,1.88-1.42,1.51-1.12,2.62.41,3.94,1.49,1.29,2.45,1.14,3.71-.25,4.17-4.56,9.12-8.27,13.55-12.55,4.91-4.74,9.38-9.92,14.67-14.28,2.24-1.85,4.31-3.92,6.47-5.88,4.65-4.21,8.42-4.18,12.82.31,8.69,8.87,17.95,17.1,27.54,24.98.56.46,1.08,1.06,2.14,1.1-.71-2.28.6-3.62,2.05-5.08,8.72-8.75,18.67-16.08,27.95-24.18,5.84-5.09,11.46-10.43,16.74-16.08,4.2-4.49,9.47-4.85,13.94-.51,6.74,6.55,14.27,12.26,20.39,19.47,2.59,3.06,5.86,5.42,8.9,8.02.98.84,1.7.74,2.56-.14,2.28-2.32,4.57-4.61,6.92-6.86,1.02-.97,1.27-1.88.32-3.02-.37-.44-.67-.96-.97-1.46-1.83-3.1-1.77-3.64.81-6.2,7.23-7.16,15.26-13.4,23.05-19.91,6.72-5.62,12.97-11.72,19.06-17.99,3.54-3.65,6.41-4.42,10.89-2.2,1.18.58,1.82.23,2.6-.54,3.16-3.08,5.82-6.64,9.33-9.37,1.05-.81,1.11-1.74.27-2.8-.47-.58-.84-1.25-1.2-1.9-1.04-1.88-.96-3.43.76-5.09,6.17-5.98,12.82-11.42,19.49-16.78,6.91-5.56,13.1-11.82,19.37-18.03,1.97-1.95,3.94-3.86,7-3.87.99,0,1.6-.81,2.25-1.46,2.59-2.58,4.78-5.56,7.76-7.76,1.31-.97,1.35-1.97.41-3.39-2.68-4.03-2.61-4.4.88-7.77,5.81-5.62,12.09-10.73,18.39-15.77,6.8-5.44,12.85-11.6,19.03-17.67.95-.93,1.9-1.88,2.97-2.66,2.81-2.05,5.92-2.12,8.52.14,6.53,5.67,13.14,11.25,18.95,17.73,5.01,5.58,11.24,9.91,16.35,15.41,2.15,2.31,4.29,4.68,6.97,6.42,1.69,1.1,1.21,2,.05,3.13-2.45,2.4-2.35,2.36.15,4.78,3.35,3.24,6.72,6.47,9.72,10.06.97,1.16.82,1.69-.39,2.5-4.23,2.81-8.56,5.46-12.48,8.71-1.61,1.33-2.21,2.52-.96,4.42,1.19,1.81,2.18,3.74,3.26,5.62.77,1.32.54,2.23-1.05,2.56-6.95,1.46-13.09,4.77-19.19,8.23-6.35,3.6-12.65,7.4-20.15,8.15-4.89.49-9.78.38-15.23-.69Z"/>
      <path d="m707.02,272.49c-6.43,1.02-12.31,3.56-17.86,6.81-3.66,2.15-7.31,4.44-11.09,6.2-9.89,4.61-20.22,5.66-30.78,1.76-5.19-1.91-9.8-4.84-14.57-7.5-5.12-2.86-10.37-5.32-16.08-6.74-2.7-.67-2.78-.87-1.48-3.33.97-1.84,1.96-3.68,3.06-5.45.93-1.49.71-2.52-.69-3.61-3.82-2.97-7.64-5.92-11.86-8.31-2.03-1.15-3.06-2.29-.77-4.16.14-.11.11-.43.21-.89-2.12.46-3.87,1.44-5.49,2.47-8.51,5.38-17.75,6.74-27.52,5.21-5.66-.88-10.7-3.47-15.61-6.29-6.94-3.99-13.86-8.02-21.81-9.76-1.78-.39-2.12-1.27-1.1-2.85,1.13-1.75,2.11-3.59,3.08-5.43.6-1.13,1.68-2.45.05-3.5-1.6-1.05-2.74-3.48-5.34-2.05-4.08,2.25-8.19,4.46-12.27,6.72-9.71,5.37-19.82,6.28-30.3,2.64-6.65-2.31-12.39-6.42-18.61-9.56-6.27-3.16-7.9-2.84-12.82,2.23-.89.92-.77,1.76-.26,2.7,1.15,2.12,2.26,4.28,3.51,6.34.88,1.45.72,2.3-1,2.7-9.75,2.26-17.93,7.79-26.55,12.48-4.16,2.26-8.86,3.89-13.77,4.08-6.34.24-12.54-.03-18.62-2.58-4.14-1.74-7.75-4.41-11.95-5.96-.03.18-.14.39-.08.46,2.67,3.31,2.69,3.34-1.14,5.62-3.74,2.22-7.15,4.88-10.61,7.48-1.69,1.27-1.83,2.52-.72,4.24,1.17,1.82,2.13,3.77,3.19,5.66.69,1.22.46,2.14-.96,2.45-9.05,1.97-16.77,6.88-24.66,11.32-7.03,3.95-14.39,5.83-22.41,5.4-3.94-.21-7.72-.93-11.4-2.46-6-2.48-11.48-5.93-17.16-9.01-2.87-1.56-5.9-2.63-9.21-3.4,1.29,1.16,2.53,2.37,3.88,3.46,2.98,2.41,5.83,4.98,8.53,7.69,2.35,2.36,2.67,3.6.53,6.23-1.77,2.18-1.17,3.51.71,4.91,3.65,2.71,6.13,6.57,9.49,9.57,1.38,1.23.92,2.03-.44,2.86-4.07,2.45-8.02,5.08-11.74,8.05-2.86,2.28-2.94,2.59-1.24,5.79.94,1.76,1.93,3.5,2.89,5.25.63,1.15.39,1.88-.97,2.16-9.16,1.89-16.94,6.89-24.9,11.37-11.39,6.41-23,7.51-35.18,2.65-5.11-2.04-9.76-4.92-14.51-7.61-4.97-2.82-10.2-4.92-15.68-6.39-1.55-.42-1.97-.96-1.12-2.4,1.14-1.93,2.12-3.97,3.29-5.89,1.1-1.79.65-3.03-.91-4.28-3.91-3.14-8.04-5.93-12.31-8.54-1.79-1.09-1.83-1.9-.35-3.36,3.68-3.61,6.8-7.78,10.91-10.97,1.3-1.01.61-1.76-.33-2.58-2.89-2.52-2.72-2.44.06-4.92,3.91-3.49,7.39-7.47,11.37-10.88,10.18-8.73,18.91-18.99,29.31-27.49,3.93-3.21,7.37-3.24,11.04.39,6.57,6.51,12.98,13.17,20.29,18.89,1.58,1.24,2.23,1.14,3.15-.54,3.93-7.16,3.94-5.12-1.86-9.93-2.9-2.4-6.13-4.33-9.32-6.27-2.02-1.23-1.78-2.07-.26-3.48,3.73-3.44,6.83-7.52,10.85-10.67.96-.75,1.09-1.36.1-2.16-.64-.52-1.2-1.15-1.81-1.72-1.04-.98-.82-1.72.21-2.66,4.24-3.87,8.35-7.89,12.6-11.76,9.6-8.75,18.5-18.22,28.29-26.77,4.21-3.68,7.53-3.65,11.59.28,6.4,6.2,12.7,12.49,19.56,18.2,1.62,1.35,2.53,1.08,3.64-.36,1.89-2.45,4.02-4.68,6.5-6.53,1.49-1.12,1.66-2.01.05-3.28-2.44-1.93-2.25-2.47.13-4.55,2.5-2.19,4.9-4.52,7.19-6.94,5.33-5.63,11.73-10.13,16.9-15.93,5-5.61,10.86-10.3,16.42-15.31,3.66-3.29,7.09-3.08,10.83.5,4.33,4.15,8.35,8.62,12.94,12.5,6.8,5.75,13.61,11.5,20.37,17.3,1.1.94,1.85.72,2.77-.17.94-.9,1.95-1.7.84-3.13-.4-.53-.75-1.1-1.11-1.66-1.11-1.78-.99-3.19.66-4.81,7.57-7.42,16.08-13.73,24.01-20.72,4.11-3.63,7.93-7.59,11.88-11.4.96-.92,1.87-1.91,2.91-2.73,3.43-2.71,6.34-2.59,9.64.24,6.77,5.81,12.93,12.26,19.44,18.33,6.69,6.24,13.22,12.67,20.04,18.77,1.29,1.16,2.1.95,3.37-.06,8.29-6.6,15.98-13.84,23.38-21.42,2.04-2.09,4.17-4.08,7.52-3.76,2.56.24,4.27,1.86,5.93,3.43,5.98,5.66,12.27,10.97,17.88,17.06,5,5.43,10.79,10.14,16.23,15.16,2.14,1.98,4.25,3.98,6.41,5.93.86.77.67,1.43-.02,2.11-.65.64-1.33,1.26-2.04,1.84-.86.71-.78,1.28.01,2.03,2.54,2.4,5.08,4.81,7.51,7.32,1.14,1.18,1.91,1.32,3.3.21,6.46-5.16,12.33-10.94,18.14-16.8.76-.77,1.51-1.56,2.34-2.26,3.46-2.88,6.72-2.81,10.1.13,6.91,6.01,13.32,12.54,19.98,18.81,7.21,6.78,14.13,13.89,21.72,20.26,1.54,1.3.75,2.09-.18,3.02-2.51,2.49-2.38,2.34.2,4.82,3.42,3.28,6.59,6.82,9.9,10.22,1.1,1.13.44,1.62-.55,2.26-4.4,2.85-8.87,5.6-12.92,8.98-1.42,1.19-1.69,2.15-.77,3.8,1.49,2.68,3.38,5.17,4.19,8.2l.03-.03Z"/>
      <path d="m706.99,272.52c4.17-3.43,8.48-6.72,12.49-10.34,4.26-3.85,8.23-8,12.31-12.04,4.34-4.29,7.83-4.27,12.56-.04,7.01,6.27,13.72,12.83,20.43,19.41,6.59,6.46,13.44,12.67,20.28,18.86,1.75,1.58,1.01,2.61-.32,3.56-2.14,1.52-1.95,2.5.03,4.24,3.68,3.24,6.97,6.91,10.47,10.36,1.19,1.17.92,1.77-.42,2.61-4.51,2.83-9.04,5.62-13.12,9.1-1.48,1.26-1.64,2.27-.72,3.8,1.15,1.93,2.17,3.94,3.3,5.88.8,1.38.77,2.2-1.05,2.68-6.73,1.75-12.97,4.62-18.95,8.19-4.18,2.5-8.45,4.92-13.1,6.54-8.82,3.06-17.57,3.01-26.37-.17-6.78-2.45-12.62-6.66-19.02-9.82-3.91-1.93-7.91-3.52-12.14-4.53-1.86-.45-2.38-1.23-1.36-2.95,1.1-1.86,2.04-3.82,3.15-5.67.97-1.62.84-2.7-.76-4-3.96-3.21-8.15-6.07-12.5-8.69-1.83-1.1-2.1-1.95-.44-3.51,3.38-3.21,6.57-6.62,9.93-9.86,1.2-1.15,1.59-1.98.45-3.53-2.81-3.84-2.62-4.56.91-7.68,4.67-4.13,9.32-8.28,13.99-12.42,0,0-.03.03-.03.03Z"/>
    </g>
    <rect class="cls-1" width="1000" height="1000"/>
  </g>
</svg>