<?xml version="1.0" encoding="UTF-8"?>
<svg id="_레이어_2" data-name="레이어 2" xmlns="http://www.w3.org/2000/svg" viewBox="0 0 1000 1000">
  <defs>
    <style>
      .cls-1 {
        fill: none;
      }
    </style>
  </defs>
  <g id="_레이어_1-2" data-name="레이어 1">
    <path d="m543.23,181.06v4.71c-.24,1.76-.34,3.54-.64,5.3-1.93,11.27-7.26,20.55-16.43,27.44-9,6.76-19.22,9.33-30.38,8.3-7.05-.65-13.57-2.93-19.45-6.86-7.98-5.33-13.48-12.63-16.59-21.7-2.25-6.55-2.91-13.29-2.14-20.18.88-7.85,3.56-15,8.13-21.45,3.1-4.37,6.86-8.13,11.13-11.33,6.65-4.97,13.46-9.68,21.95-11h2.9c3.92.49,7.52,1.95,10.97,3.79,5.58,2.99,10.72,6.62,15.37,10.93,7.45,6.9,12.29,15.26,14.31,25.23.46,2.25.6,4.54.85,6.81Z"/>
    <path d="m161.64,381.03c0-2.11,0-4.21,0-6.32.12-1.08.23-2.15.35-3.23.99-8.85,3.96-16.97,9.02-24.29,4.79-6.92,10.97-12.44,17.91-17.13,6.24-4.21,12.65-8.09,20.29-9.25h3.58c2.73.33,5.37,1.06,7.88,2.16,9.39,4.13,17.68,9.9,24.78,17.29,11.01,11.46,15.88,25.2,14.99,41.03-.45,7.91-2.58,15.32-6.39,22.26-3.37,6.12-7.87,11.27-13.5,15.38-10.36,7.58-21.99,10.6-34.72,9.31-10.63-1.08-19.95-5.16-27.87-12.38-7.97-7.26-12.88-16.24-15.16-26.73-.58-2.68-.83-5.4-1.16-8.11Z"/>
    <path d="m732.64,381.03c0-2.11,0-4.21,0-6.32.05-.31.12-.62.14-.93.62-9.07,3.35-17.45,8.24-25.1,4.78-7.48,11.21-13.34,18.47-18.32,6.35-4.35,12.9-8.36,20.72-9.55h3.58c3.59.44,6.95,1.61,10.19,3.19,8.52,4.18,16.1,9.65,22.71,16.47,5.82,6,9.96,13.02,12.45,20.98,2.65,8.48,3.19,17.14,1.62,25.89-1.9,10.59-6.42,19.88-14.25,27.35-11.11,10.61-24.44,15.02-39.68,13.54-10.63-1.03-19.95-5.15-27.87-12.37-7.97-7.26-12.88-16.24-15.16-26.73-.58-2.68-.83-5.4-1.16-8.11Z"/>
    <path d="m758.48,656.79c0-1.11,0-2.21,0-3.32.09-.99.17-1.99.27-2.98.69-6.71,2.97-12.84,6.8-18.37,3.5-5.06,8.02-9.1,13.09-12.53,5-3.39,10.12-6.56,16.31-7.33h2.05c3.05.33,5.88,1.34,8.6,2.72,6.54,3.31,12.4,7.54,17.4,12.91,2.67,2.87,4.86,6.09,6.54,9.63,3.69,7.8,4.79,15.98,3.31,24.47-1.69,9.66-6.31,17.64-14.19,23.55-8.64,6.48-18.42,8.62-29.03,6.98-15.64-2.42-28.06-14.9-30.56-30.56-.27-1.72-.41-3.44-.6-5.16Z"/>
    <path d="m160.79,663.79c0-1.11,0-2.21,0-3.32.09-.97.16-1.93.26-2.9.73-7.15,3.24-13.63,7.5-19.41,3.22-4.36,7.18-7.96,11.62-11.03,5.23-3.62,10.56-7.04,17.08-7.87h2.05c2.26.26,4.44.83,6.52,1.76,6.97,3.12,13.16,7.38,18.48,12.85,8.2,8.44,11.91,18.59,11.37,30.33-.29,6.21-1.94,12.04-5.05,17.41-3.85,6.66-9.29,11.63-16.27,14.9-5.44,2.55-11.17,3.63-17.16,3.49-6.32-.14-12.25-1.72-17.69-4.88-9.88-5.75-15.76-14.39-18-25.55-.38-1.91-.53-3.85-.72-5.78Z"/>
    <path d="m549.77,809.5v6.77c-.23.74-.13,1.52-.21,2.27-.77,7.39-2.77,14.4-6.27,20.98-3.25,6.13-7.58,11.37-13.03,15.64-8.62,6.75-18.39,10.2-29.38,10.34-9.76.12-18.72-2.44-26.85-7.71-8.76-5.68-15.04-13.52-18.97-23.2-3.7-9.11-4.91-18.57-3.81-28.34,1.15-10.2,4.67-19.47,10.86-27.68,5.25-6.97,11.83-12.5,19.1-17.23,5.33-3.46,10.83-6.56,17.26-7.51h3.71c3.87.53,7.46,1.93,10.88,3.74,8.92,4.73,16.85,10.76,23.44,18.44,6.37,7.42,10.33,16.02,12.23,25.61.52,2.61.71,5.25,1.03,7.89Z"/>
    <path d="m447.12,586.71c0-2.55,0-5.1,0-7.65.13-1.11.26-2.22.38-3.33,1.04-9.26,4.01-17.84,9.06-25.68,5.04-7.83,11.73-14.04,19.26-19.36,6.75-4.77,13.73-9.11,22.08-10.55h4.41c3.68.64,7.17,1.83,10.51,3.5,7.59,3.8,14.42,8.67,20.64,14.43,12.59,11.65,19.08,26.1,19.66,43.2.26,7.64-.96,15.09-3.57,22.3-3.99,11.04-10.76,19.97-20.49,26.51-10.4,6.98-21.93,9.65-34.39,8.45-7.52-.72-14.55-2.98-20.98-6.85-13.68-8.24-21.78-20.48-25.27-35.92-.67-2.98-.93-6.03-1.3-9.05Z"/>
    <rect class="cls-1" width="1000" height="1000"/>
  </g>
</svg>