<?xml version="1.0" encoding="UTF-8"?>
<svg id="_레이어_2" data-name="레이어 2" xmlns="http://www.w3.org/2000/svg" viewBox="0 0 1000 1000">
  <defs>
    <style>
      .cls-1 {
        fill: none;
      }
    </style>
  </defs>
  <g id="_레이어_1-2" data-name="레이어 1">
    <rect class="cls-1" width="1000" height="1000"/>
    <path d="m799,403v154c-.77,2.07-.77,4.23-.82,6.39-.42,19.1-3.45,37.84-9.47,55.92-15.69,47.11-46.71,82.45-86.97,110.06-46.34,31.77-98.06,49.6-153.56,56.92-10.38,1.37-20.79,2.48-31.18,3.71h-54c-8.42-.94-16.84-1.83-25.26-2.83-37.79-4.49-74.28-14.08-109.04-29.51-34.21-15.19-64.89-35.6-91.03-62.87-27.92-29.11-46.08-62.83-53-102.63-1.74-10.01-2.17-20.14-3.67-30.16,0-53,0-106,0-159,.31-1.96.74-3.92.92-5.89,3.2-35.39,15.46-67.38,36.54-95.88,21.84-29.52,49.55-52.41,81.4-70.43,52.72-29.82,109.93-43.85,169.96-46.68,30.95-1.46,61.84.33,92.55,5.65,36.74,6.36,71.8,17.46,105.08,34.11,29.15,14.58,55.16,33.5,77.54,57.34,26.2,27.91,43.67,60.25,50.46,98.09,1.41,7.85,2.37,15.79,3.54,23.69Z"/>
  </g>
</svg>