<?xml version="1.0" encoding="UTF-8"?>
<svg id="_레이어_2" data-name="레이어 2" xmlns="http://www.w3.org/2000/svg" viewBox="0 0 1000 1000">
  <defs>
    <style>
      .cls-1 {
        fill: none;
      }
    </style>
  </defs>
  <g id="_레이어_1-2" data-name="레이어 1">
    <g>
      <path d="m825,586.42c-8.05.39-14.61-2.14-21.04-5.55-5.66-3-11.05-6.53-17.02-8.94-1.66-.67-3.14-.69-4.8-.03-5.6,2.24-10.74,5.37-15.89,8.4-9.32,5.49-19.16,7.4-29.75,5.6-4.29-.73-8.18-2.64-12.06-4.57-5.74-2.87-11.18-6.27-16.94-9.11-3.21-1.58-5.83-.54-8.48.88-5.42,2.92-10.64,6.26-16.18,8.92-10.88,5.22-22.04,6.36-33.56,1.69-7.37-2.99-13.9-7.48-21-10.94-3.26-1.58-6.03-1.54-9.16.12-5.6,2.96-11.01,6.25-16.63,9.15-7.57,3.91-15.71,5.23-24.22,4.27-8.38-.94-15.23-5.49-22.42-9.26-3.39-1.78-6.59-3.89-10.24-5.18-1.62-.57-3.03-.59-4.57.05-3.55,1.47-6.89,3.33-10.22,5.24-4.9,2.81-9.76,5.79-15.18,7.49-8.66,2.71-17.34,2.78-25.94-.51-6.09-2.33-11.63-5.69-17.29-8.85-.58-.33-1.22-.57-1.76-.95-6.26-4.43-12.25-3.53-18.51.35-5.29,3.27-10.7,6.4-16.49,8.8-9.86,4.08-19.68,4.2-29.65.37-6.87-2.65-13.08-6.55-19.42-10.17-4.69-2.67-8.71-2.58-13.21.28-4.7,2.99-9.58,5.77-14.61,8.13-10.91,5.12-22.06,6.3-33.57,1.59-7.36-3.01-13.88-7.53-21.01-10.93-3.14-1.5-5.85-1.55-8.94.08-5.59,2.96-10.98,6.32-16.65,9.1-4.74,2.33-9.73,4.22-15.19,4.58-7.75.51-15.23-.61-22.04-4.2-4.7-2.48-9.48-4.87-13.96-7.75-4.95-3.18-9.71-4.07-15.03-.56-4.43,2.93-9.17,5.45-13.93,7.82-10.68,5.31-21.69,6.54-33.07,2.18-4.92-1.88-9.47-4.44-13.99-7.07-5.94-3.46-12.16-6.2-18.82-7.9-1.43-.37-1.54-1.07-.95-2.16,1.2-2.19,2.4-4.38,3.68-6.53.92-1.56.72-2.67-.74-3.86-4.2-3.44-8.68-6.48-13.3-9.29-1.42-.87-1.66-1.45-.45-2.8,3.62-4.03,7.27-8.03,11.44-11.5,1.42-1.18,1.03-1.96-.14-2.97-3.02-2.59-2.93-2.54.07-5.06,2.04-1.71,3.94-3.59,5.76-5.54,5.75-6.16,12.57-11.17,18.36-17.29,1.44-1.53,1.49-2.24-.49-3.19-3.62-1.74-7.29-3.34-11.19-4.24-1.92-.44-2.13-1.24-1.25-2.77.96-1.66,1.8-3.39,2.83-5,.91-1.43.6-2.33-.67-3.38-3.54-2.93-7.34-5.48-11.28-7.81-1.51-.89-1.65-1.49-.42-2.76,3.24-3.34,6.11-7.06,9.87-9.88,1.11-.84.88-1.47-.11-2.34-2.56-2.25-2.35-2.14-.05-4.5,7.84-8.07,16.65-15.11,24.38-23.3,1.35-1.43,1.51-2.24-.5-3-2.73-1.03-5.35-2.34-8.25-2.86-1.69-.3-2.15-1-1.17-2.54.84-1.33,1.48-2.8,2.34-4.13,1-1.53.86-2.57-.66-3.79-3.2-2.56-6.59-4.82-10.07-6.94-1.46-.89-1.38-1.56-.27-2.64,2.62-2.56,5.1-5.26,7.78-7.75,1.55-1.44,2.25-2.62.2-4.15-1.15-.86-.95-1.67.1-2.62,4.48-4.1,8.72-8.48,13.38-12.36,4.37-3.65,7.63-8.37,12.11-11.88,1.3-1.01.82-1.79-.4-2.43-3.69-1.96-7.44-3.81-11.54-4.68-2.06-.44-2.49-1.13-1.46-3.01,3.34-6.09,3.34-6.15-2.16-10.38-1.98-1.52-4.13-2.82-6.27-4.1-1.22-.73-1.6-1.41-.41-2.45,2.95-2.57,5.01-6.03,8.24-8.33,1.42-1.01,1.86-2.05.07-3.27-1.12-.76-1.79-1.65-.34-2.98,8.28-7.58,16.56-15.18,24.37-23.26.69-.72,1.44-1.4,2.26-1.96,1.7-1.19,1.26-2.01-.31-2.83-4.28-2.24-8.56-4.53-13.35-5.51-1.97-.4-2.03-1.35-1.14-2.81.78-1.28,1.52-2.58,2.32-3.85.96-1.54.73-2.69-.75-3.85-3.15-2.47-6.4-4.8-9.85-6.82-1.61-.94-1.5-1.72-.26-2.79,2.9-2.51,4.9-5.9,8.08-8.14,1.31-.93,1.77-1.96.08-3.09-1.67-1.12-1.6-2.19.05-3.47,4.36-3.38,8.03-7.5,11.85-11.45,1.47-1.52,2.31-3.64,3.43-5.48.81-1.33.03-2.18-.91-2.98-3.3-2.82-6.99-5.12-10.64-7.43-1.77-1.12-1.66-1.92-.25-3.14,3.08-2.68,5.28-6.23,8.62-8.66,1.33-.96,1.32-2.04.03-3.04-1.97-1.53-1.47-2.6.3-4.05,4.64-3.8,8.47-8.47,13.08-12.33,7.02-5.88,12.72-13.16,19.91-18.87.91-.72,1.75-1.54,2.68-2.25,2.95-2.25,5.85-2.13,8.52.48,5.12,5.01,10.18,10.07,15.66,14.7,4.32,3.65,8.69,7.26,12.99,10.94,1.05.89,1.77.53,2.55-.28,4.58-4.72,9.75-8.83,14.22-13.68,4.02-4.35,8.64-8.07,13.06-11.99,2.51-2.23,5.27-2.33,7.98-.32,3.09,2.29,5.59,5.23,8.29,7.95,6.41,6.47,13.71,11.88,20.58,17.8,1.23,1.06,2.03,1.04,3.34-.1,8.73-7.59,16.43-16.28,25.19-23.84,4.98-4.3,7.54-4.46,12.11.32,8.31,8.7,17.7,16.17,26.87,23.89.99.83,1.62.77,2.54-.06,4.9-4.39,9.83-8.73,14.37-13.51,4.19-4.41,8.82-8.37,13.4-12.36,2.22-1.93,5.05-2.01,7.6-.25,3.03,2.1,5.34,5.01,7.92,7.59,7.02,7.04,14.96,12.98,22.46,19.45,1.16,1,1.85.84,2.92-.13,6.99-6.29,13.65-12.92,20.4-19.46,2.57-2.49,5.27-4.85,8.04-7.11,2.87-2.35,5.86-2.2,8.5.46,8.81,8.88,18.3,16.99,27.91,24.98,1.6,1.33,2.48,1.16,3.94-.18,8.58-7.89,16.53-16.44,25.39-24.04,4.31-3.69,7.12-3.76,11.23.25,4.35,4.24,8.46,8.74,13.16,12.62,4.55,3.77,9.12,7.53,13.58,11.4,1.51,1.31,2.35.92,3.72-.27,8.74-7.58,16.41-16.3,25.23-23.8.63-.54,1.29-1.06,1.95-1.56,2.75-2.05,5.76-2.06,8.14.38,8.75,8.95,18.3,16.98,27.89,25,1.91,1.6,2.79,1.31,4.44-.22,8.63-7.96,16.6-16.61,25.58-24.21,3.8-3.21,6.86-3.37,10.29.22,8.31,8.69,17.53,16.35,26.69,24.09,1.74,1.47,2.71,1.5,4.52-.09,8.73-7.73,16.51-16.44,25.37-24.01,4.09-3.5,7.1-3.6,10.85.33,8.94,9.36,19.03,17.42,28.92,25.71,2.1,1.76,3.98,3.79,5.97,5.68,1.63,1.54.63,3.03-.32,4.21-1.49,1.85-1.15,3.06.54,4.56,2.6,2.33,4.9,5,7.46,7.37,1.61,1.5,1.89,2.44-.32,3.63-3.59,1.95-6.78,4.52-10.03,7-1.57,1.19-1.9,2.19-.33,3.78,6.8,6.86,13.94,13.35,21,19.94,1.65,1.54,2.48,2.66.26,4.22-1.27.9-1.01,1.79.1,2.56,3.34,2.32,5.42,5.86,8.42,8.51,1.22,1.08,1,1.85-.3,2.7-3.14,2.04-6.27,4.09-9.29,6.31-2.12,1.55-2.31,2.95-.93,4.96.7,1.03,1.23,2.17,1.88,3.24.93,1.53.62,2.32-1.21,2.82-4.6,1.24-9,2.98-13.09,5.49-1.52.93-1.83,1.47-.34,2.88,7.79,7.4,15.45,14.92,23.17,22.39.54.52,1.12.99,1.7,1.46,2.75,2.23,2.8,2.26.54,4.97-.77.92-.5,1.55.26,2.07,3.34,2.32,5.45,5.84,8.43,8.49,1.36,1.21,1.29,2.05-.28,3.03-3.25,2.03-6.44,4.14-9.47,6.49-1.68,1.3-1.97,2.46-.83,4.18.74,1.11,1.3,2.33,2,3.46,1.04,1.68.86,2.58-1.29,3.14-4.04,1.05-7.93,2.54-11.56,4.65-1.3.76-1.48,1.31-.27,2.59,7.06,7.42,14.96,13.98,22.08,21.34.58.6,1.17,1.2,1.8,1.74,2.63,2.25,2.69,2.28.58,4.85-1.05,1.27-.05,1.85.66,2.43,2.91,2.39,5.12,5.47,7.91,7.96,1.34,1.2,1.63,2-.21,3.15-3.38,2.12-6.7,4.33-9.84,6.84-1.58,1.27-1.57,2.28-.59,3.76.87,1.32,1.62,2.72,2.44,4.07.82,1.37.46,2.12-1.11,2.47-3.02.68-5.84,1.94-8.69,3.11-1.37.56-1.75,1.04-.49,2.45,6.9,7.72,15.24,13.93,22.3,21.46.46.49.97.92,1.41,1.42.87,1,2.59,1.34,2.8,2.71.21,1.37-1.37,1.94-2.15,2.87-.86,1.02-.3,1.56.47,2.25,3.3,2.94,6.37,6.11,9.33,9.39,1.24,1.37,1.3,2.18-.46,3.21-3.88,2.27-7.56,4.86-11.06,7.71-1.34,1.09-1.43,2.02-.63,3.39,1.02,1.72,1.93,3.5,2.9,5.25.75,1.35.47,2-1.13,2.46-4.41,1.25-8.74,2.7-12.76,5.02-1.93,1.11-1.87,1.97-.31,3.27,5.36,4.49,10.83,8.85,15.94,13.64.36.34.8.61,1.14.98,3.61,3.9,5.04,2.8,1.23,8.81-.77,1.22-.66,2.11.4,3.04,3.71,3.24,7.02,6.86,10.39,10.44,1.72,1.83,1.25,2.58-.58,3.66-4.39,2.57-8.44,5.63-12.48,8.72-1.72,1.32-2.12,2.53-.92,4.39,1.22,1.89,2.2,3.92,3.36,5.85.85,1.41.74,2.28-1.04,2.68-10.03,2.25-18.36,8.1-27.3,12.71-6.01,3.1-12.42,5.31-18.78,4.6ZM222.86,306.53c.86.44,1.29.56,1.59.83,6.29,5.71,13.21,10.68,19.28,16.65,2.5,2.46,2.62,2.7.56,5.67-1.02,1.47-.7,2.26.43,3.34,2.53,2.41,4.9,5,7.45,7.39,1.53,1.44,1.74,2.36-.35,3.48-2.05,1.09-4.01,2.4-5.85,3.83-6.64,5.17-6.06,3.36-2.43,9.98.08.15.15.3.24.44.97,1.69.48,2.49-1.43,2.95-3.81.93-7.41,2.4-10.88,4.31-5.09,2.8-9.97,6.06-15.57,7.84-2.11.67-1.58,1.26-.3,2.36,5.61,4.84,11.51,9.33,16.85,14.49,1.89,1.83,2.2,3.41.59,5.35-1.25,1.5-.84,2.6.47,3.83,2.43,2.28,4.74,4.69,7.07,7.07,2.04,2.08,2.01,2.11-.51,3.77-2.43,1.6-4.91,3.16-7.23,4.91-3.87,2.92-3.82,2.98-1.55,7.14.4.73.79,1.46,1.22,2.18.84,1.42.65,2.29-1.14,2.65-3.46.68-6.69,2.06-9.78,3.7-4.11,2.19-8.06,4.72-12.31,6.62-2.37,1.06-1.89,1.55-.43,2.86,5.28,4.71,11.09,8.81,16.02,13.92,2.52,2.61,2.73,3.16.7,6.19-1.03,1.53-.75,2.45.48,3.62,2.95,2.81,5.83,5.7,8.52,8.78,1.24,1.43,1.12,2.11-.46,3.01-3.84,2.19-7.38,4.83-10.9,7.51-1.42,1.08-1.95,2.12-.83,3.77.89,1.3,1.54,2.76,2.33,4.13,1.52,2.63,1.42,3.01-1.44,3.69-6.26,1.48-11.73,4.69-17.26,7.76-.87.48-1.66,1.1-.5,2.07,4.6,3.84,9.22,7.66,13.81,11.51,1.03.87,1.78.51,2.58-.3,4.94-5.08,10.74-9.23,15.47-14.52,5.06-5.66,10.86-10.54,16.55-15.54,4.6-4.04,7.71-3.88,12.12.45,5.59,5.48,11.1,11.04,17.07,16.11,5.27,4.47,10.58,8.89,15.91,13.29.86.71,1.86,1.78,3.01.5,4.21-4.65,9.61-8.03,13.69-12.76,5.58-6.47,12.15-11.86,18.45-17.53,4.81-4.33,8.03-4.09,12.51.63,10.18,10.72,21.7,19.92,32.95,29.43,1,.85,1.74.98,2.77.02,3.89-3.64,8.01-7.04,11.74-10.84,7.01-7.13,14.28-13.96,21.88-20.46,1.42-1.22,2.97-1.68,4.82-1.65,3.01.04,4.91,1.99,6.7,3.91,10.33,11.05,22.23,20.33,33.73,30.07,1.03.87,2,1.13,3.04,0,3.91-4.23,8.7-7.52,12.65-11.69,6.54-6.89,13.63-13.2,20.63-19.62,2.15-1.98,4.5-3.23,7.46-2.54,2.08.49,3.66,1.94,5.16,3.39,5.31,5.17,10.32,10.65,16.02,15.41,5.56,4.64,11.15,9.25,16.7,13.9,1.04.87,1.86,1.12,2.99.04,4.47-4.23,9.23-8.18,13.49-12.62,5.95-6.2,12.24-11.99,18.69-17.63,4.33-3.79,7.58-3.66,11.76.43,5.65,5.53,11.21,11.16,17.25,16.28,5.27,4.47,10.58,8.89,15.91,13.29.85.71,1.86,1.8,3.01.52,4.25-4.72,9.74-8.14,13.87-12.93,5.63-6.53,12.26-11.99,18.67-17.66,4.49-3.97,7.74-3.69,11.94.73,10.24,10.78,21.81,20.05,33.13,29.61,1,.84,1.73,1.01,2.77.04,3.89-3.64,8.01-7.04,11.74-10.83,7.07-7.19,14.38-14.11,22.09-20.6,2.48-2.09,5.69-2.16,8.28-.21,1.46,1.1,2.85,2.32,4.1,3.65,9.62,10.23,20.6,18.91,31.36,27.85.91.76,1.65,1.31,2.77.26,3.84-3.57,7.7-7.11,11.62-10.6,1.49-1.32,1.18-1.99-.49-2.8-3.54-1.72-7.17-3.15-11-4.06-1.57-.37-1.91-1.11-1.07-2.49.95-1.57,1.8-3.19,2.77-4.74,1-1.6.91-2.74-.72-4.02-3.47-2.75-7.06-5.3-10.84-7.58-1.61-.97-1.94-1.74-.41-3.16,2.93-2.71,5.33-5.96,8.48-8.45,1.4-1.11,1.66-2.06.49-3.72-2.21-3.14-2.02-3.71.66-6.35,4.63-4.56,9.83-8.48,14.7-12.77.92-.81,2.55-1.32,2.56-2.56,0-1.58-1.92-1.23-2.93-1.82-6.68-3.9-13.21-8.15-20.91-9.9-1.6-.36-1.76-1.31-1.04-2.6.77-1.38,1.42-2.85,2.33-4.13,1.15-1.64.62-2.69-.78-3.76-2.98-2.28-5.93-4.6-9.19-6.45-1.9-1.08-2.01-2.17-.53-3.64,2.53-2.53,5.04-5.1,7.56-7.63.74-.74,1.28-1.32.56-2.55-2.34-3.98-2.32-4.07,1.2-7.14,5.15-4.48,10.34-8.91,15.58-13.29,1.51-1.26,1.52-1.85-.39-2.65-2.14-.89-4.35-1.56-6.42-2.7-5.32-2.92-10.41-6.28-16.21-8.31-1.84-.64-4.68-.33-5.28-2.12-.62-1.84,1.34-3.77,2.45-5.5,1.08-1.69.72-2.83-.79-4.03-2.88-2.28-5.82-4.46-8.99-6.31-1.84-1.07-2.33-1.92-.65-3.73,2.27-2.44,4.46-4.98,7.04-7.08,1.57-1.28,1.83-2.24.61-3.88-.99-1.33-1.86-2.9-.18-4.46,2.26-2.09,4.45-4.26,6.79-6.27,4.3-3.69,8.67-7.28,13.02-10.91,1.2-1.01,1.5-1.52-.46-2.11-3-.9-5.93-2.05-8.74-3.56-5.19-2.8-10.13-6.1-15.79-8.04-1.84-.63-4.68-.35-5.3-2.11-.65-1.84,1.33-3.77,2.43-5.5,1.06-1.67.76-2.82-.76-4.04-3-2.39-6.12-4.62-9.41-6.58-1.66-.99-1.71-1.78-.42-3.25,2.32-2.63,4.68-5.22,7.37-7.45,1.38-1.14,1.68-2.01.58-3.5-1.05-1.42-1.93-2.99-.42-4.74.74-.86.29-1.62-.57-2.02-4.91-2.29-9.29-5.56-14.35-7.59-1.5-.6-2.84-.63-4.32-.04-5.14,2.04-9.74,5.09-14.56,7.71-9.34,5.07-18.86,5.95-28.82,2.27-5.65-2.09-10.64-5.46-15.9-8.3-3.8-2.05-7.32-2.98-11.13-.2-1.4,1.02-3.06,1.69-4.59,2.53-6.11,3.34-12,7.15-19.21,7.94-7.25.79-14.1-.32-20.55-3.68-4.72-2.46-9.36-5.09-14.02-7.67-2.39-1.32-4.57-1.13-7.08.03-6.27,2.9-11.87,7.08-18.39,9.47-7.82,2.86-15.61,2.9-23.4-.04-5.16-1.95-9.87-4.79-14.55-7.64-4.54-2.76-8.92-3.94-13.61-.47-1.06.78-2.32,1.29-3.49,1.94-6.16,3.43-12.11,7.27-19.41,8.06-6.99.76-13.73-.18-19.9-3.34-3.98-2.04-8.02-4.11-11.73-6.63-5.58-3.79-10.63-2.83-15.99.51-4.71,2.94-9.52,5.75-14.79,7.69-9.22,3.39-18.26,2.6-26.86-1.62-4.15-2.04-8.27-4.3-12.21-6.79-3.77-2.38-7.45-3.03-11.34-.25-1.34.96-2.91,1.61-4.37,2.41-6.12,3.32-11.99,7.18-19.18,7.97-7.67.84-14.82-.45-21.64-4.19-4.74-2.6-9.29-5.57-14.32-7.64-1.58-.65-2.96-.64-4.55,0-5.06,2.01-9.61,5-14.35,7.58-9.5,5.18-19.17,6.06-29.28,2.19-5.24-2-9.83-5.23-14.8-7.72-2.21-1.11-4.43-2.95-6.91-2.54-3.36.56-6.32,2.49-9.24,4.28-.65.4-.99,1.06-.33,1.65,1.86,1.68.78,3.31-.27,4.62-1.28,1.61-.78,2.54.5,3.74,2.55,2.4,4.92,4.98,7.45,7.39,1.38,1.31,1.48,2.13-.33,3.16-3.47,1.99-6.72,4.33-9.85,6.83-1.25,1-1.6,2.01-.72,3.42.79,1.27,1.46,2.62,2.21,3.91.97,1.67.85,2.65-1.34,3.17-3.81.91-7.41,2.41-10.88,4.31-4.44,2.43-8.68,5.27-13.46,7.05-1.76.65-3.56,1.21-6.14,2.07Z"/>
      <path d="m808.29,818.47c-5.29.65-11.13-1.21-16.4-3.9-4.78-2.44-9.64-4.9-14.18-7.84-4.31-2.79-8.45-3.28-13-.39-4.63,2.95-9.51,5.53-14.37,8.04-4.31,2.23-9.04,3.72-14.04,4.08-7.31.53-14.45-.49-20.85-3.85-4.84-2.54-9.68-5.16-14.4-7.96-.5-.3-1.02-.56-1.52-.86-3.46-2.08-6.84-1.98-10.35.06-5.1,2.97-10.24,5.93-15.48,8.63-7,3.62-14.65,4.64-22.57,3.8-7.97-.85-14.45-5.14-21.25-8.73-3.16-1.67-6.24-3.51-9.54-4.92-1.56-.67-3-.75-4.57-.07-6.22,2.67-11.86,6.39-17.82,9.52-4.47,2.35-9.31,3.93-14.45,4.36-7.39.62-14.61-.44-21.09-3.84-4.84-2.54-9.74-5.06-14.38-7.99-4.17-2.63-8.15-3.17-12.54-.41-4.71,2.96-9.63,5.65-14.56,8.19-4.44,2.29-9.35,3.79-14.54,4.11-7.15.44-14.11-.61-20.36-3.84-4.85-2.51-9.64-5.23-14.42-7.92-1.81-1.02-3.75-1.79-5.65-2.64-1.44-.65-2.88-.62-4.37-.04-6.7,2.63-12.67,6.63-18.99,9.97-4.71,2.49-9.77,4.05-15.18,4.46-7.16.54-14.1-.65-20.37-3.83-4.64-2.35-9.33-4.79-13.7-7.67-4.73-3.13-9.24-3.61-14.12-.37-4.36,2.9-9.09,5.24-13.68,7.72-4.18,2.27-8.87,3.83-13.78,4.07-6.37.31-12.58-.12-18.6-2.74-5.2-2.27-10.12-5.01-14.84-8.04-6-3.84-11.54-4.28-17.47.02-3.69,2.68-7.85,4.8-11.92,6.76-10.04,4.82-20.55,5.73-31.23,1.67-5.54-2.11-10.64-5.1-15.57-8.26-6.13-3.93-11.78-4.63-17.91-.1-3.67,2.71-7.83,4.83-11.91,6.76-10.23,4.84-20.89,5.69-31.7,1.36-4.97-1.98-9.44-4.82-14.05-7.41-4.98-2.8-10.16-5-15.68-6.39-1.93-.49-2.02-1.42-1.2-2.87.98-1.74,1.88-3.54,3.02-5.18,1.28-1.84.87-3.01-.81-4.37-3.89-3.17-8.09-5.87-12.32-8.52-1.62-1.02-1.63-1.83-.34-3.05,3.62-3.43,6.69-7.44,10.64-10.53,1.47-1.15,1.23-1.91,0-2.88-.32-.26-.58-.61-.9-.87-1.43-1.17-1.38-2.01.13-3.31,3.47-2.99,6.65-6.3,10.04-9.37,10.12-9.16,19.45-19.14,29.7-28.16,4.63-4.08,8.08-4.11,12.35.36,9.74,10.21,20.73,19,31.45,28.12,1.23,1.04,2,.73,2.93-.26,5.38-5.67,11.62-10.44,16.92-16.24,4.31-4.71,9.31-8.8,14.17-12.98,3.43-2.95,6.73-2.67,10.01.45,3.68,3.5,7.31,7.05,10.97,10.57,6.85,6.59,14.49,12.25,21.6,18.54.96.85,1.74.84,2.55-.09,4.44-5.1,10.19-8.8,14.64-13.93,5.02-5.79,11.05-10.6,16.83-15.62,3.3-2.86,6.62-2.57,9.81.45,2.72,2.58,5.46,5.14,8.09,7.8,7.59,7.65,16.24,14.05,24.28,21.16,1.41,1.25,2.21.8,3.31-.29,6.15-6.08,12.72-11.72,18.67-18.02,3.82-4.04,8.16-7.6,12.43-11.18,3.22-2.71,6.52-2.45,9.63.46,2.74,2.56,5.46,5.15,8.09,7.8,7.82,7.89,16.76,14.47,25.04,21.82,1.41,1.25,2.35,1.39,3.95-.01,10.66-9.32,20.23-19.8,30.91-29.1,4.33-3.77,7.71-3.89,11.75.25,9.9,10.16,20.77,19.21,31.66,28.25,1.22,1.01,1.89.74,2.92-.19,5.64-5.06,11.32-10.07,16.5-15.62,4.5-4.82,9.68-8.91,14.52-13.35,3.46-3.17,7.07-2.98,10.41.44,9.91,10.14,20.71,19.27,31.62,28.28,1.61,1.33,2.43,1.23,3.87-.12,4.74-4.43,9.77-8.56,14.18-13.34,5.03-5.47,10.81-10.14,16.27-15.15,3.58-3.28,7.19-3.14,10.61.38,10,10.29,20.98,19.47,32.01,28.59,1.13.94,1.82,1.01,2.92-.02,4.92-4.6,10.16-8.87,14.73-13.85,5.08-5.53,10.97-10.21,16.44-15.33,3.11-2.92,6.88-2.75,10.08.29,4.29,4.06,8.36,8.36,12.78,12.27,6.48,5.74,13.21,11.2,19.78,16.84,1.15.99,1.8.54,2.73-.26,6.99-6.06,13.51-12.6,20.08-19.11,3.6-3.57,7.45-6.9,11.28-10.23,3.06-2.67,6.77-2.44,9.9.53,4.22,4.01,8.24,8.25,12.6,12.1,6.93,6.11,14.1,11.95,21.1,17.98,2.46,2.12,4.72,4.46,7.08,6.69,1.79,1.69.77,3.42-.33,4.65-1.98,2.21-1.26,3.57.65,5.29,2.91,2.62,5.58,5.5,8.33,8.29,2.42,2.45,2.41,2.64-.61,4.48-4,2.43-7.77,5.14-11.44,8.04-1.68,1.33-1.77,2.53-.69,4.22,1.12,1.75,2.01,3.65,3.08,5.43.91,1.52.44,2.28-1.19,2.65-9.6,2.18-17.75,7.46-26.06,12.36-3.67,2.16-11.52,4.03-18.75,4.04Z"/>
    </g>
    <rect class="cls-1" width="1000" height="1000"/>
  </g>
</svg>