<?xml version="1.0" encoding="UTF-8"?>
<svg id="_레이어_2" data-name="레이어 2" xmlns="http://www.w3.org/2000/svg" viewBox="0 0 1000 1000">
  <defs>
    <style>
      .cls-1 {
        fill: none;
      }
    </style>
  </defs>
  <g id="_레이어_1-2" data-name="레이어 1">
    <rect class="cls-1" width="1000" height="1000"/>
    <g>
      <path d="m262.48,213.47c2.7-7.54,7.06-13.14,12.59-17.84,4.53-3.85,9.44-7.11,14.96-9.4,4.4-1.82,8.8-1.9,13.09.12,11.87,5.57,21.73,13.28,26.84,25.89.08.2.28.36.52.67.22-.36.41-.61.53-.89,5.12-12.26,14.7-19.91,26.3-25.45,4.81-2.3,9.68-2.27,14.47.06,11.62,5.67,21.33,13.31,26.27,25.8.05.14.2.24.29.33.46-.03.54-.39.66-.69,5.29-12.59,15.14-20.41,27.19-25.86,4.52-2.04,9.11-1.74,13.54.39,11.42,5.5,20.89,13.04,26.06,25.05.13.29.34.55.61.98.88-.74,1.08-1.75,1.51-2.6,6.11-12.21,16.05-20,28.65-24.56,5.02-1.82,9.74.09,14.1,2.51,10.13,5.61,18.67,12.82,23.24,23.88.09.22.28.4.58.81,1.45-2.62,2.64-5.26,4.25-7.61,6.21-9.08,14.66-15.39,24.86-19.33,5.55-2.14,10.68-.24,15.51,2.48,10.25,5.78,18.82,13.19,23.16,24.57.97-.17.91-.97,1.16-1.51,5.67-12.73,15.84-20.54,28.38-25.59,5.23-2.1,10.21-.28,14.83,2.26,10.31,5.67,18.94,13.01,23.45,24.31.08.21.29.36.6.75,1.77-4.41,3.97-8.38,6.99-11.85,5.79-6.66,12.8-11.64,20.89-15.08,5.76-2.45,11.13-.88,16.26,1.96,10.3,5.7,18.89,13.08,23.34,24.4.06.14.19.25.53.66,1.78-4.34,3.84-8.29,6.79-11.68,6.01-6.91,13.22-12.17,21.75-15.53,3.38-1.34,6.92-1.5,10.27-.12,12.93,5.33,23.46,13.36,28.67,26.88,3.58,9.3,3.52,18.76,0,28.09-.73,1.94-.41,2.85,1.2,4.1,10.9,8.41,16.45,19.44,15.72,33.34-.36,6.9-2.62,13.21-6.71,18.79-1.1,1.5-1.01,2.27.52,3.37,7.89,5.63,14.38,12.5,17.43,21.92,4.72,14.56,2.88,28.13-6.95,40.2-1.3,1.59-.75,2.1.61,2.96,7.85,5,14.47,11.17,18.67,19.69,7.49,15.22,4.73,34.09-7,46.17-1.59,1.63-1.13,2.22.5,3.25,11.79,7.46,20.22,17.41,22.13,31.68,1.74,12.99-1.32,24.7-10.79,34.19-1.8,1.81-1.66,2.62.29,4.07,10.7,7.95,17.62,18.38,19.49,31.7,4.14,29.33-17.61,53.43-46.66,51.26-15.91-1.19-27.88-9.26-35.31-23.61-.34-.67-.66-1.35-.99-2.02-.32-.67-.64-1.33-1.11-2.32-8.01,17.98-21.52,28.02-41.06,27.99-19.47-.02-32.93-9.99-40.89-27.93-8.01,17.86-21.45,27.95-41,27.94-19.48-.02-32.91-10.02-40.97-27.95-7.87,17.98-21.42,27.93-40.92,27.94-19.48.01-32.95-9.93-40.96-27.94-7.86,17.85-21.35,27.88-40.84,27.94-19.59.07-33.11-9.93-41.02-27.71-.75.15-.76.84-.97,1.33-6.42,14.69-17.64,23.36-33.35,25.97-19.55,3.25-38.45-7.11-46.58-25.19-.29-.64-.26-1.74-1.15-1.73-.87,0-.88,1.09-1.16,1.74-11.36,26.03-45.5,34.14-67.37,16.07-5.99-4.95-10.24-11.08-13.32-18.58-7.95,18.05-21.46,28.09-40.98,28.11-19.55.02-33.13-9.91-41.08-28.16-1.96,4.55-4.09,8.54-6.92,12.16-12.14,15.53-35.47,20.54-53.17,11.86-17.73-8.69-27.19-28.5-23.87-47.97,2.25-13.2,9.26-23.35,19.82-31.26,2.61-1.95,2.6-1.97.54-4.38-13.24-15.52-12.53-39.86,1.56-54.63,3.53-3.7,7.4-6.97,11.75-9.65,1.3-.8,1.84-1.47.49-2.83-16.2-16.46-15.28-44.64,4.18-60.78,1.98-1.65,4.08-3.17,6.2-4.64,2.93-2.03,2.97-1.99.83-4.71-5.59-7.14-8.46-15.33-8.53-24.32-.13-15.67,7.05-27.6,19.6-36.51,1.69-1.2,2.11-1.89.78-3.8-11.29-16.19-8.17-37.93,7.27-50.48,2.01-1.64,2.24-2.87,1.25-5.2-7.31-17.19-1.61-36.85,13.84-48.29,3.76-2.78,7.65-5.31,11.94-7.24,4.96-2.22,9.84-2.3,14.71.08,11.71,5.72,21.35,13.55,26.62,26.81Zm278.69,312.98c.34-.21.55-.27.59-.39,5.23-13.18,15.35-21.64,27.22-28.53,8.6-5,17.09-5.6,25.78-.46,1.51.89,3.07,1.69,4.54,2.63,8.98,5.71,16.83,12.55,21.72,22.26.73,1.45,1.36,2.96,2.25,4.89,1.65-3.44,2.93-6.52,4.8-9.25,7.38-10.8,17.54-18.14,29.51-23.03,4.38-1.79,9.02-1.75,13.45,0,10.25,4.07,18.99,10.32,26.2,18.67,3.44,3.99,5.94,8.57,7.94,13.87.72-1.63,1.2-2.86,1.79-4.04,7.12-14.15,18.89-22.99,33.25-28.71,4.15-1.65,8.61-1.5,12.73.22,12.82,5.36,23.68,13.21,30.86,25.45,1.2,2.05,2.15,4.25,3.32,6.57.32-.48.55-.72.67-1.01,3.02-7.51,7.79-13.75,13.92-18.95,1.58-1.34,1.1-1.89-.23-2.86-3.82-2.78-6.93-6.26-9.28-10.35-9.81-17.11-7.09-37.16,7-51.15,1.49-1.48,1.03-1.68-.55-2.3-7.91-3.15-14.27-8.27-18.52-15.7-9.23-16.13-7.32-34.67,4.98-48.75,1.41-1.61.88-2.03-.77-2.67-4.46-1.75-8.47-4.3-11.92-7.64-15.22-14.72-16.12-40.19-1.92-56,1.4-1.56,1.61-2.28-.44-3.38-2.94-1.58-5.49-3.78-7.63-6.38-9.12-11.07-10.71-23.48-6.37-36.86.51-1.56.37-2.29-1.15-3.13-7.03-3.87-12.06-9.6-15.28-16.94-.28-.64-.29-1.49-1.21-1.84-6.45,14.75-17.51,23.27-33.77,23.32-16.37.05-27.47-8.56-34.12-23.6-6.6,15.07-17.73,23.63-34.09,23.6-16.31-.03-27.35-8.67-33.93-23.58-6.69,15.05-17.73,23.58-34.03,23.58-16.23,0-27.26-8.59-34-23.49-6.73,15.01-17.78,23.46-33.93,23.48-16.23.02-27.33-8.46-34.06-23.5-6.79,15.02-17.86,23.56-34.12,23.51-16.3-.05-27.35-8.68-33.92-23.58-6.7,15.06-17.75,23.61-34.04,23.58-16.31-.03-27.42-8.61-33.97-23.59-6.66,15.02-17.7,23.59-33.99,23.59-16.34,0-27.48-8.55-33.92-23.4-.84.6-.95,1.39-1.24,2.05-2.8,6.44-7.08,11.71-13,15.44-2.19,1.38-2.32,2.44-1.41,4.72,6.36,15.9,1.28,34.92-13.78,44.11-1.75,1.07-1.7,1.66-.48,3.1,6.94,8.12,10.43,17.49,10.05,28.25-.59,16.8-8.45,28.71-23.79,35.6-1.56.7-2.15,1-.72,2.62,7.25,8.21,10.92,17.77,10.51,28.82-.61,16.79-8.47,28.71-23.83,35.58-1.63.73-2.12,1.09-.61,2.59,8.64,8.62,12.87,19,12.45,31.3-.43,12.74-5.61,22.96-15.75,30.63-1.42,1.08-1.42,1.57-.16,2.72,5.36,4.91,9.51,10.68,12.16,17.49.14.36.28.81.84.69.11-.12.27-.22.33-.36,6.27-15.23,18.27-24.42,32.73-30.96,4.87-2.2,10-2.37,14.84-.26,14.6,6.39,26.77,15.53,33.18,30.81.15.36.26.82.86.77.13-.18.31-.36.41-.58,6.18-14.84,17.88-23.9,31.94-30.47,5.34-2.49,10.91-2.71,16.25-.28,14,6.38,25.82,15.21,32.19,29.86.19.43.51,1.04.86,1.12.74.16.83-.63,1.05-1.14,1.39-3.22,3.04-6.31,5.15-9.12,7.09-9.43,16.36-16.05,27.07-20.73,4.67-2.04,9.62-2.38,14.38-.42,13.36,5.5,24.51,13.74,31.66,26.65.94,1.7,1.72,3.49,2.62,5.34,1.09-1.01,1.23-2.23,1.72-3.25,6.43-13.29,17.43-21.58,30.33-27.8,6.3-3.04,12.58-2.75,18.78.32,2.46,1.22,4.91,2.48,7.24,3.94,9.32,5.84,17.33,12.97,22.15,23.14.56,1.17,1.08,2.36,1.64,3.57Z"/>
      <path d="m771.27,762.64c2.77-6.93,6.56-12.76,11.83-17.54,5.84-5.3,12.23-9.76,19.59-12.74,4.35-1.77,8.83-2.19,13.16-.34,15.36,6.54,27.99,16.12,33.07,32.84,4.73,15.55,1.93,29.89-9.02,42.17-16.38,18.37-47.92,17.88-63.6-4.06-2.04-2.86-3.47-6.05-5.14-9.52-7.49,17.02-20.18,26.56-38.73,26.56-18.52,0-31.12-9.59-38.66-26.49-7.47,16.91-20.08,26.48-38.57,26.49-18.49,0-31.23-9.4-38.74-26.55-7.49,16.96-20.16,26.57-38.72,26.55-18.49-.02-31.15-9.54-38.66-26.56-7.41,17.01-20.07,26.5-38.54,26.56-18.52.06-31.17-9.44-38.77-26.5-7.5,16.92-20.16,26.53-38.71,26.5-18.48-.03-31.19-9.45-38.63-26.6-7.52,16.95-20.1,26.56-38.59,26.6-18.4.04-31.03-9.4-38.79-26.43-7.57,16.96-20.25,26.45-38.68,26.43-18.5-.02-31.16-9.52-38.71-26.68-1.72,3.98-3.52,7.5-5.92,10.71-9.92,13.29-27.17,19.04-43.98,14.58-15.51-4.11-27.46-18.04-29.41-34.1-2.33-19.14,5.23-33.71,20.5-44.76,3.65-2.64,7.54-4.89,11.63-6.81,5.84-2.75,11.61-2.67,17.35.14,12.91,6.32,23.71,14.83,29.36,28.61.09.21.3.37.65.79,1.79-3.79,3.43-7.48,5.91-10.72,6.92-9.04,15.87-15.37,26.29-19.68,5.38-2.22,10.67-1.27,15.7,1.25,12.62,6.3,23.16,14.76,28.78,28.22.12.28.32.52.7,1.12,1.64-3.99,3.33-7.58,5.78-10.76,6.93-9.01,15.77-15.46,26.23-19.76,5.67-2.33,11.14-1.29,16.39,1.39,12.48,6.39,22.91,14.86,28.37,28.3.06.14.2.25.56.69.62-1.37,1.14-2.62,1.75-3.81,6.89-13.48,18.15-21.89,32-27.1,3.95-1.49,8.12-.99,11.96.76,13.74,6.26,25.14,15.03,31.09,29.52.06.14.23.22.36.35.82-.21.75-1.02,1-1.57,6.5-14.41,18.1-23.16,32.31-28.87,5.12-2.06,10.2-.77,14.97,1.62,12.71,6.37,23.22,14.97,28.76,28.57.05.12.24.19.56.42,1.83-4.42,4.03-8.6,7.08-12.24,6.88-8.21,15.34-14.26,25.31-18.16,4.21-1.65,8.55-1.59,12.69.19,12.65,5.42,23.24,13.3,29.83,25.76.76,1.44,1.4,2.94,2.31,4.87,2.33-5.82,5.19-10.78,9.19-14.96,6.65-6.94,14.31-12.46,23.37-15.86,3.87-1.46,7.9-1.7,11.74-.12,13.4,5.5,24.53,13.7,31.2,27.01.59,1.18,1.07,2.43,1.75,3.99,1.77-4.2,3.7-7.99,6.31-11.4,6.82-8.9,15.7-15.08,25.93-19.35,5.05-2.11,10.16-1.51,15.03.84,13.11,6.33,24.01,14.97,29.67,28.95.06.14.2.25.59.72Z"/>
    </g>
  </g>
</svg>