<?xml version="1.0" encoding="UTF-8"?>
<svg id="_레이어_2" data-name="레이어 2" xmlns="http://www.w3.org/2000/svg" viewBox="0 0 1000 1000">
  <defs>
    <style>
      .cls-1 {
        fill: none;
      }
    </style>
  </defs>
  <g id="_레이어_1-2" data-name="레이어 1">
    <rect class="cls-1" width="1000" height="1000"/>
    <g>
      <path d="m216.28,546.13c-.4,13.29-6.8,26.27-20.71,35.02-26.92,16.92-63.15-.89-66.23-32.41-1.79-18.34,5.02-32.82,19.3-44.06,4.07-3.2,8.41-5.96,13.02-8.33,7.09-3.66,14.12-3.99,21.29-.32,11.93,6.12,22.33,13.9,28.53,26.24,3.18,6.33,5,14.19,4.8,23.87Z"/>
      <path d="m871.8,544.96c-.48,14.25-6.57,27.25-20.23,35.83-26.54,16.68-62.57,1.58-66.66-31.68-2.4-19.47,5.61-34.46,21.09-45.87,4.37-3.22,8.97-6.03,13.99-8.14,5.71-2.4,11.37-2.37,16.93.29,12.9,6.15,23.99,14.35,30.41,27.66,3.09,6.41,4.47,13.21,4.47,21.91Z"/>
      <path d="m503.02,587.57c-26.2-.05-45.06-18.1-46.15-41.69-.85-18.33,7.05-32.24,21.59-42.79,4.25-3.09,8.7-5.84,13.56-7.91,4.79-2.04,9.75-2.7,14.59-.75,14.24,5.74,26.07,14.47,32.97,28.62,8.42,17.27,4.93,38.77-8.3,51.88-8.5,8.43-18.91,12.46-28.26,12.64Z"/>
      <path d="m232.14,778.04c-.02,22.29-15.09,39.31-37.19,41.97-21.25,2.56-42.01-13.86-44.61-35.09-2.38-19.42,5.13-34.21,20.73-45.34,4.76-3.39,9.73-6.43,15.41-8.08,3.82-1.11,7.69-.85,11.26.73,13.7,6.07,25.15,14.66,31.18,29.01,2.26,5.37,3.23,10.99,3.22,16.8Z"/>
      <path d="m459.35,778.4c-.11-12.62,4.36-23.44,13.31-32.29,5.79-5.72,12.48-10.21,19.97-13.48,4.65-2.03,9.4-2.48,14.08-.52,13.11,5.49,23.99,13.65,30.52,26.68,9.91,19.8,2.78,44.63-15.94,55.75-26.6,15.8-60.84-2.94-61.93-33.9-.03-.75,0-1.5,0-2.24Z"/>
      <path d="m812.65,820.11c-24.7,0-42.39-16.62-43.82-38.38-1.2-18.28,6.64-31.95,21.2-42.27,4.01-2.84,8.2-5.4,12.82-7.18,4.29-1.65,8.68-2.08,12.92-.29,15.63,6.62,28.39,16.41,33.34,33.47,4.46,15.38,1.55,29.53-9.29,41.65-7.97,8.91-18.28,12.66-27.17,13Z"/>
      <path d="m836.67,366.88c-.01,17.91-9.99,32.33-25.63,37.64-22.75,7.72-46.6-6.67-50.06-30.47-2.66-18.29,4.67-32.28,19.42-42.74,3.93-2.79,7.97-5.45,12.64-6.97,3.61-1.17,7.24-1.47,10.77-.04,13.87,5.61,24.96,14.26,30.46,28.74,1.76,4.63,2.67,9.45,2.41,13.84Z"/>
      <path d="m242.66,367.75c.61,19.28-12.66,35.44-30.18,39.1-21.76,4.54-43.15-10.77-45.61-32.82-1.97-17.64,5.03-31.09,19.01-41.31,3.83-2.8,7.81-5.38,12.32-7.05,3.89-1.45,7.83-1.9,11.71-.34,13.82,5.55,24.76,14.25,30.37,28.54,1.81,4.61,2.68,9.44,2.39,13.89Z"/>
      <path d="m536.63,226.11c0,17.45-9.64,31.14-25.09,36.23-19.35,6.38-40.2-4.82-45.66-24.52-4.77-17.2,1.21-33.46,16.45-44.76,3.15-2.34,6.49-4.35,10.01-6.09,5.39-2.66,10.71-2.8,16.08-.08,12.03,6.08,21.97,14.16,26.33,27.57,1.29,3.99,2.15,8.05,1.87,11.66Z"/>
      <path d="m808.67,226.09c0,16.81-9.01,30.34-23.37,35.66-21.97,8.14-45.26-5.74-48.41-29.01-2.38-17.63,4.87-30.89,19.1-40.82,3.29-2.29,6.72-4.31,10.46-5.81,3.72-1.49,7.52-1.87,11.21-.33,13.08,5.44,23.61,13.66,28.75,27.43,1.62,4.32,2.43,8.82,2.25,12.87Z"/>
      <path d="m264.6,224.97c-.03,18.77-9.94,32.52-25.71,37.58-19.54,6.26-41.11-6.21-45.48-26.28-3.91-17.97,2.59-33.38,18.78-44.59,3.16-2.19,6.48-4.07,10.05-5.52,4.05-1.65,8.17-1.86,12.16-.09,10.67,4.72,19.72,11.41,25.51,21.85,3.27,5.89,4.61,12.26,4.7,17.06Z"/>
    </g>
  </g>
</svg>