<?xml version="1.0" encoding="UTF-8"?>
<svg id="_레이어_2" data-name="레이어 2" xmlns="http://www.w3.org/2000/svg" viewBox="0 0 1000 1000">
  <defs>
    <style>
      .cls-1 {
        fill: none;
      }
    </style>
  </defs>
  <g id="_레이어_1-2" data-name="레이어 1">
    <rect class="cls-1" width="1000" height="1000"/>
    <path d="m158,592.82c0-5.66,0-11.31,0-16.97,1.79-15.49,3.37-31.01,5.42-46.46,4.73-35.76,11.06-71.27,16.97-106.84,5.45-32.79,10.87-65.59,16.75-98.3,4.29-23.87,7.7-47.93,13.66-71.48,3.13-12.36,8.64-16.75,21.43-18.58,12.57-1.8,25.22-2.36,37.84-2.66,31.31-.74,62.62-1.19,93.94-1.25,118.97-.23,237.93-.72,356.9,1,16.14.23,32.28.7,48.33,2.88,14.52,1.98,19.09,5.97,22.15,20.03.6,2.76,1.41,5.48,1.97,8.24,8.72,42.68,15.63,85.69,22.96,128.61,5.9,34.57,11.52,69.2,17.02,103.84,2.97,18.7,5.52,37.47,8.07,56.23,1.12,8.21,1.75,16.49,2.6,24.74v15.97c-.23,1.97-.52,3.94-.67,5.92-1.45,19.54-2.85,39.09-4.32,58.63-1.89,25-3.79,50-5.76,75-1.35,17.05-2.83,34.08-4.25,51.12H173c-1.33-9.22-1.7-18.51-2.37-27.79-1.35-18.88-2.78-37.76-4.22-56.63-1.89-24.84-3.8-49.67-5.76-74.51-.81-10.25-1.76-20.5-2.65-30.75Z"/>
  </g>
</svg>