<?xml version="1.0" encoding="UTF-8"?>
<svg id="_레이어_2" data-name="레이어 2" xmlns="http://www.w3.org/2000/svg" viewBox="0 0 1000 1000">
  <defs>
    <style>
      .cls-1 {
        fill: none;
      }
    </style>
  </defs>
  <g id="_레이어_1-2" data-name="레이어 1">
    <g>
      <path d="m353.72,515.79c-6.34,1.85-12.76,2.13-19.26,1.27-5.81-.77-10.91-3.37-15.97-6.11-7.89-4.28-15.47-9.26-24.49-11.03-1.51-.3-1.55-1.31-.9-2.46,1.06-1.89,2.12-3.78,3.21-5.65,1.61-2.78,1.5-3.17-.92-5.16-3.93-3.25-8.16-6.06-12.51-8.69-1.94-1.17-1.85-2.22-.38-3.66,3.5-3.45,6.96-6.95,10.41-10.45.54-.54,1.59-1.04.97-2.03-.67-1.08-1.49-.18-2.17.12-7.18,3.2-14.62,4.38-22.43,3.07-4.07-.69-7.76-2.27-11.4-4.17-7.44-3.88-14.43-8.76-22.82-10.56-2.07-.44-2.12-1.45-1.17-3,.87-1.42,1.57-2.95,2.52-4.31,1.26-1.8,1.02-3.06-.76-4.4-3.47-2.6-6.89-5.27-10.67-7.39-2.01-1.13-2.12-2.26-.52-3.83,2.91-2.86,5.77-5.77,8.65-8.67.7-.71,1.56-1.36.8-2.55-.65-1.02-1.26-1.83-2.73-1.73-6.05.41-12-.05-17.52-2.87-3.03-1.55-6.06-3.13-9.01-4.82-4.29-2.45-8.69-4.62-13.51-5.78-1.85-.45-2.69-1.11-1.38-3.01.89-1.3,1.52-2.77,2.35-4.12.84-1.38.67-2.33-.66-3.39-3.2-2.55-6.51-4.93-10.01-7.03-1.66-1-1.92-1.73-.43-3.14,2.67-2.51,5.14-5.23,7.8-7.75,1.17-1.11,1.37-1.92.38-3.35-2.03-2.94-1.91-3.21.58-5.67,1.24-1.23,2.52-2.43,3.78-3.64.34-.33.98-.56.71-1.14-.14-.29-.66-.54-1.03-.57-6.55-.62-11.81-4.33-17.35-7.3-4.49-2.41-8.98-4.77-13.98-5.95-1.97-.46-2.27-1.34-1.15-2.93.38-.54.6-1.19.93-1.77,2.89-4.99,3.13-3.82-1.82-7.72-2.22-1.75-4.64-3.25-6.99-4.82-2.5-1.67-2.53-1.66-.33-3.89,2.4-2.44,4.77-4.9,7.25-7.24,1.17-1.1,1.4-1.9.4-3.35-2.04-2.95-1.91-3.22.56-5.68,6.1-6.05,12.97-11.21,19.5-16.77,2.93-2.49,5.47-5.37,8.32-7.93,1.44-1.3,1.03-2.23-.29-3.17-2.99-2.12-5.92-4.33-9-6.31-1.53-.99-1.81-1.72-.39-2.97,2.43-2.15,4.22-4.94,6.86-6.89,1.41-1.04,1.86-2.2.6-3.76-1.7-2.1-1.03-3.6.91-5.44,7.2-6.83,15.3-12.6,22.49-19.42,2.66-2.52,5.25-5.12,7.85-7.7,1.15-1.15,2.41-1.94,4.09-2.19,2.42-.36,3.68-2.43,5.22-4.01.61-.62-.12-1.2-.45-1.76-1.95-3.25-2-3.61.85-6.09,6.03-5.25,12.21-10.31,18.21-15.6,3.55-3.13,6.85-6.55,10.29-9.82,1.08-1.03,2.17-2.09,3.42-2.9,2.13-1.38,4.29-1.16,6.24.46,4.22,3.52,8.36,7.14,12.13,11.14,1.17,1.24,1.88,1.46,3.13,0,1.88-2.21,4.02-4.22,6.14-6.21,1.14-1.08,1.55-1.97.39-3.33-1.75-2.05-1.26-3.84.77-5.54,6.12-5.14,12.19-10.34,18.23-15.58,3.71-3.21,7.34-6.53,10.63-10.18,4.01-4.45,7.04-4.78,11.45-.79,3.83,3.46,7.68,6.89,11.29,10.59,4.19,4.29,8.65,8.3,12.91,12.51,1.33,1.32,2.42,1.11,3.66.04,5.22-4.52,10.73-8.71,15.73-13.49,2.94-2.82,5.74-5.79,8.8-8.47,3.2-2.81,5.18-2.82,8.39-.12,3.44,2.89,6.85,5.85,9.99,9.06,7.16,7.33,14.8,14.15,22.29,21.13,1.09,1.01.81,1.78-.1,2.43-2.03,1.43-1.36,2.52.15,3.86,1.92,1.71,3.71,3.58,5.47,5.46,1.15,1.23,2.21,1.33,3.41.16,3.16-3.08,6.3-6.17,9.48-9.22,1.08-1.03,2.17-2.09,3.41-2.9,2.12-1.38,4.32-1.22,6.23.45,3.76,3.29,7.66,6.45,11.12,10.04,6.95,7.2,14.46,13.78,21.74,20.62,1.18,1.11.92,1.88-.09,2.6-1.92,1.37-1.36,2.49.15,3.67.79.61,1.55,1.27,2.25,1.98,2.74,2.8,2.74,2.82,5.72.23,1.38-1.2,2.67-2.51,4.1-3.65,3.16-2.52,5.74-2.4,8.62.47,1.95,1.94,3.81,3.95,5.94,5.7,1,.82,1.66.8,2.53-.1,1.61-1.68,3.22-3.37,4.95-4.93,1.25-1.13,1.54-2.01.03-3.16-.93-.71-1.77-1.47-.34-2.77,8.49-7.73,16.85-15.61,24.99-23.73,2.41-2.4,5.03-4.62,7.67-6.77,2.64-2.16,4.84-2.22,7.41.07,3.67,3.25,7.11,6.76,10.63,10.17,2.91,2.81,2.97,2.82,5.73.03,1.64-1.65,3.24-3.34,4.95-4.92,1.15-1.06,1.49-1.91.04-2.97-1.45-1.07-1.47-1.89.03-3.28,7.94-7.35,15.91-14.67,23.53-22.36,2.75-2.77,5.75-5.31,8.76-7.81,2.51-2.08,4.59-1.93,7.26,0,2.45,1.77,4.33,4.14,6.45,6.23,5.71,5.63,12.06,10.48,18.03,15.8,1.84,1.64,3.14,1.65,5.01-.19,7.6-7.47,15.36-14.77,23.09-22.1,1.14-1.09,2.33-2.19,3.81-2.79,3.25-1.33,5.53.61,7.47,2.67,7.33,7.79,15.61,14.48,23.79,21.3,1.98,1.65,3.79,3.51,5.8,5.13,2.03,1.64,2.29,3.41.66,5.36-1.11,1.33-.88,2.17.36,3.29,2.09,1.9,4.17,3.87,5.93,6.07,1.48,1.86,2.28,1.35,3.64-.09,3.55-3.75,7.42-7.18,11.41-10.46,2.9-2.38,4.84-2.25,7.85,0,2.22,1.66,3.95,3.82,5.88,5.74,7.4,7.37,15.85,13.5,23.52,20.53.61.56,1.2,1.17,1.86,1.67,2,1.52,2.15,3.32.62,5.16-1.2,1.43-.94,2.34.42,3.48,1.59,1.34,2.88,2.95,5.24,3.05,1.17.05,2.05,1.03,2.87,1.88,8.01,8.28,16.93,15.53,25.74,22.91,2.04,1.71,3.88,3.66,5.86,5.44,1.57,1.41.8,2.86-.12,3.98-1.55,1.88-.89,3.14.74,4.33,2.59,1.89,4.28,4.65,6.67,6.73,1.38,1.2.98,2.05-.43,2.84-3.13,1.76-5.95,3.98-8.84,6.09-1.66,1.21-1.79,2.11-.26,3.7,7.11,7.43,15.44,13.45,23.09,20.26,1.55,1.38,2.96,2.95,4.6,4.22,2.12,1.64,2.21,3.45.61,5.32-1.4,1.63-.88,2.64.5,3.92,2.56,2.38,4.91,4.99,7.45,7.39,1.39,1.31,1.46,2.09-.32,3.15-3.5,2.09-6.81,4.48-10.02,7.02-1.46,1.15-1.53,2.17-.63,3.59.88,1.41,1.62,2.92,2.52,4.31.93,1.43.43,2.11-1.04,2.47-7.82,1.89-14.44,6.32-21.44,9.99-2.98,1.56-6.12,3.05-9.62,3.3-.65.05-1.49,0-1.7.75-.19.68.63.88,1.03,1.27,1.18,1.18,2.29,2.46,3.61,3.46,2.26,1.71,2.18,3.58.57,5.53-1.17,1.42-.93,2.34.36,3.54,2.74,2.56,5.29,5.32,7.97,7.93,1.15,1.13,1.04,1.8-.34,2.65-3.62,2.22-7.11,4.65-10.42,7.32-1.22.98-1.44,1.89-.64,3.19.95,1.56,1.81,3.19,2.76,4.75.7,1.14.51,1.88-.83,2.21-8.06,1.98-14.91,6.49-22.09,10.35-5.62,3.02-11.8,3.97-18.16,3.45-1.63-.13-2.72.26-3.46,1.74-.83,1.66.64,2.24,1.42,3.05,2.54,2.64,5.18,5.19,7.74,7.82,2.18,2.25,2.14,2.7-.46,4.27-3.57,2.16-6.94,4.59-10.24,7.14-1.68,1.29-2.28,2.42-.96,4.34,1.08,1.57,1.89,3.33,2.82,5,.68,1.22.47,2.02-1.01,2.36-8.93,2.06-16.36,7.28-24.34,11.38-8.97,4.61-18.44,5.35-28.1,2.13-1.66-.55-3.26-1.26-4.87-1.95-.71-.31-1.4-.78-1.95.13-.47.77.21,1.23.66,1.69,2.93,2.96,5.89,5.9,8.83,8.84.65.65,1.26,1.33,1.93,1.96,1.53,1.42,1.5,2.52-.41,3.66-4.5,2.7-8.8,5.7-12.92,8.97-1.65,1.31-1.92,2.5-.86,4.24,1.21,1.99,2.32,4.04,3.47,6.07.67,1.17.92,2.33-.82,2.66-8.19,1.57-15.35,5.61-22.29,9.86-11.74,7.19-24,9.93-37.67,6.36,1.58,1.64,3.16,3.27,4.74,4.91,2.12,2.2,2.11,2.47-.44,4.02-5.2,3.17-10.15,6.67-14.92,10.47-1.57,1.25-1.78,2.34-.76,4.02,1.46,2.42,2.72,4.96,4.12,7.43.87,1.54.6,2.54-1.21,2.88-10.99,2.09-20.1,8.37-29.62,13.59-7.98,4.37-16.22,6.08-25.26,5.92-6.55-.12-12.43-2.07-18.27-4.46-2.26-.93-4.1-2.8-6.81-3.26,2.61,2.69,5.22,5.38,7.83,8.07q2.5,2.57-.38,4.46c-5.02,3.27-10.05,6.53-14.67,10.38-1.51,1.26-1.86,2.34-.84,4.02,1.46,2.42,2.78,4.93,4.2,7.38.86,1.49.73,2.54-1.14,2.9-11.06,2.13-20.23,8.46-29.86,13.67-7.9,4.27-16.06,6.01-25.03,5.88-6.64-.1-12.88-1.69-18.45-4.53-5.35-2.73-10.74-5.61-15.91-8.78-4.87-2.99-10.27-4.72-15.76-6.18-2.67-.71-2.86-1.03-1.44-3.53,1.19-2.1,2.28-4.27,3.62-6.27,1.42-2.13.89-3.54-1-5.04-4.71-3.74-9.74-7-14.78-10.24-1.58-1.02-2.05-1.59-.55-3.08,2.28-2.27,4.35-4.74,6.84-7.48-5.96,2.87-11.49,5.54-17.73,5.88-7.73.41-15.32.42-22.75-2.77-7.2-3.1-13.75-7.3-20.65-10.9-4.63-2.41-9.46-4.09-14.46-5.42-2.81-.75-2.97-1.01-1.68-3.51,1.23-2.36,2.49-4.72,3.87-6.99,1.02-1.67.77-2.75-.77-4.01-4.87-3.94-10.02-7.47-15.33-10.76-1.83-1.13-1.89-2.04-.37-3.38,1.8-1.59,3.55-3.25,5.31-4.88-.17-.24-.33-.47-.5-.71Zm180-258.76c2.88,2.53,5.25,5.44,7.84,8.13,1.32,1.38,1.34,2.2-.35,3.24-3.05,1.88-5.99,3.91-8.82,6.12-1.53,1.19-2.02,2.25-.79,3.94.88,1.2,1.55,2.56,2.28,3.88.59,1.07.55,1.86-.9,2.19-7.13,1.58-13.13,5.61-19.43,8.98-10.57,5.65-20.97,5.36-31.38-.54-4.77-2.7-9.41-5.69-14.74-7.29-5.64-1.7-5.71-1.79-2.6-6.83,1.23-2,.88-3.23-.89-4.61-2.64-2.05-5.34-4.01-8.23-5.64-2.37-1.34-1.79-2.32-.25-3.84,1.46-1.44,3.31-2.63,4.1-4.81-.42-.05-.59-.12-.73-.08-.4.1-.81.21-1.19.36-9.36,3.83-18.35,2.88-27.12-1.95-6.12-3.37-12.03-7.21-18.99-8.75-1.47-.32-1.45-1.15-.88-2.2.71-1.32,1.41-2.65,2.21-3.91,1.05-1.64.86-2.84-.85-3.95-2.71-1.78-5.3-3.75-7.98-5.59-2.65-1.82-2.72-1.83-.65-4.15,2.01-2.26,4.13-4.43,6.2-6.63-3.05,1.03-5.86,2.4-8.55,3.96-10.31,6-20.64,5.98-31.12.45-5.29-2.79-10.26-6.24-16.08-8-1.58-.47-3.07-.7-4.59.11-3.52,1.89-7.13,3.63-10.56,5.67-6.69,3.98-13.87,5.09-21.39,3.72-6.43-1.16-11.78-4.91-17.41-7.95-.91-.49-1.73-1.26-2.92-1.15-.1,1.15.78,1.53,1.32,2.08,2.32,2.38,4.64,4.77,7.05,7.07,1.37,1.3,1.76,2.12-.22,3.32-3.06,1.85-6.04,3.83-8.82,6.11-1.49,1.22-1.87,2.39-.76,4.04.79,1.17,1.41,2.45,2.09,3.69.64,1.16.66,1.91-.96,2.32-5.12,1.3-9.86,3.52-14.37,6.27-7.08,4.31-14.47,7.54-23.06,6.69-.52-.05-1.19-.2-1.68.73,2.94,2,4.9,5.04,7.44,7.53,2.29,2.24,2.29,2.33-.51,4.08-2.41,1.5-4.75,3.08-6.99,4.82-3.26,2.54-3.28,2.51-1.11,6.18.42.72.83,1.45,1.27,2.15.91,1.44.59,2.11-1.14,2.61-4,1.16-7.89,2.65-11.52,4.75-4.75,2.74-9.45,5.6-14.75,7.22-1.59.49-1.3,1.2-.36,2.07,2.08,1.92,3.83,4.19,6.2,5.79,1.55,1.05,2.12,2.09.35,3.43-1.53,1.17-1.26,2.18.06,3.43,2.84,2.7,5.53,5.55,8.32,8.3,1.01.99,1.05,1.6-.24,2.49-3.23,2.21-6.62,4.17-9.63,6.71-1.16.98-1.72,1.86-.31,2.99,4.82,3.87,8.82,8.61,13.38,12.7,6.01,5.4,11.47,11.38,17.73,16.5.84.69,1.33,1.46.3,2.22-2.68,1.97-1.48,3.48.43,5.03.71.57,1.34,1.25,1.95,1.93.91,1.02,1.69,1.25,2.96.31,2.98-2.21,5.91-2.06,8.65.37,4.79,4.26,9.7,8.39,14.12,13.05,7.41,7.79,15.71,14.65,23.34,22.21,1.62,1.61,2.2,2.55.22,3.99-1.76,1.27-1.33,2.39.16,3.51,2.01,1.51,3.83,3.2,5.3,5.26,1.11,1.55,2.19,1.67,3.6.16,2.68-2.85,5.5-5.58,8.32-8.29,3.76-3.61,7.11-3.83,11.02-.51,12.76,10.84,24.25,23.05,36.62,34.31,2.28,2.07,4.27,4.5,6.72,6.33,1.91,1.43,1.99,2.38.23,3.76-.39.31-.69.74-1.09,1.02-1.35.95-1.13,1.77.04,2.73,1.48,1.21,2.96,2.45,4.27,3.83,1.23,1.31,2.14,1.16,3.3-.06,2.07-2.17,4.17-4.32,6.39-6.34,2.64-2.41,4.76-5.38,7.81-7.35,3.25-2.1,6.79-2.1,9.51.29,6.25,5.5,12.59,10.91,18.43,16.84,2.57,2.61,4.83,5.56,7.62,7.91,5.74,4.84,11.2,9.95,16.53,15.22,2.19,2.16,4.18,4.54,6.68,6.38,2.65,1.95,2.68,2.62.12,4.84-.38.33-.79.61-1.18.92-1.08.84-.94,1.66.08,2.43,2.67,2.02,4.94,4.47,7.2,6.92,1.51,1.64,2.51,1.76,4.23.11,4.33-4.14,8.84-8.09,13.38-12,3.88-3.34,7.63-3.27,11.37.24,4.55,4.27,9.04,8.62,13.42,13.06,1.49,1.51,2.48,1.77,3.99.04,1.97-2.26,4.18-4.3,6.31-6.41,1-.99,2.59-1.76,2.94-2.92.53-1.74-1.84-2.01-2.64-3.22-.69-1.04-1.85-1.97-.24-3.11,4.58-3.27,8.05-7.71,12.17-11.46,5.04-4.59,10.46-8.84,15.06-13.84,6.85-7.44,14.39-14.09,21.94-20.75,4.75-4.2,8.77-3.95,13.36.53,3.04,2.97,6.03,5.99,9.05,8.97q4.08,4.04,8.4.32,3.05-2.63.31-5.59c-.76-.82-1.52-1.44-.23-2.62,7.72-7.1,15.52-14.11,22.98-21.47,6.81-6.74,13.84-13.22,20.9-19.69,3.98-3.65,8.47-2.83,11.86.74,2.58,2.72,5.36,5.25,7.94,7.97,1.33,1.4,2.38,1.32,3.42-.15,1.42-2,3.21-3.61,5.13-5.08,1.74-1.33,2.2-2.57.16-4.06-1.41-1.03-1.45-1.87,0-3.31,7.9-7.76,16.44-14.86,24.06-22.9,4.36-4.61,9.34-8.54,13.97-12.85,2.16-2.02,5.03-2.68,7.36-.98,2.56,1.87,3.92,1.05,5.47-.94.41-.52.9-1,1.42-1.4,1.65-1.26,1.75-2.47.05-3.77-1.33-1.03-1.25-2.01.16-2.93,1.9-1.24,3.34-3,4.99-4.52,8.63-7.95,16.65-16.53,25.56-24.17,1.48-1.27,1.31-2.14-.11-3.36-2.93-2.5-6.31-4.34-9.45-6.53-1.38-.96-1.38-1.57-.27-2.65,2.74-2.68,5.36-5.49,8.15-8.11,1.4-1.31,1.7-2.37.07-3.61-1.66-1.26-1.15-2.27.33-3.26,2.37-1.6,4.12-3.88,6.21-5.78,1.33-1.21.99-1.73-.62-2.29-2.5-.88-4.96-1.86-7.32-3.13-5.05-2.72-9.86-5.9-15.39-7.68-5.39-1.73-5.45-1.89-2.45-6.7,1.33-2.13.91-3.45-1.03-4.76-2.97-1.99-5.84-4.14-8.82-6.12-1.08-.72-1.37-1.29-.38-2.31,2.08-2.15,4.11-4.36,6.14-6.56.7-.76,2.38-1.15,1.97-2.23-.37-.97-1.95-.47-2.98-.43-6.34.26-12.07-1.45-17.59-4.6-4.68-2.67-9.27-5.61-14.53-7.18-5.69-1.69-5.73-1.77-2.62-7.05,1.05-1.79.84-2.99-.79-4.25-2.71-2.09-5.51-4.03-8.38-5.89-2.41-1.56-2.41-1.59-.31-3.71,2.34-2.37,4.71-4.7,7.03-7.08.46-.48,1.34-.8,1-1.77-.86-.26-1.46.3-2.08.64-3.14,1.72-6.23,3.54-9.4,5.2-8.26,4.33-16.77,5.02-25.56,1.67-4.38-1.67-8.34-4.15-12.32-6.52-3.54-2.11-6.72-2.03-10.38-.44-6.28,2.72-11.77,6.95-18.24,9.25-8.76,3.1-17.17,2.19-25.26-2.25-2.97-1.63-5.96-3.23-8.94-4.85,1.93,2.85,4.06,5.29,6.34,7.57,1.46,1.46,1.02,2.23-.5,3.22-2.99,1.96-5.85,4.13-8.81,6.14-1.47.99-1.73,2.07-.79,3.56.84,1.34,1.57,2.75,2.33,4.13.69,1.25.39,2.02-1.07,2.33-7.24,1.53-13.25,5.74-19.65,9.1-8.35,4.39-16.89,5.04-25.8,1.76-2.66-.98-4.82-2.88-7.63-3.46Z"/>
      <path d="m640.25,771.4c1.7,1.57,3.44,3.09,5.08,4.72,2.07,2.05,2.02,2.39-.38,3.86-5.2,3.17-10.16,6.66-14.93,10.45-1.65,1.31-1.92,2.43-.82,4.2,1.44,2.34,2.64,4.82,4.01,7.21.93,1.62.71,2.66-1.26,3.04-10.98,2.1-20.09,8.39-29.61,13.61-7.83,4.29-15.94,6-24.78,5.9-6.61-.08-12.62-1.95-18.52-4.44-2.31-.98-4.22-2.86-6.95-3.31,2.81,2.89,5.57,5.84,8.46,8.65,1.57,1.53,1.44,2.39-.45,3.56-5.3,3.29-10.52,6.73-15.32,10.76-1.41,1.18-1.77,2.22-.82,3.82,1.49,2.5,2.85,5.08,4.32,7.6.94,1.61.42,2.47-1.3,2.84-11.72,2.55-21.37,9.41-31.74,14.86-4.85,2.55-10.25,4.48-15.95,4.57-4.97.08-9.99.41-14.88-.77-4.49-1.09-8.7-2.86-12.84-5.02-9.71-5.07-18.86-11.43-29.85-13.7-2.17-.45-2.32-1.42-1.29-3.12,1.33-2.21,2.47-4.55,3.87-6.7,1.33-2.04.86-3.4-.95-4.85-4.76-3.81-9.86-7.12-14.99-10.37-1.79-1.13-1.67-1.78-.35-3.11,2.21-2.24,4.26-4.65,6.28-7.2-1.81,1.45-4.04,1.86-6.1,2.69-11.13,4.47-22.27,4.5-33.53.29-7.52-2.81-14.09-7.36-21.14-11.03-4.48-2.33-9.16-3.97-13.99-5.28-3.35-.91-3.43-1-1.77-4.15,1.17-2.21,2.36-4.41,3.65-6.55.96-1.58.73-2.64-.73-3.83-4.86-3.94-10-7.49-15.32-10.77-1.94-1.19-2-2.13-.38-3.55,1.8-1.57,3.54-3.22,5.06-5.16-3.46.53-6.7,1.09-10,1.35-9.51.74-17.99-2.13-26.12-6.81-7.56-4.35-15.04-9.01-23.81-10.72-1.68-.33-1.66-1.36-.96-2.6,1.19-2.1,2.35-4.22,3.59-6.29.99-1.66.69-2.8-.86-4.04-4.11-3.29-8.4-6.3-12.91-8.99-2.06-1.22-1.95-2.31-.4-3.83,3.45-3.38,6.85-6.82,10.23-10.27.58-.59,1.78-1.12.99-2.21-.71-.97-1.54-.03-2.21.27-7.19,3.21-14.64,4.29-22.44,3.01-3.91-.64-7.48-2.16-10.96-3.97-7.51-3.92-14.56-8.85-23.02-10.71-2.2-.48-2.23-1.53-1.22-3.16.88-1.42,1.59-2.94,2.53-4.31,1.19-1.72.94-2.94-.74-4.21-3.52-2.67-7.02-5.36-10.87-7.54-1.91-1.08-1.99-2.18-.48-3.67,2.91-2.87,5.77-5.77,8.64-8.68.68-.69,1.65-1.3.94-2.53-.65-1.13-1.34-1.93-2.92-1.83-5.96.4-11.83-.03-17.28-2.84-3.03-1.56-6.07-3.1-9.03-4.79-4.36-2.49-8.83-4.7-13.74-5.87-1.79-.43-2.52-1.12-1.3-2.87.47-.68.74-1.49,1.18-2.2,2.98-4.87,2.27-3.91-1.54-7.01-2.51-2.04-5.27-3.81-8.03-5.51-1.56-.97-1.75-1.68-.39-2.98,2.71-2.59,5.27-5.34,7.97-7.93,1.09-1.04,1.27-1.8.35-3.15-2.1-3.09-2-3.28.61-5.87,1.24-1.23,2.48-2.47,3.81-3.61.98-.85.9-1.47-.33-1.61-7.13-.8-12.8-4.93-18.87-8.15-3.99-2.11-8.03-4.09-12.45-5.11-1.77-.41-2.55-1.1-1.31-2.86.47-.68.74-1.49,1.18-2.2,2.99-4.89,2.27-3.92-1.53-7.01-2.51-2.04-5.27-3.81-8.03-5.52-1.54-.96-1.79-1.66-.41-2.98,2.71-2.59,5.27-5.34,7.97-7.93,1.08-1.04,1.3-1.79.37-3.15-2.12-3.1-2.02-3.29.6-5.87,6.18-6.09,13.2-11.21,19.67-16.96,3.91-3.48,7.73-7.1,11.3-10.92,4.11-4.4,7.47-4.6,11.91-.59,10.37,9.38,20.3,19.22,30.37,28.91.48.46.97.93,1.53,1.27,1.98,1.19,2.65,2.43.45,4.09-1.31.99-.79,1.92.19,2.88,2.8,2.74,5.51,5.57,8.32,8.3,1.16,1.13,1.31,1.78-.24,2.82-3.11,2.08-6.32,4.01-9.24,6.39-1.52,1.24-1.78,2.13-.17,3.51,9.08,7.83,17.34,16.52,26.1,24.7,1.4,1.31,2.65,2.78,4.27,3.83,1.49.96,1.66,1.98.21,3.1-1.58,1.22-1.56,2.38.02,3.6.59.46,1.12,1,1.61,1.57,1.51,1.77,2.8,2.95,5.26.91,2.08-1.72,5.29-1.04,7.58,1,4.53,4.05,9.21,7.94,13.43,12.34,7.9,8.24,16.63,15.62,24.79,23.59,1.2,1.17,1.12,1.92,0,2.79-2.21,1.73-2.82,2.13.4,4.68,1.72,1.36,3.22,2.89,4.52,4.63,1.14,1.53,2.19,1.69,3.61.17,2.62-2.79,5.47-5.37,8.12-8.14,3.39-3.55,8.01-3.77,11.5-.59,7.39,6.73,14.55,13.69,21.81,20.54,7.32,6.91,14.46,14.02,22.05,20.64,1.23,1.07.81,1.7-.03,2.62-2.77,3.03-2.75,3.05.39,5.82q4.11,3.64,8.05-.27c3.13-3.11,6.28-6.21,9.39-9.34,4.31-4.32,9.39-4.18,13.23-.47,7.25,6.98,14.96,13.45,21.88,20.82,6.19,6.6,13.56,12.05,19.87,18.58,2.25,2.33,4.38,4.82,7.16,6.58,1.75,1.1.84,2.1,0,3.27-.84,1.17-3.07,1.43-2.7,3.23.28,1.37,2.03,1.86,2.99,2.89,1.65,1.77,3.48,3.37,5.08,5.17,1.35,1.52,2.32,1.53,3.86.09,4.49-4.22,9.1-8.31,13.76-12.33,3.61-3.12,7.48-3.03,11,.26,4.68,4.38,9.26,8.86,13.8,13.4,1.36,1.36,2.24,1.49,3.63.02,2.81-2.96,5.52-6.03,8.78-8.52,1.2-.92,1.03-1.76-.1-2.58-.4-.29-.81-.59-1.18-.93-2.37-2.14-2.32-2.77.28-4.68,2.57-1.88,4.6-4.35,6.86-6.55,5.13-5,10.28-9.95,15.82-14.52,2.8-2.32,5.08-5.26,7.63-7.89,5.92-6.11,12.4-11.6,18.76-17.23,2.69-2.38,6.38-2.52,9.51-.58,3.17,1.96,5.31,5.03,8.01,7.49,2.28,2.07,4.42,4.3,6.57,6.51,1.02,1.05,1.85,1.14,2.93.05,1.47-1.47,3.05-2.82,4.63-4.18,1.06-.91,1.28-1.7-.05-2.52-.28-.17-.51-.42-.76-.65-2.45-2.26-2.41-2.23.17-4.35,1.35-1.11,2.52-2.42,3.8-3.62,13.06-12.23,25.69-24.92,39.03-36.86,3.21-2.87,7.83-2.98,11.31.62,2.6,2.7,5.41,5.2,7.93,7.98,1.67,1.84,2.89,1.59,4.11-.26,1.36-2.07,3.35-3.47,5.18-5.03,1.4-1.19,1.65-2.19.07-3.36-1.85-1.38-1.68-2.34.11-4,7.84-7.22,15.57-14.56,23.13-22.07,4.62-4.59,9.57-8.78,14.34-13.19,2.7-2.49,5.71-2.64,8.64-.46,1.22.9,2.02.87,2.96-.21.54-.63,1.13-1.23,1.77-1.76,1.96-1.63,3.54-3.21.55-5.39-.94-.69-.38-1.44.36-2.03,6.17-4.97,11.45-10.9,17.37-16.16,4.76-4.24,8.92-9.19,13.92-13.22,1.13-.91.83-1.73-.18-2.66-2.92-2.65-6.38-4.53-9.62-6.72-1.68-1.13-1.41-1.82-.2-2.99,2.69-2.61,5.26-5.35,7.97-7.94,1.25-1.2,1.75-2.21.15-3.43-1.69-1.28-1.3-2.24.24-3.46,5.23-4.15,9.57-9.25,14.56-13.68,6.28-5.57,11.94-11.81,18.31-17.31,3.8-3.28,7.25-3.31,10.65.29,6.59,6.97,13.75,13.3,21.19,19.34,3.69,2.99,7.24,6.13,10.73,9.35,2.01,1.86,2.33,3.57.64,5.53-1.33,1.55-.85,2.51.45,3.72,2.49,2.33,4.77,4.89,7.28,7.21,1.63,1.51,1.82,2.41-.33,3.64-3.46,1.99-6.67,4.39-9.81,6.89-1.35,1.07-1.46,2.04-.62,3.4.92,1.49,1.73,3.04,2.64,4.53.65,1.07.7,1.9-.71,2.25-8.14,2.01-15.05,6.59-22.34,10.42-2.81,1.48-5.84,2.9-9.19,3.02-.57.02-1.29.03-1.55.61-.33.73.49.93.87,1.31,1.3,1.29,2.53,2.68,3.97,3.8,1.96,1.54,1.97,3.27.52,4.92-1.63,1.84-.87,2.94.6,4.31,2.55,2.39,4.92,4.98,7.44,7.41,1.23,1.18,1.2,1.88-.32,2.81-3.48,2.13-6.8,4.5-10.03,7.01-1.67,1.3-1.69,2.4-.67,3.98.82,1.25,1.44,2.63,2.28,3.88.95,1.41.79,2.28-.96,2.67-7.04,1.56-13.15,5.26-19.25,8.8-6.43,3.73-13.19,5.41-20.52,4.89-1.7-.12-2.93.2-3.65,1.83-.74,1.65.76,2.21,1.54,3.03,2.47,2.59,5.06,5.07,7.56,7.64,2.34,2.41,2.28,2.8-.66,4.56-3.51,2.1-6.77,4.54-10.03,7.01-1.76,1.33-2.09,2.53-.83,4.37,1.03,1.5,1.8,3.19,2.7,4.78.74,1.3.59,2.15-1.05,2.53-8.92,2.08-16.34,7.31-24.33,11.4-8.89,4.55-18.29,5.28-27.87,2.14-1.58-.52-3.1-1.21-4.65-1.83-.73-.29-1.53-1.14-2.21-.17-.76,1.1.43,1.63,1.01,2.22,3.15,3.21,6.36,6.37,9.52,9.57,2.76,2.8,2.79,2.96-.56,5.04-4.18,2.6-8.17,5.44-12.05,8.47-1.57,1.23-1.84,2.38-.85,4.04,1.24,2.07,2.4,4.19,3.59,6.29.7,1.25.7,2.27-.97,2.6-9.95,1.99-18.21,7.68-26.89,12.39-8.04,4.36-16.5,5.92-25.53,4.91-2.45-.28-4.85-.84-7.24-1.46-.15.2-.31.41-.46.61Z"/>
    </g>
    <rect class="cls-1" width="1000" height="1000"/>
  </g>
</svg>