<?xml version="1.0" encoding="UTF-8"?>
<svg id="_레이어_2" data-name="레이어 2" xmlns="http://www.w3.org/2000/svg" viewBox="0 0 1000 1000">
  <defs>
    <style>
      .cls-1 {
        fill: none;
      }
    </style>
  </defs>
  <g id="_레이어_1-2" data-name="레이어 1">
    <rect class="cls-1" width="1000" height="1000"/>
    <g>
      <path d="m291.97,200.3c-.32-6.27.59-12.11,3.06-17.72,3.93-8.92,11.04-14.64,19.13-19.41,2.8-1.65,5.75-3.01,8.95-3.76,4.24-1,8.13.19,11.81,2.05,9.09,4.58,17.01,10.49,21.82,19.81.1.2.33.33.6.58,4.83-9.32,12.57-15.42,21.55-20.2,5.23-2.78,10.53-3.51,16.06-.99,9.73,4.45,18.33,10.23,23.55,19.99,3.3,6.17,4.42,12.79,3.89,20.2,3.27-2.93,6.37-5.41,9.76-7.5,2.42-1.49,4.92-2.8,7.54-3.88,4.38-1.81,8.75-1.88,13.09.08,10.18,4.6,19,10.8,24.09,21.14,3.21,6.51,4.34,13.43,3.04,20.65-.08.47-.39.95.11,1.66,2.65-1.97,5.36-3.87,8.07-5.74,9.4-6.48,18.7-6.68,28.05-.01.81.58,1.69,1.07,2.52,1.62.75.49,1.48,1,2.47,1.67-.88-8.45.56-16.19,5.07-23,6.49-9.79,15.5-16.38,27-19.24,3.86-.96,7.4.6,10.8,2.21,5.3,2.51,10.04,5.88,14.6,10.06.6-3.1.14-5.99.58-8.83,1.62-10.33,7.02-18.2,15.29-24.27,3.77-2.76,7.76-5.15,12.11-6.94,4.94-2.03,9.75-1.9,14.49.45,8.96,4.44,16.84,10.17,21.85,19.11,1.07,1.91,1.56,1.27,2.36-.14,5.2-9.17,13.39-14.87,22.69-19.21,4.62-2.16,9.33-2.28,14.01-.11,11.45,5.3,21.12,12.49,25.49,24.96,1.66,4.72,2.41,9.67,1.64,15.4,1.36-1.15,2.26-1.94,3.18-2.7,4.72-3.9,9.8-7.2,15.6-9.27,3.06-1.09,6.24-1.48,9.31-.35,11.53,4.26,21.16,10.97,26.75,22.29,3.21,6.5,4.3,13.46,2.82,20.66-.36,1.75.12,2.17,1.75,1.53,4.37-1.73,8.67-1.34,12.84.63,11.24,5.31,20.76,12.43,25.09,24.71,2.61,7.38,2.68,14.91.01,22.28-.82,2.28-.42,3.03,1.74,4.01,10.99,4.99,20.33,11.89,24.85,23.64,8.05,20.95-5.35,42.96-27.64,45.62-3.28.39-3.24.36-1.64,3.19,11.33,20.09,4.15,46.64-18.03,55.66-6.97,2.84-14.22,3.48-21.59,2.08-2.12-.4-2.31.01-1.98,2.01,2.9,17.56-1.55,32.69-15.87,43.87-11.24,8.78-24.14,10.67-37.86,7.08-3.46-.91-3.44-1.02-3.39,2.52.22,14.05-4.1,26.39-13.94,36.57-14.59,15.09-38.81,18.49-57.69,8.23-.81-.44-1.68-1.68-2.58-.92-.71.6-.12,1.89-.1,2.88.56,20.55-6.39,37.68-24.32,48.66-17.37,10.64-35.16,9.72-52.41-1.01-2.16-1.35-4.08-3.09-6.51-4.96.67,4.42.79,8.46.51,12.48-1.26,18.46-8.9,33.39-25.06,43.07-22.36,13.39-51.29,6.31-65.47-15.74-5.74-8.92-8.58-18.71-8.68-29.3-.02-1.67.04-3.33,0-5-.01-.63.34-1.48-.39-1.82-.73-.33-1.15.49-1.63.89-8.9,7.3-19.08,11.06-30.6,11.11-20.35.08-38.22-11.96-45.81-30.89-3.27-8.16-4.74-16.61-4.12-25.41.06-.85.57-2.03-.35-2.52-.72-.39-1.49.53-2.21.9-19.03,9.98-40.32,7.65-56.26-6.63-8.83-7.92-13.57-18.18-15.11-29.92-.4-3.07-.67-6.15-.37-9.22.21-2.11-.35-2.3-2.3-1.76-16.93,4.69-32.01,1.33-44.21-11.49-10.08-10.59-13.12-23.63-10.83-37.96.57-3.57.63-3.56-2.84-2.99-28.09,4.62-50.29-21.26-42.24-49.25,1.21-4.21,3.15-8.06,5.61-11.66q1.72-2.51-1.36-3.07c-14.21-2.58-24.5-12.38-27.15-26.52-2.73-14.56,2.72-26.09,14.09-35.09,4.06-3.22,8.43-5.98,13.33-7.77,1.3-.48,1.65-1.05,1.14-2.39-5.98-15.56.06-32.08,13.53-41.63,3.13-2.22,6.34-4.3,9.81-5.96,4.68-2.24,9.44-3.22,14.46-1.12,1.17.49,1.87.56,1.57-1.19-2.5-14.94,3.13-26.52,14.88-35.5,3.05-2.33,6.34-4.27,9.76-6.05,5.83-3.03,11.59-3.17,17.47-.2,4.71,2.37,9.1,5.21,13.11,8.64.55.47.93,1.18,2.13,1.34Zm316.69,274.21c-.13-10.61,1.89-20.06,7.09-28.6,8.26-13.57,20.42-22.4,35.08-27.96,4.02-1.53,8.17-1.35,12.27-.03,4.23,1.36,8.13,3.41,11.92,5.71,2.43,1.47,2.67,1.33,2.85-1.49.45-7.04,2.6-13.58,6.26-19.57,6.58-10.77,16.36-17.79,27.55-23.11,5.87-2.79,11.74-2.75,17.6.06,1.4.67,2.84,1.24,4.57,2,0-2.39-.01-4.45,0-6.52.03-3.7.7-7.29,1.99-10.75,5.65-15.11,17.16-23.91,31.77-29.3,1.25-.46,2.12-.64,1.5-2.32-3.42-9.24-2.8-18.31,1.43-27.16.78-1.62.64-2.23-1.34-2.52-8.64-1.26-16.11-4.94-21.62-11.83-7.05-8.81-9.22-18.83-6.58-29.86.69-2.88.65-2.84-2.4-2.4-2.06.29-4.15.65-6.21.57-19.74-.79-33.57-15.31-33.49-35.03,0-.77.49-1.84-.46-2.25-.75-.32-1.28.6-1.87,1.02-7.74,5.64-16.35,8.18-25.88,6.84-11.32-1.59-20.13-7.08-25.72-17.28-.22-.41-.29-.99-1.02-1.02-5.36,10.01-13.62,16.09-24.87,18.06-11.16,1.95-20.92-1.29-29.75-8.36.76,14.03-3.71,25.24-15.56,32.59-11.6,7.19-23.73,6.96-36.02.96,4.01,22.8-11.33,42.45-34.32,43.39-9.59.39-18.33-2.54-25.51-9.05-10.84-9.83-13.77-22.25-10.88-36.62-.86.52-1.35.8-1.84,1.1-7.27,4.49-15.12,6.34-23.64,5.24-14.83-1.91-25.89-12.17-28.94-26.81-.6-2.88-.77-5.77-.68-8.69.01-.48.16-1.07-.36-1.35-.54-.3-.92.19-1.3.48-.33.25-.64.53-.98.78-16.71,12.42-41.52,7.55-51.24-10.66-.21-.4-.25-1.01-1.06-.99-5.31,10.02-13.65,16-24.89,17.99-11.19,1.99-20.92-1.36-29.86-8.47.1,2.07.3,3.64.24,5.2-.87,20.95-19.11,35.76-39.84,32.38-2.89-.47-2.96-.45-2.28,2.36,1.61,6.56,1.53,13.1-.77,19.44-4.69,12.97-14.21,20.14-27.67,22.28-1.38.22-2.23.25-1.35,2.03,5.04,10.2,5.21,20.49.31,30.8-.63,1.32-.33,1.93,1.01,2.4,3.47,1.24,6.66,3.06,9.73,5.07,11.05,7.21,19.05,16.58,21.27,30.06.57,3.48.79,6.99.45,10.83,1.08-.54,1.75-.86,2.4-1.21,7.04-3.75,14.09-4.09,21.27-.31,3.55,1.87,7.01,3.85,10.28,6.16,11.43,8.06,19.33,18.46,21.58,32.6.31,1.94.54,3.9.83,6,3.14-1.69,6.04-3.28,8.96-4.83,7.73-4.09,15.43-4,23.21,0,4.24,2.18,8.29,4.63,12.16,7.4,12.03,8.61,20.46,19.67,23.42,34.47.78,3.9.68,7.9,1.27,11.78.86.14,1.19-.44,1.62-.77,4.05-3.09,8.31-5.85,12.81-8.24,6.16-3.27,12.52-5.08,19.44-2.61,3.62,1.29,7.03,3.03,10.32,5.02,21.33,12.97,33.66,31.1,32.67,56.88-.02.46-.18,1.03.55,1.34.28-.23.6-.47.9-.75,5.68-5.34,12.01-9.74,18.86-13.47,7.98-4.35,15.85-4.85,24.07-.56,7.3,3.81,13.96,8.43,19.99,14,.51.47.83,1.29,1.76,1.18.38-.75.16-1.5.08-2.23-1.27-12.24,1.2-23.71,7.23-34.39,6.79-12.02,17.32-20.02,29.05-26.74,8.83-5.05,17.48-5.06,26.31.03,4.82,2.78,9.5,5.76,14.27,9.59Z"/>
      <path d="m467.59,779.44c5.39-5.18,10.83-8.97,16.38-12.68,11.22-7.49,22.19-7.32,33.32.17,5.33,3.59,10.62,7.19,15.22,11.71.28.28.62.5.93.74.78-.6.45-1.31.4-1.91-1.77-18.78,4.06-34.82,17.51-48,5.31-5.21,11.5-9.29,17.87-13.15,10.06-6.09,19.74-5.29,29.4.82,3.99,2.52,7.98,5.03,11.9,8.31.24-4.6.35-8.74,1.19-12.79,2.76-13.22,9.82-23.72,20.41-31.94,5.41-4.2,11.11-7.91,17.45-10.64,6.35-2.74,12.56-2.8,18.86.06,3.12,1.42,6.18,2.92,9.04,4.79,1.49.97,2.25.83,2.38-1.09,1.17-17.55,10.91-29.54,25.1-38.64,2.74-1.76,5.58-3.32,8.54-4.68,5.98-2.76,11.9-2.85,17.84.03,1.34.65,2.72,1.21,4.02,1.79.7-.36.52-.93.49-1.38-.93-17.26,7.19-29.62,21.09-38.8,5.02-3.31,10.17-6.41,16.43-6.77,1.82-.1,1.52-1.49,1.47-2.59-.21-4.72.39-9.29,2.06-13.74,2.74-7.28,7.63-12.84,13.79-17.36,3.84-2.81,7.86-5.32,12.36-7,3.39-1.26,6.87-1.7,10.27-.4,11.82,4.5,21.86,11.32,26.97,23.38,9.24,21.8-5,45.53-28.76,46.89-2.2.13-2.44.81-1.93,2.73,2.93,10.97,1.93,21.54-3.98,31.33-8.23,13.62-22.77,20.01-39,17.48q-2.77-.43-2.25,2.23c4.7,24.14-9.8,46.49-33.44,51.45-6.89,1.44-13.75,1.1-20.52-.85-3.35-.96-3.36-1-3.29,2.4.25,11.25-2.45,21.69-9.07,30.85-9.12,12.62-21.64,19.14-37.17,19.93-9.33.47-17.99-1.78-26.14-6.26-.55-.3-1.13-1.07-1.77-.61-.66.48-.32,1.4-.26,2.11.98,12.56-1.89,24.21-8.76,34.72-16.19,24.78-50.05,29.5-72.51,10.24-.44-.38-.9-.72-1.5-1.2-.55.9-.11,1.68-.05,2.43,1.59,19.88-3.86,37.09-20.01,49.64-22.42,17.41-54.81,11.54-70.26-12.36-5.81-8.98-8.67-18.85-8.74-29.53-.01-1.75.04-3.5.01-5.25,0-.47-.03-1.15-.32-1.37-.62-.47-1.03.25-1.44.59-4.52,3.77-9.51,6.68-15.09,8.63-22.99,8.06-48.47-2.08-59.55-23.79-4.72-9.26-6.82-19.07-6.16-29.46.02-.25.02-.5.03-.75.07-2.62.07-2.61-2.3-1.39-17.01,8.8-33.89,8.6-50.15-1.57-12.79-8-19.5-20.15-21.53-34.98-.42-3.07-.64-6.15-.35-9.22.2-2.08-.49-2.09-2.23-1.61-16.92,4.7-32.02,1.39-44.24-11.42-10.1-10.58-13.18-23.61-10.9-37.95.58-3.64.64-3.63-3-3.03-22.79,3.75-43.56-13.77-43.75-36.89-.03-3.78.39-7.47,1.35-11.12.81-3.05.73-3.23-2.42-3.55-6.35-.66-12.19-2.69-17.34-6.48-15.11-11.1-18.11-32.95-6.53-47.83,5.39-6.93,12.43-11.75,20.4-15.26,4.5-1.98,9.05-2.08,13.56,0,11.46,5.28,21.12,12.45,25.57,24.89,1.52,4.25,2.21,8.71,1.91,13.26-.07,1.02-.38,2.03,1.2,2.16,8.49.72,15.18,5.3,21.47,10.43,12.07,9.86,16.07,19.03,16.45,36.64,1.86-.83,3.65-1.66,5.47-2.42,4.55-1.89,9.24-2.44,13.88-.55,13.57,5.55,24.81,13.89,31.78,27.17,2.79,5.31,4.21,11.05,4.69,16.99.2,2.49.92,2.2,2.57,1.12,3.28-2.15,6.8-3.87,10.47-5.28,5.21-2.01,10.42-2.13,15.59,0,12.35,5.08,22.87,12.65,30.84,23.45,6.55,8.87,9.34,19.04,9.7,29.96.02.57.06,1.15.1,1.68.94.45,1.29-.32,1.76-.68,5.21-3.91,10.66-7.43,16.67-10.02,5.46-2.35,11.03-2.79,16.51-.41,14.82,6.43,27.13,15.91,35.14,30.24,4.47,7.99,6.6,16.68,6.89,25.82.07,2.22.01,4.44.01,7.39Z"/>
    </g>
  </g>
</svg>