<?xml version="1.0" encoding="UTF-8"?>
<svg id="_레이어_2" data-name="레이어 2" xmlns="http://www.w3.org/2000/svg" viewBox="0 0 1000 1000">
  <defs>
    <style>
      .cls-1 {
        fill: none;
      }
    </style>
  </defs>
  <g id="_레이어_1-2" data-name="레이어 1">
    <g>
      <path d="m548.2,570.3c-.37,17.31-6.3,32.11-20.29,42.9-22.47,17.33-54.79,11.56-70.28-12.33-14.21-21.91-11.05-52.2,7.35-70.73,7-7.04,14.91-12.77,23.94-16.92,6.64-3.06,13.22-2.94,19.75.3,13.79,6.85,25.48,16.02,33,29.83,4.15,7.63,6.46,17.07,6.53,26.96Z"/>
      <path d="m550.21,821.3c-.38,17.31-6.31,32.11-20.3,42.9-22.46,17.33-54.79,11.56-70.28-12.33-14.21-21.91-11.05-52.2,7.35-70.73,6.94-6.98,14.78-12.65,23.72-16.82,6.8-3.18,13.5-3.05,20.2.31,13.69,6.86,25.38,15.95,32.74,29.73,4.48,8.38,6.64,17.38,6.57,26.94Z"/>
      <path d="m465.91,262.29c.29-12.94,6.97-23.49,18.29-31.43,3.89-2.73,7.98-5.14,12.49-6.74,3.4-1.21,6.87-1.55,10.27-.23,11.75,4.56,21.69,11.45,27.53,22.98,10.55,20.82-.26,45.28-22.79,51.26-22.29,5.91-45.45-9.25-45.79-35.85Z"/>
      <path d="m291.92,196.27c.36-10.39,5.37-19.9,14.81-27.13,3.45-2.64,7.09-4.95,11-6.85,5.15-2.5,10.31-3.04,15.62-.53,10.74,5.07,20.01,11.78,24.6,23.25,8.4,21.01-4.98,43.33-27.47,46.05-20.77,2.51-38.5-12.79-38.55-34.79Z"/>
      <path d="m766.92,320.3c.35-10.29,5.27-19.78,14.6-26.99,4.43-3.43,9.12-6.43,14.45-8.29,2.98-1.04,6.09-1.49,9.07-.4,12.42,4.53,22.73,11.74,27.88,24.39,8.53,20.96-4.95,43.34-27.42,46.05-20.79,2.51-38.51-12.76-38.57-34.76Z"/>
      <path d="m157.92,583.22c.4-10.3,5.3-19.71,14.55-26.87,4.43-3.43,9.11-6.43,14.44-8.31,2.98-1.05,6.08-1.52,9.06-.43,12.59,4.59,23.02,11.89,28.09,24.82,8.22,20.98-5.37,43.09-27.75,45.66-16.55,1.9-31.44-7.29-36.61-22.65-1.17-3.48-1.82-7.09-1.77-12.21Z"/>
      <path d="m640.92,196.22c.43-10.47,5.44-19.9,14.8-27.07,3.45-2.64,7.09-4.95,11-6.85,5.14-2.5,10.31-3.05,15.62-.54,10.74,5.07,20.01,11.78,24.6,23.25,8.41,21.01-4.97,43.33-27.46,46.06-20.86,2.53-38.59-12.88-38.56-34.84Z"/>
      <path d="m165.92,320.24c.42-10.35,5.32-19.76,14.57-26.92,4.43-3.43,9.11-6.43,14.44-8.3,2.98-1.04,6.09-1.5,9.07-.42,12.42,4.52,22.74,11.73,27.9,24.37,8.55,20.94-4.91,43.34-27.38,46.07-20.87,2.54-38.61-12.84-38.6-34.82Z"/>
      <path d="m808.8,615.65c-16.95-.01-30.33-10.5-33.44-27.15-2.5-13.36,2.05-24.63,12.39-33.45,4.32-3.69,9.09-6.73,14.35-8.97,4.47-1.9,8.91-2.02,13.33-.06,9.56,4.22,18.04,9.91,23.21,19.29,12.8,23.26-3.28,50.88-29.84,50.35Z"/>
    </g>
    <rect class="cls-1" width="1000" height="1000"/>
  </g>
</svg>