<?xml version="1.0" encoding="UTF-8"?>
<svg id="_레이어_2" data-name="레이어 2" xmlns="http://www.w3.org/2000/svg" viewBox="0 0 1000 1000">
  <defs>
    <style>
      .cls-1 {
        fill: none;
      }
    </style>
  </defs>
  <g id="_레이어_1-2" data-name="레이어 1">
    <rect class="cls-1" width="1000" height="1000"/>
    <path d="m808,344.27v181.69c-1.4,11.75-3.5,23.29-8.11,34.32-9.03,21.59-23.54,39.32-39.54,55.9-18.65,19.32-39.51,36.17-61.02,52.18-57.75,42.97-118.98,80.77-179.36,119.81-12.92,8.35-26.03,7.69-38.89-.62-22.36-14.44-44.85-28.68-67.12-43.26-54.97-35.99-110.61-71.1-159.36-115.63-19-17.36-36.14-36.32-48.2-59.38-7.12-13.62-11-28.11-12.39-43.33,0-60.56,0-121.13,0-181.69.27-1.63.62-3.25.81-4.89,3.48-30.65,14.6-57.85,36.77-79.86,25.92-25.74,57.83-39.68,93.3-46.18,9.94-1.82,20.08-2.59,30.12-3.83,1,0,2,0,3,0,3.41,1.18,6.95.65,10.41.6,37.78-.56,73.07,9.28,107.07,24.99,25.59,11.82,24.77,12.23,49.68.69,27.87-12.9,56.61-22.52,87.47-24.81,7.45-.55,14.91-.99,22.37-1.48,1.67,0,3.33,0,5,0,1.47.21,2.93.58,4.41.61,33.54.67,65.23,8.51,94.37,25.26,32.9,18.92,55.45,46.07,64.69,83.43,2.08,8.4,2.9,17,4.53,25.47Z"/>
  </g>
</svg>