<?xml version="1.0" encoding="UTF-8"?>
<svg id="_레이어_2" data-name="레이어 2" xmlns="http://www.w3.org/2000/svg" viewBox="0 0 1000 1000">
  <defs>
    <style>
      .cls-1 {
        fill: none;
      }
    </style>
  </defs>
  <g id="_레이어_1-2" data-name="레이어 1">
    <path d="m808.15,748.37c-6.22.73-12.14-1.15-17.48-3.91-4.7-2.43-9.49-4.82-13.96-7.72-4.3-2.79-8.45-3.3-13-.4-4.63,2.95-9.51,5.53-14.37,8.04-4.31,2.23-9.04,3.72-14.04,4.09-7.31.54-14.44-.48-20.85-3.84-4.84-2.54-9.68-5.17-14.4-7.96-.57-.34-1.18-.62-1.75-.97-3.41-2.04-6.71-1.81-10.12.16-5.11,2.96-10.25,5.91-15.48,8.63-7,3.63-14.66,4.64-22.57,3.8-7.97-.84-14.45-5.13-21.25-8.73-3.16-1.67-6.24-3.51-9.54-4.93-1.56-.67-3-.75-4.57-.08-6.22,2.66-11.86,6.39-17.82,9.52-4.47,2.35-9.31,3.93-14.45,4.36-7.39.62-14.61-.45-21.09-3.84-4.77-2.49-9.51-5.13-14.19-7.82-1.44-.83-2.99-1.45-4.49-2.18-1.44-.71-2.84-.72-4.34-.1-6.25,2.6-11.86,6.38-17.83,9.5-4.71,2.46-9.76,4.08-15.18,4.47-7.15.51-14.11-.59-20.36-3.82-4.85-2.51-9.64-5.23-14.42-7.92-1.8-1.02-3.75-1.79-5.64-2.64-1.44-.65-2.88-.63-4.37-.05-6.7,2.63-12.67,6.63-18.99,9.97-4.71,2.49-9.77,4.06-15.18,4.47-7.16.55-14.1-.65-20.37-3.82-4.64-2.35-9.33-4.79-13.7-7.67-4.73-3.13-9.24-3.62-14.12-.38-4.36,2.9-9.09,5.24-13.68,7.72-4.18,2.27-8.87,3.83-13.78,4.07-6.37.32-12.59-.1-18.6-2.74-5.19-2.28-10.13-5-14.85-8.03-5.99-3.84-11.53-4.3-17.47,0-3.69,2.68-7.85,4.8-11.92,6.76-10.04,4.83-20.55,5.74-31.23,1.68-5.55-2.11-10.64-5.09-15.56-8.27-6.14-3.96-11.78-4.61-17.91-.11-3.67,2.7-7.84,4.83-11.91,6.76-10.23,4.85-20.88,5.67-31.71,1.39-4.2-1.66-7.98-4.02-11.86-6.22-5.68-3.23-11.5-6.07-17.87-7.6-1.92-.46-2.05-1.4-1.22-2.86,1.03-1.81,1.98-3.67,3.14-5.39,1.13-1.67.76-2.74-.73-3.99-3.92-3.27-8.2-6-12.5-8.69-1.61-1.01-1.66-1.82-.36-3.05,3.62-3.43,6.69-7.44,10.64-10.53,1.45-1.14,1.26-1.9.03-2.88-.32-.26-.58-.6-.9-.87-1.41-1.16-1.41-2.01.11-3.31,3.47-2.98,6.65-6.3,10.04-9.37,10.12-9.16,19.46-19.13,29.7-28.16,4.64-4.09,8.08-4.12,12.35.35,9.74,10.21,20.73,19.01,31.45,28.12,1.22,1.04,1.99.75,2.93-.24,5.31-5.63,11.5-10.33,16.75-16.06,4.36-4.77,9.42-8.93,14.34-13.16,3.43-2.95,6.73-2.68,10.01.44,3.68,3.5,7.31,7.05,10.97,10.57,6.85,6.59,14.49,12.26,21.6,18.54.96.84,1.74.86,2.55-.08,4.44-5.1,10.19-8.8,14.64-13.93,5.02-5.8,11.05-10.6,16.83-15.62,3.3-2.86,6.72-2.67,9.8.45,10.12,10.28,21.12,19.58,32.2,28.78,1.42,1.18,2.19,1.1,3.51-.1,9.93-8.99,19.08-18.8,29.12-27.69,5.14-4.55,8.17-4.64,13.02.31,10.03,10.26,21.14,19.3,32.09,28.53,1.26,1.06,2.1.94,3.38-.16,8.82-7.52,16.57-16.16,25.21-23.86,2.11-1.88,4.17-3.83,6.28-5.72,3.87-3.45,7.41-3.47,11,.21,9.97,10.2,20.85,19.37,31.83,28.43,1.2.99,1.91,1.11,3.11,0,5.01-4.63,10.27-9,14.9-14.03,4.92-5.34,10.59-9.88,15.91-14.8,3.58-3.3,7.21-3.21,10.61.28,9.96,10.21,20.84,19.37,31.82,28.44,1.44,1.19,2.18,1.11,3.49-.1,4.95-4.58,10.14-8.89,14.72-13.86,4.92-5.34,10.59-9.89,15.92-14.79,3.57-3.29,7.19-3.15,10.61.36,10,10.28,20.97,19.47,32.01,28.59,1.13.93,1.81,1.03,2.92-.01,4.92-4.6,10.16-8.87,14.73-13.85,5.08-5.53,10.97-10.21,16.44-15.33,3.17-2.97,6.95-2.72,10.27.45,4.21,4.02,8.24,8.25,12.59,12.1,6.48,5.74,13.21,11.2,19.78,16.84,1.15.99,1.79.56,2.73-.25,6.99-6.06,13.51-12.6,20.08-19.11,3.6-3.57,7.45-6.9,11.28-10.24,3.06-2.67,6.77-2.45,9.9.52,4.22,4.01,8.24,8.25,12.6,12.1,6.93,6.11,14.1,11.95,21.1,17.98,2.46,2.12,4.72,4.46,7.08,6.69,1.79,1.69.78,3.42-.32,4.65-1.97,2.21-1.28,3.57.64,5.29,2.97,2.67,5.7,5.61,8.5,8.46,2.22,2.25,2.22,2.46-.57,4.16-4.06,2.48-7.92,5.22-11.65,8.17-1.67,1.33-1.78,2.52-.7,4.22,1.12,1.75,2.01,3.65,3.08,5.43.9,1.51.46,2.28-1.18,2.66-9.61,2.18-17.58,7.78-26.13,12.24-5.44,2.84-11.39,4.73-17.84,4.06Z"/>
    <rect class="cls-1" width="1000" height="1000"/>
  </g>
</svg>