<?xml version="1.0" encoding="UTF-8"?>
<svg id="_레이어_2" data-name="레이어 2" xmlns="http://www.w3.org/2000/svg" viewBox="0 0 1000 1000">
  <defs>
    <style>
      .cls-1 {
        fill: none;
      }
    </style>
  </defs>
  <g id="_레이어_1-2" data-name="레이어 1">
    <rect class="cls-1" width="1000" height="1000"/>
    <path d="m614.44,716.42c-7.51,16.99-20.14,26.56-38.62,26.57-18.5.02-31.19-9.46-38.72-26.54-7.47,17-20.17,26.55-38.73,26.54-18.5,0-31.14-9.55-38.62-26.52-7.51,16.91-20.11,26.51-38.62,26.52-18.5,0-31.22-9.4-38.71-26.57-7.5,16.85-20.03,26.51-38.51,26.58-18.48.06-31.17-9.4-38.89-26.44-7.62,17.06-20.33,26.51-38.81,26.43-18.4-.08-30.97-9.57-38.37-26.23-.82.18-.85.96-1.09,1.51-6.6,14.79-18.1,23.21-34.05,24.63-15.81,1.4-28.71-4.68-37.82-17.89-10.55-15.29-9.1-38.01,3.22-52.43,6.56-7.68,14.63-13.32,23.88-17.27,4.94-2.1,9.98-1.93,14.81.32,13.26,6.19,24.37,14.7,30.23,28.72.15.36.27.8.98.92,1.79-4.44,4.02-8.7,7.18-12.39,6.91-8.06,15.31-14.06,25.19-17.93,5.52-2.16,10.84-.95,15.91,1.64,12.5,6.37,22.89,14.88,28.37,28.29.06.14.21.24.33.37.66-.06.68-.68.85-1.09,6.19-14.49,17.74-23.18,31.73-29.12,5.36-2.28,10.67-1.2,15.69,1.34,12.5,6.33,23.02,14.7,28.54,28.12.12.29.33.54.62,1,1.2-2.37,2.18-4.65,3.45-6.75,6.85-11.38,17-18.79,29.1-23.71,4.54-1.84,9.19-1.57,13.62.48,13.53,6.27,24.8,14.95,30.68,29.26.09.23.22.44.54,1.06,2.19-5.56,4.89-10.21,8.56-14.25,6.66-7.34,14.61-12.87,23.79-16.55,5.4-2.17,10.66-1.19,15.7,1.32,12.88,6.42,23.47,15.16,28.99,28.9.81-.03.83-.65,1-1.06,6.25-14.56,17.82-23.33,31.95-29.23,4.08-1.71,8.39-1.56,12.45.17,12.75,5.43,23.4,13.35,30.01,25.91.73,1.39,1.33,2.84,2.21,4.74,1.92-4.5,3.9-8.5,6.74-11.98,6.95-8.5,15.53-14.79,25.75-18.78,4.39-1.71,8.88-1.64,13.16.29,13.76,6.2,25.22,14.9,31.15,29.42.09.21.31.36.66.77,2.12-5.27,4.88-10.01,8.6-14.09,6.67-7.32,14.65-12.82,23.86-16.45,4.28-1.69,8.75-1.54,12.94.29,12.11,5.28,22.36,12.84,28.99,24.6.97,1.73,1.74,3.58,2.6,5.39.83-.05.83-.77,1.03-1.25,3.78-9.18,10.28-16.06,18.28-21.67,3.96-2.78,8.07-5.3,12.62-7.05,4.29-1.66,8.68-2.1,12.93-.3,15.29,6.47,27.86,15.97,33.05,32.54,4.89,15.63,2.14,30.05-8.85,42.42-16.39,18.45-47.9,17.97-63.61-3.91-2.08-2.9-3.5-6.18-5.23-9.57-7.47,16.99-20.12,26.49-38.6,26.54-18.53.05-31.15-9.51-38.74-26.48-7.51,16.94-20.18,26.54-38.75,26.48-18.46-.06-31.17-9.5-38.59-26.58Z"/>
  </g>
</svg>