<?xml version="1.0" encoding="UTF-8"?>
<svg id="_레이어_2" data-name="레이어 2" xmlns="http://www.w3.org/2000/svg" viewBox="0 0 1000 1000">
  <defs>
    <style>
      .cls-1 {
        fill: none;
      }
    </style>
  </defs>
  <g id="_레이어_1-2" data-name="레이어 1">
    <g>
      <path d="m230.14,701c0,22.3-15,39.64-37.16,41.91-22.23,2.28-41.41-12.76-44.56-34.97-2.73-19.25,4.94-34.05,20.41-45.2,3.72-2.68,7.67-4.99,11.85-6.9,4.77-2.18,9.71-2.82,14.55-.77,13.9,5.89,25.39,14.55,31.58,28.91,2.34,5.43,3.33,11.14,3.33,17.03Z"/>
      <path d="m457.35,701.37c-.08-13.2,4.8-24.34,14.41-33.32,5.38-5.03,11.48-9.05,18.2-12.14,5.41-2.49,10.8-2.73,16.18-.26,12.41,5.69,22.86,13.63,29.1,26.18,9.82,19.74,2.78,44.53-15.79,55.61-26.71,15.95-61.02-2.73-62.11-33.82-.03-.75,0-1.5,0-2.24Z"/>
      <path d="m810.71,743.11c-24.79,0-42.44-16.61-43.88-38.43-1.2-18.27,6.65-31.95,21.22-42.25,4.02-2.84,8.2-5.4,12.83-7.17,4.3-1.65,8.68-2.07,12.92-.26,15.34,6.54,27.97,16.09,33.09,32.78,4.73,15.44,1.97,29.68-8.77,41.98-7.98,9.15-18.43,13.01-27.41,13.34Z"/>
    </g>
    <rect class="cls-1" width="1000" height="1000"/>
  </g>
</svg>