<?xml version="1.0" encoding="UTF-8"?>
<svg id="_레이어_2" data-name="레이어 2" xmlns="http://www.w3.org/2000/svg" viewBox="0 0 1000 1000">
  <defs>
    <style>
      .cls-1 {
        fill: none;
      }
    </style>
  </defs>
  <g id="_레이어_1-2" data-name="레이어 1">
    <rect class="cls-1" width="1000" height="1000"/>
    <path d="m843.5,637.87v34.93c-1.92,9.4-8.23,12.75-17.24,14.29-23.19,3.96-46.59,3.9-69.93,4.58-24.21.7-48.46.35-72.69.48-1.98.01-4-.23-5.89.62h-354.48c-1.9-.85-3.92-.62-5.91-.61-34.27.05-68.54,0-102.8-1.23-15.12-.55-30.2-1.84-45.08-4.78-5.94-1.18-10.56-4.31-11.96-10.56-.79-3.54-1.05-7.24-1.2-10.88-1.19-29.59,3.78-58.35,12.89-86.35,16.1-49.5,32.58-98.87,49.04-148.24,6.24-18.71,14.97-36.3,25.89-52.69,29.51-44.26,68.75-77.27,116.81-99.94,58.86-27.76,120.71-36.25,184.86-27.59,61.36,8.29,116.1,32.03,162.78,73.21,23.54,20.76,43,44.79,57.94,72.5,9.85,18.27,16.47,37.74,22.89,57.35,13.61,41.56,27.47,83.04,41.18,124.58,6.49,19.65,10.22,39.89,12.9,60.36Z"/>
  </g>
</svg>