<?xml version="1.0" encoding="UTF-8"?>
<svg id="_레이어_2" data-name="레이어 2" xmlns="http://www.w3.org/2000/svg" viewBox="0 0 1000 1000">
  <defs>
    <style>
      .cls-1 {
        fill: none;
      }
    </style>
  </defs>
  <g id="_레이어_1-2" data-name="레이어 1">
    <g>
      <path d="m333.35,640.24c-6.61,2.44-12.3,5.34-19.01,5.07-3.3-.14-6.62-.15-9.94-.29-2.2-.1-4.24-.75-6.3-1.45-5.93-2.03-11.29-5.21-16.65-8.33-6.46-3.76-13.16-6.85-20.4-8.64-1.99-.49-2-1.36-1.18-2.81,1.28-2.24,2.49-4.53,3.85-6.72,1.06-1.71.91-2.8-.76-4.19-4.62-3.86-9.67-7.09-14.73-10.3-1.51-.95-1.52-1.49-.37-2.76,4.02-4.46,8.06-8.88,12.71-12.7,1.24-1.02,1.07-1.75.02-2.81-3.3-3.35-3.26-3.38.35-6.25,1.27-1,2.49-2.04,3.33-3.49-1.01-.6-1.57-.06-2.15.17-9.63,3.9-19.26,3.82-28.95.15-6.89-2.6-12.97-6.73-19.47-10.08-4.17-2.15-8.53-3.77-13.1-4.81-1.59-.36-1.95-1.02-1.16-2.42,1.18-2.11,2.17-4.34,3.52-6.33,1.32-1.96.62-3.09-.94-4.39-4.1-3.44-8.63-6.26-13.14-9.08-1.84-1.15-1.67-1.86-.29-3.1,3.9-3.51,6.86-7.95,11.11-11.11,1.56-1.16,1.71-2.1-.07-3.41-2.63-1.92-2.43-2.43,0-4.64,3.82-3.47,7.51-7.08,11.22-10.67,2.58-2.49,5.04-5.09,8.01-7.14.64-.44,1.44-.89,1.45-2.11-3.91.55-7.76.91-11.66.91-6.95.01-13.13-2.31-19.2-5.45-7.83-4.04-15.19-9.05-23.81-11.49-4.61-1.3-4.57-1.46-2.35-5.65.19-.37.37-.75.58-1.11,3.57-6.1,3.22-4.73-1.85-8.73-3.39-2.68-7.07-5-10.73-7.32-1.54-.98-1.82-1.65-.4-2.95,4.06-3.7,7.15-8.37,11.64-11.64,1.09-.79,1.35-1.61.02-2.52-.75-.51-1.35-1.24-2.01-1.87-.83-.8-.86-1.47.13-2.24,5.38-4.23,9.76-9.53,14.95-13.98,10.23-8.79,19.01-19.12,29.51-27.63,2.3-1.87,4.73-2.49,7.43-1.55,2.62.92,2.57-1.46,3.46-2.58.94-1.19,1.21-2.45-.31-3.68-4.02-3.26-8.27-6.19-12.68-8.88-2-1.22-2.06-2.14-.37-3.72,3.58-3.36,6.41-7.46,10.41-10.4,1.25-.92,1.57-1.91.02-2.92-.55-.36-.98-.89-1.47-1.35-1.05-.97-.83-1.64.22-2.62,8.54-7.92,17.19-15.74,25.45-23.96,5.49-5.47,11.24-10.64,17.01-15.79,2.81-2.51,5.57-2.65,8.69-.67,2.79,1.77,4.74,4.41,6.99,6.74.76.78.52,1.89.52,2.88.01,7.08,0,14.17.02,21.25,0,.81-.2,1.65.24,2.46.89-.05,1.19-.84,1.7-1.32,3.38-3.21,6.33-6.87,10.07-9.7,1.49-1.13.95-1.95-.12-2.98-3.91-3.73-3.06-2.9.28-5.95,3.26-2.97,6.36-6.12,9.54-9.18,1.07-1.03.7-1.56-.59-1.69-1.15-.12-2.32-.08-3.47-.15-6.2-.37-11.61-2.87-17.02-5.74-9.24-4.9-18.05-10.82-28.56-12.96-1.64-.33-1.44-1.35-.84-2.43,1.33-2.4,2.64-4.83,4.08-7.17,1.04-1.69.66-2.7-.85-3.97-4.67-3.94-9.82-7.17-14.93-10.45-1.24-.8-1.41-1.29-.38-2.43,4.07-4.52,8.17-9.01,12.87-12.89,1.22-1,1.15-1.72.07-2.81-3.29-3.36-3.22-3.35.49-6.42,1.6-1.32,3.05-2.83,4.48-4.34,6.81-7.22,14.83-13.16,21.52-20.49,5.8-6.36,12.6-11.61,18.74-17.59,1.52-1.48,3.48-2.17,5.72-2.81-2.77-2.79-6.14-4.3-9.13-6.32-1.57-1.06-1.99-1.69-.45-3.11,3.8-3.49,6.73-7.85,10.89-10.98,1.07-.8,1.07-1.56-.02-2.38-.66-.5-1.25-1.1-1.81-1.71-.74-.8-.83-1.57.2-2.29,4.18-2.95,7.44-6.91,11.07-10.44,4.6-4.47,9.79-8.29,14.07-13.1,4.94-5.55,10.66-10.27,16.19-15.19,4.25-3.78,7.51-3.69,11.57.25,2.93,2.84,5.74,5.81,8.7,8.62,2.78,2.63,5.73,5.08,8.52,7.7,1.39,1.3,2.48,1.35,3.77-.1,2.81-3.18,5.54-6.44,8.94-9.04.86-.66.78-1.36-.05-2.06-.7-.58-1.38-1.2-2-1.87-.76-.81-.78-1.57.23-2.28,4.12-2.9,7.33-6.78,10.89-10.27,4.64-4.54,9.91-8.41,14.25-13.27,5-5.61,10.79-10.37,16.38-15.36,3.88-3.47,7.23-3.46,11.02.12,2.85,2.69,5.58,5.49,8.35,8.27,6.24,6.27,13.35,11.54,20,17.35.52.45,1.22,1.33,1.91.76.89-.74-.05-1.48-.47-2.14-2.21-3.43-2.16-4.04.67-6.82,7.26-7.13,15.48-13.15,23.07-19.9,4.16-3.7,8.05-7.71,12.07-11.57,1.02-.98,2.01-2,3.12-2.87,3.08-2.41,6.11-2.35,9.06.2,5.6,4.85,10.97,9.96,16.28,15.14,7.62,7.44,15.44,14.67,23.26,21.92,1.43,1.32,1.02,2.23-.1,3.28-.96.91-2.59,1.5-.86,3.28,2.51,2.57,2.93,2.77,5.07,1,10.45-8.67,20.99-17.23,30.3-27.17.68-.72,1.46-1.37,2.27-1.95,2.74-1.93,5.82-2.06,8.31.12,5.63,4.92,11.45,9.66,16.5,15.23,3.81,4.2,8.11,7.88,12.38,11.61,4.82,4.22,8.83,9.31,13.99,13.19,1.6,1.21.23,2.01-.52,2.78-2.33,2.38-2.3,2.3.16,4.64,2.66,2.53,5.25,5.12,7.75,7.8,1.11,1.19,1.87,1.19,3.11.19,5.87-4.7,11.01-10.17,16.36-15.42.95-.93,1.91-1.87,2.99-2.64,2.96-2.12,5.98-2,8.89.6,6.08,5.43,12.14,10.86,17.89,16.67,7.72,7.8,15.93,15.12,24.03,22.54,1.37,1.25,1.06,1.92,0,2.98-2.48,2.5-2.41,2.48.17,4.95,3.37,3.23,6.67,6.52,9.7,10.08.9,1.05.75,1.56-.36,2.32-3.13,2.16-6.64,3.79-9.71,6.65,8.71.55,12.87,7.55,18.15,12.44,10.19,9.43,20.16,19.12,30.2,28.73,2.04,1.95,3.89,4.13,6.21,5.75,1.59,1.11,1.27,1.99.19,3.19-2.74,3.06-2.69,3.06.19,5.87,3.76,3.66,7.45,7.39,10.92,11.33,1.06,1.2,1.06,1.77-.37,2.62-5.24,3.1-10.18,6.63-14.97,10.4-1.63,1.28-1.68,2.36-.67,3.99,1.41,2.26,2.63,4.64,3.94,6.96.79,1.4.66,2.21-1.14,2.65-7.42,1.83-14.3,4.94-20.82,8.91-3.75,2.28-7.89,3.85-11.59,6.68,1.46,1.36,2.98,2.94,4.68,4.32,6.67,5.43,12.43,11.8,18.62,17.72,6.61,6.33,13.35,12.53,20.13,18.69,1.79,1.63.79,2.74-.45,3.6-2.15,1.49-1.82,2.38.02,4.03,3.66,3.27,6.96,6.93,10.48,10.37,1.34,1.31.88,1.96-.5,2.8-4.41,2.69-8.69,5.56-12.72,8.82-1.49,1.2-2.08,2.29-.93,3.97.33.48.53,1.04.83,1.54.77,1.28,1.29,3.07,2.43,3.66,1.23.64,2.29-1.23,3.51-1.85,2.88-1.46,5.82-1.23,8.34,1.06,6.28,5.7,12.6,11.35,18.61,17.36,8.29,8.29,17.03,16.14,25.64,24.1,1.19,1.1.8,1.72-.03,2.64-2.72,3.03-2.65,2.98.25,5.83,3.27,3.21,6.39,6.57,9.64,9.8,1.41,1.4,1.1,2.24-.47,3.27-4.54,2.94-9.13,5.8-13.33,9.27-1.53,1.26-1.6,2.24-.69,3.77,1.24,2.07,2.3,4.25,3.53,6.33.86,1.45.66,2.29-1.07,2.68-10.09,2.31-18.54,8.09-27.51,12.81-4.99,2.63-10.31,4.67-16.14,4.72-4.08.04-8.16.07-12.19-.77-.4-.08-.81-.2-1.33.46,2.08,1.92,4.12,3.95,6.31,5.79,3.97,3.33,7.43,7.17,11.17,10.73,1.2,1.15,2.39,2.35,3.75,3.29,1.76,1.21,1.55,2.14.16,3.5-2.56,2.48-2.44,2.47.03,4.78,3.71,3.47,7.28,7.08,10.6,10.94.92,1.06.69,1.58-.39,2.32-4.6,3.15-9.38,6.03-13.7,9.6-1.59,1.32-1.74,2.34-.72,3.98,1.27,2.05,2.35,4.22,3.54,6.32.74,1.32.57,2.17-1.06,2.52-7.1,1.53-13.42,4.86-19.68,8.4-4.47,2.54-8.91,5.24-13.79,6.93-9.28,3.22-18.61,3.24-27.85-.36-.67-.26-1.27-.82-2.34-.58,1.13,1.96,2.77,3.28,4.39,4.59,2.47,1.99,2.53,2.51.29,4.6-2.42,2.27-2.5,2.37.18,4.52,4.33,3.46,7.51,8.02,11.58,11.71,1.35,1.22.87,2-.51,2.84-5.11,3.14-10.03,6.57-14.77,10.26-1.48,1.15-1.79,2.21-.85,3.8,1.32,2.22,2.54,4.5,3.79,6.75,1.24,2.23,1.05,2.56-1.31,3.19-7.79,2.08-14.91,5.63-21.85,9.69-4.63,2.72-9.38,5.26-14.46,7.15-4.72,1.75-9.6,1.86-14.5,1.95-5.81.1-11.43-.8-16.68-3.47-.65-.33-1.59-.78-2.08-.09-.64.91.43,1.45.94,2.02.94,1.06,1.92,2.09,2.97,3.04,1.32,1.2,1.37,1.97-.31,2.99-5.41,3.28-10.59,6.91-15.58,10.83-1.99,1.56-2.13,2.8-.83,4.77,1.46,2.23,2.7,4.6,3.99,6.93.91,1.63.48,2.59-1.42,3.06-8.15,2.04-15.61,5.65-22.84,9.89-7.66,4.49-15.38,9.07-24.54,9.74-8.16.6-16.16.41-23.93-3.11-7.45-3.38-14.22-7.94-21.58-11.43-1.58-.75-3.19-1.43-4.8-2.12-.87-.38-1.77-.59-2.56.18-.86.84-.37,1.71.07,2.51,1.48,2.7,3.01,5.38,4.52,8.06.91,1.62.64,2.51-1.36,2.98-8.28,1.93-15.76,5.7-23.07,9.96-5.36,3.12-10.86,6.04-16.7,8.24-5.11,1.93-10.42,1.82-15.73,2.07-7.12.33-13.7-1.84-19.98-4.63-5.44-2.42-10.45-5.81-15.66-8.76-5.61-3.19-11.58-5.5-17.85-7.01-1.88-.45-2.15-1.17-1.23-2.76,1.39-2.37,2.71-4.79,4-7.21.64-1.2,1.79-2.46.52-3.86-1.35-1.48-2.8-2.23-5.06-1.44-5.86,2.04-11.37,4.74-16.71,7.85-6.82,3.97-13.58,8.25-21.43,9.76-9.24,1.77-18.43,1.62-27.4-2.13-7.25-3.03-13.83-7.21-20.73-10.84-4.97-2.61-10.21-4.47-15.61-5.91-2.38-.63-2.64-1.05-1.44-3.24,1.28-2.34,2.56-4.68,3.96-6.94,1.12-1.8.95-3.11-.75-4.49-5.05-4.1-10.45-7.71-15.97-11.12-1.55-.96-1.35-1.51-.32-2.57,2.08-2.14,4.1-4.33,6.52-6.91Zm438.61-241.48c-.62.14-.94.18-1.24.28-8.16,2.43-15.12,7.29-22.61,11.08-4,2.03-8.05,4.04-12.64,4.35-3.75.25-3.96.02-3.96-3.75-.02-18.25-.02-36.5-.05-54.74,0-.86.4-2.01-.62-2.49-.82-.38-1.56.37-2.25.81-4.77,3.06-9.42,6.29-13.85,9.83-1.43,1.14-1.49,2.16-.61,3.61,1.38,2.28,2.62,4.64,3.95,6.95.92,1.59.81,2.41-1.26,2.95-6.14,1.6-12,3.93-17.55,7.1-6.25,3.58-12.48,7.25-19.28,9.78-2.04.76-4.09,1.35-6.29,1.5-6.89.46-13.77.88-20.5-1.31-.97-.32-1.91-.03-2.45.79-.67,1.02.41,1.52.98,1.97,4.93,3.9,8.79,8.86,13.23,13.25,1.42,1.41,1.58,2.16-.35,3.31-5.51,3.28-10.74,7-15.75,11.01-1.59,1.27-1.74,2.38-.7,4.02,1.34,2.11,2.55,4.3,3.78,6.47,1.55,2.74,1.27,3.35-1.69,4.08-1.21.3-2.37.78-3.57,1.12-9.19,2.57-16.99,8.01-25.3,12.36-5.64,2.95-11.36,5.45-17.75,6.04-3.14.29-6.29.13-9.44.17-6.99.1-13.18-2.41-19.19-5.49-5.92-3.04-11.71-6.36-17.54-9.57-.99-.55-1.84-.54-2.73.26-.86.78-1.85,1.42-2.76,2.15-1.2.96-1.53,2.08-.7,3.5,1.47,2.52,2.89,5.06,4.3,7.61,1.26,2.29,1.09,2.8-1.46,3.46-7.47,1.94-14.41,5.08-21.09,8.93-4.94,2.85-9.94,5.58-15.18,7.94-8.76,3.94-17.78,3.82-26.9,2.63-7.66-1-14.2-5.02-20.73-8.77-7.97-4.57-16.05-8.83-25.07-10.96-1.66-.39-1.74-1.31-1.04-2.57,1.18-2.11,2.39-4.2,3.58-6.3,2.27-4.04,2.25-4.1-1.37-6.86-.99-.76-2.07-1.42-2.98-2.27-1.43-1.33-2.74-1.33-4.5-.45-4.22,2.12-8.25,4.56-12.59,6.51-8.76,3.95-17.77,3.93-26.89,2.63-8.16-1.16-15.04-5.65-22.01-9.65-7.12-4.08-14.4-7.68-22.43-9.57-1.86-.44-2.07-1.38-1.23-2.89,1.22-2.18,2.4-4.38,3.65-6.55,1.83-3.18,1.75-3.58-1.04-5.77-4.72-3.71-9.66-7.12-14.82-10.17-2.08-1.23-1.86-2.07-.33-3.46,1.54-1.4,2.98-2.91,4.39-4.45,1.69-1.83,3.29-3.73,4.94-5.6-4.95,2.03-9.92,2.49-15.04,2.8-7.7.46-15.05-.9-21.71-4.36-4.09-2.12-8.26-4.27-12.19-6.78-5.66-3.62-11.92-5.95-18.4-7.61-1.86-.48-2.19-1.19-1.3-2.75,1.4-2.46,2.78-4.94,4.19-7.39.66-1.15.74-2.09-.42-3.06-4.16-3.48-8.59-6.58-13.18-9.45-1.49-.93-1.91-.39-1.9,1.11.01,2,0,4,0,6-.02,16.16-.04,32.33-.04,48.49,0,1.62.14,3.24-2.09,3.59-7.64,1.22-15.2,1.67-22.63-1.24-5.44-2.13-10.45-5.07-15.52-7.92-2.09-1.17-4.25-2.21-6.38-3.3,4.51,5.98,10.39,10.25,15.89,14.93,6.34,5.39,12.89,10.54,18.74,16.49,1.34,1.36,1.66,2.58.67,4.18-.35.57-.56,1.25-1,1.72-1.69,1.78-1.05,3.03.56,4.53,3.47,3.24,6.68,6.75,10.12,10.03,1.57,1.5,1.33,2.27-.46,3.31-4.31,2.52-8.48,5.28-12.34,8.48-2.82,2.33-2.92,2.71-1.12,5.78,1.01,1.72,1.98,3.47,2.95,5.22.36.65.83,1.41.22,2.08-.93,1.02-.28,1.61.42,2.27,4.84,4.56,9.56,9.24,14.71,13.47,7.59,6.24,15.15,12.51,22.39,19.16,2,1.84,2.12,3.57.85,5.69-.34.57-.66,1.18-1.11,1.66-1.11,1.17-.94,2.09.24,3.13,2.68,2.38,5.3,4.82,7.61,7.57,1.83,2.18,3.68,3.94,6.67,1.82.36-.25.97-.17,1.47-.21,3.14-.22,5.4,1.49,7.42,3.54,5.09,5.16,10.12,10.38,15.57,15.15,8.96,7.84,18.43,15.08,27.2,23.14,4.66,4.28,4.73,4.42,1.33,9.69-.77,1.19-.78,2.02.32,3.02,1.97,1.79,3.93,3.62,5.7,5.6,1.37,1.53,2.25,1.51,3.79.08,5.55-5.16,11.18-10.22,16.95-15.13,3.59-3.06,7.48-2.8,11.06.32.94.82,1.79,1.75,2.68,2.62,5.15,4.97,10.12,10.15,15.5,14.87,9.44,8.29,19.45,15.92,28.69,24.45,5.15,4.75,5.26,4.65,1.49,10.59-.65,1.03-1.05,1.87.09,2.81,1.15.95,1.85.11,2.52-.61,7.19-7.76,15.99-13.8,22.96-21.83,5.52-6.36,12.37-11.38,18.49-17.15,4.6-4.34,9.05-4.33,13.57.21,9.99,10.04,20.36,19.65,31.38,28.56,1.86,1.5,2.92,1.26,4.38-.18,2.49-2.46,4.94-4.97,7.61-7.22,13.6-11.51,27.63-22.52,39.84-35.59.84-.9,1.84-1.7,2.87-2.39,3.37-2.26,6.77-2.12,9.91.45,1.74,1.42,3.39,2.95,5.05,4.46,4.18,3.81,8.35,7.64,12.52,11.47.65.6,1.35,1.21,2.1.25,2.02-2.59,4.73-4.44,7.02-6.75.95-.96,1.02-1.77.15-2.79-.59-.69-1.06-1.49-1.52-2.29-1.18-2.05-1.08-3.73.84-5.51,3.47-3.24,6.91-6.5,10.53-9.57,7.17-6.09,14.65-11.82,21.5-18.27,4.73-4.45,9.3-9.07,13.99-13.56,2.67-2.55,5.79-3.29,9.16-1.56,1.47.76,2.3.2,3.25-.76,2.81-2.85,5.52-5.81,8.52-8.44,1.91-1.68,2.14-2.85.54-4.92-2.24-2.89-1.95-3.77.57-6.37,5.34-5.52,11.4-10.23,17.3-15.11,6.74-5.58,13.42-11.22,19.44-17.58.48-.51,1.42-1.02.72-1.85-.97-1.16-.21-2.04.28-2.95.99-1.83,1.97-3.68,3.12-5.41,1.25-1.87,1.12-3.12-.79-4.58-4.23-3.26-8.6-6.3-13.17-9.04-1.5-.9-1.77-1.69-.42-3.05,3.12-3.12,6.07-6.41,9.2-9.52,2.8-2.78,2.91-2.74.92-6.05-1.33-2.21-1.48-3.98.8-5.82,2.91-2.35,5.45-5.14,8.31-7.56,9.91-8.37,20.26-16.25,29.38-26.09Zm-383.63-211.59c-.09.16-.18.32-.27.47,2.59,2.8,5.1,5.69,7.8,8.37,1.5,1.49,1.38,2.32-.39,3.38-4.37,2.61-8.54,5.49-12.49,8.72-1.34,1.1-1.69,2.07-.75,3.6,1.18,1.91,2.17,3.94,3.31,5.88.91,1.53.7,2.45-1.16,2.83-9,1.84-16.58,6.87-24.42,11.22-5.94,3.29-12.08,5.33-18.9,5.37-3.47.02-6.9-.22-10.35-.88,0,.92.57,1.08.93,1.37,4.62,3.82,9.12,7.78,13.45,11.93,2.66,2.56,2.73,3.57.77,6.69-.26.42-.56.83-.88,1.21-1.09,1.26-.88,2.23.35,3.39,4,3.77,7.86,7.68,11.55,11.76,1.51,1.67,1.13,2.34-.52,3.33-4.92,2.97-9.68,6.19-14.12,9.87-.95.79-1.91,1.43-.62,2.76,4.7,4.84,9.42,9.67,14.5,14.11,9.02,7.89,18.55,15.18,27.39,23.29,4.66,4.27,4.72,4.37,1.3,9.69-.77,1.2-.74,2.04.35,3.02,1.86,1.67,3.64,3.43,5.37,5.23,1.04,1.08,1.85,1.06,2.94.06,3.06-2.82,6.18-5.57,9.3-8.33,3.8-3.37,8.11-3.38,11.92-.03.81.71,1.56,1.51,2.32,2.27,5.42,5.42,10.73,10.96,16.58,15.91,10.04,8.5,20.35,16.66,29.94,25.69,2.51,2.37,2.66,3.23.9,6.25-.38.65-.82,1.25-1.24,1.88-.58.87-1.65,1.7-.48,2.8,1.13,1.07,1.97.05,2.81-.58,3.29-2.46,5.9-5.61,8.68-8.59,6.08-6.53,12.99-12.19,19.59-18.17,4.41-4,8.86-4.08,13.02.12,10.33,10.41,21.08,20.34,32.54,29.5,1.28,1.02,2.55,2.04,3.82,3.07-.74-1.83-1.93-3.24-2.42-5.06-.3-1.13-.31-2.1.63-2.96,2.99-2.77,5.85-5.7,8.95-8.34,13.51-11.48,27.48-22.44,39.62-35.45.84-.9,1.85-1.69,2.89-2.37,3.28-2.16,6.6-1.98,9.71.47,1.11.88,2.24,1.75,3.23,2.75,1.07,1.08,1.89,1.03,2.9-.08,1.35-1.47,2.81-2.84,4.24-4.24q3.05-2.97.96-6.77c-1.74-3.18-1.7-3.7,1.03-6.17,3.51-3.19,7.04-6.36,10.64-9.46,9.02-7.77,18.5-14.97,26.88-23.5,2.96-3.01,5.56-6.47,9.15-8.8,1.9-1.23,1.69-1.96.05-3.21-3.32-2.53-6.92-4.63-10.42-6.89-1.48-.95-1.42-1.62-.28-2.86,3.27-3.56,6.58-7.07,10.06-10.42q3.03-2.91.96-6.57c-1.84-3.25-1.78-3.81,1.04-6.38,4.61-4.21,9.19-8.46,14.1-12.33.52-.41,1.22-.77,1.28-1.9-5.01,1.86-9.98,1.92-14.99,1.87-5.39-.04-10.42-1.74-15.04-4.09-8.88-4.52-17.08-10.45-27.06-12.59-1.41-.3-1.76-1.08-1-2.35,1.1-1.86,2.14-3.77,3.27-5.61,1.07-1.75,1.05-3.05-.77-4.46-3.76-2.91-7.57-5.72-11.65-8.16-2.84-1.7-2.84-1.81-.56-4.06,2.84-2.8,5.19-6.04,8.16-8.75-1.42.46-2.69,1.07-3.93,1.74-5.38,2.93-10.51,6.31-16.29,8.48-8.53,3.21-17.12,3.28-25.68.45-5.77-1.91-10.94-5.16-16.21-8.16-4.43-2.52-8.99-4.73-13.96-6q-4.37-1.12-2.18-4.94c.25-.43.46-.89.71-1.32,3.13-5.37,3.38-4.61-1.83-8.62-5.03-3.87-5.01-3.76-10.65-.54-5.26,3-10.45,6.15-16.16,8.31-8.22,3.11-16.42,2.95-24.66.16-4.84-1.64-9.13-4.38-13.57-6.81q-5.63-3.08-10.46,1.11c-.06.05-.13.11-.2.15-1.19.83-1.25,1.82-.55,3.03,1.17,2.02,2.23,4.1,3.43,6.1,1.05,1.73.51,2.53-1.34,2.93-5.42,1.19-10.48,3.36-15.24,6.15-3.8,2.23-7.58,4.57-11.48,6.53-6.63,3.32-13.9,4.5-21.36,3.79-5.44-.52-10.49-2.26-15.25-4.95-4.47-2.52-9.02-4.89-13.54-7.33Zm318.2,130.88c3.7,3.86,6.95,7.62,10.6,10.96,3.49,3.19,3.67,3,.32,6.32-.64.63-1.61,1.29-.51,2.23,4.57,3.9,8.72,8.21,12.65,12.73.32.37.71.84,1.24.71.74-.18.64-.9.64-1.45,0-10.65-.01-21.31,0-31.96,0-1.82-.84-2.17-2.38-1.51-2.54,1.08-5.15,1.76-7.94,2-4.79.4-9.56.3-14.61-.02Z"/>
      <path d="m535.9,866.42c-1.02-2.37.48-3.62,1.84-5,8.75-8.84,18.79-16.19,28.12-24.36,5.76-5.04,11.2-10.43,16.61-15.86,5.09-5.11,8.64-5.32,14-.5,6.92,6.23,14.22,12.07,20.27,19.23,2.59,3.06,5.85,5.43,8.89,8.03,1.07.92,1.81.82,2.75-.14,2.21-2.27,4.44-4.51,6.74-6.68,1.1-1.04,1.37-2,.34-3.21-.38-.44-.67-.96-.96-1.46-1.75-3.02-1.69-3.55.78-6.01,7.34-7.28,15.52-13.61,23.43-20.24,6.58-5.51,12.72-11.51,18.69-17.65,3.63-3.74,6.29-4.48,11.08-2.25,1.07.5,1.68.2,2.4-.5,3.22-3.13,5.95-6.75,9.51-9.55.94-.74,1.02-1.61.27-2.6-.55-.73-1-1.54-1.43-2.34-.95-1.75-.7-3.18.81-4.66,6.2-6.07,12.93-11.53,19.67-16.96,6.77-5.46,12.86-11.59,19.01-17.68,2.09-2.07,4.13-4.15,7.38-4.18.98,0,1.58-.86,2.22-1.51,2.57-2.61,4.8-5.54,7.76-7.76,1.31-.99,1.32-2.02.35-3.4-2.67-3.77-2.59-4.32.74-7.56,5.86-5.7,12.2-10.85,18.56-15.94,6.73-5.39,12.73-11.49,18.85-17.49,1.01-.99,2.02-2,3.16-2.83,2.8-2.03,5.9-2.07,8.51.2,6.52,5.68,13.13,11.26,18.94,17.73,5.01,5.57,11.24,9.9,16.35,15.41,2.15,2.31,4.3,4.67,6.97,6.42,1.5.98,1.35,1.9.14,2.94-.44.38-.83.84-1.31,1.16-1.38.94-1.17,1.7.02,2.71,3.88,3.29,7.38,6.97,10.74,10.79,1.15,1.31,1.28,1.97-.33,3.01-4.19,2.7-8.41,5.38-12.28,8.56-1.64,1.35-2.11,2.57-.9,4.43,1.18,1.81,2.18,3.74,3.26,5.62.79,1.36.43,2.2-1.12,2.53-6.86,1.44-12.94,4.7-18.97,8.11-6.42,3.64-12.78,7.51-20.37,8.26-4.89.48-9.78.43-15-.56,2.37,1.82.94,3.03-.35,3.9-2.27,1.55-1.7,2.44.12,4.03,3.7,3.22,7.14,6.74,10.3,10.52.87,1.04.79,1.57-.33,2.34-4.12,2.81-8.39,5.4-12.31,8.52-2.09,1.67-2.4,3.09-.97,5.21,1.06,1.59,1.93,3.31,2.91,4.95.83,1.4.68,2.33-1.08,2.72-9.69,2.16-17.77,7.69-26.34,12.28-4.73,2.54-9.94,4.17-15.48,4.31-6.23.16-12.33-.23-18.03-3.06-.35-.18-.75-.41-1.29.05,1.18,1.8,2.78,3.19,4.45,4.51,2.05,1.63,2.08,2.31.1,4.04q-2.4,2.1-.12,4.22c3.92,3.62,7.5,7.56,11.19,11.4,1.22,1.27.95,1.81-.31,2.61-4.65,2.93-9.25,5.93-13.58,9.33-1.97,1.55-2.38,2.91-1,5.01,1.23,1.87,2.21,3.92,3.36,5.85.84,1.41.72,2.27-1.06,2.67-10.42,2.38-19.11,8.46-28.45,13.19-3.9,1.98-7.9,4.04-12.4,4.36-7.65.55-15.21.84-22.61-2.28-4.01-1.69-7.57-4.11-11.48-5.92-1.42-.65-2.41-.62-3.66.19-5.17,3.36-10.32,6.72-15.13,10.6-1.47,1.19-1.66,2.29-.75,3.85,1.43,2.44,2.78,4.93,4.16,7.4.73,1.3.59,2.08-1.09,2.48-6.76,1.62-13.11,4.32-19.12,7.8-5.89,3.41-11.79,6.78-18.16,9.25-2.44.95-4.96,1.51-7.53,1.69-7.93.54-15.71.51-23.27-2.84-7.25-3.21-13.77-7.68-20.91-11.04-1.88-.89-3.82-1.65-5.75-2.44-.61-.25-1.31-.48-1.86.14-.56.63-.2,1.28.11,1.85,1.32,2.41,2.64,4.82,4.03,7.19.92,1.56.61,2.48-1.18,2.88-10.44,2.35-19.14,8.39-28.4,13.29-6.55,3.46-13.63,4.89-21.16,4.69-5.98-.16-11.56-1.53-16.83-4.02-4.73-2.23-9.25-4.91-13.75-7.58-4.78-2.84-9.97-4.61-15.23-6.2-2.84-.86-3.01-1.06-1.6-3.75.97-1.84,2.05-3.62,3.1-5.42.65-1.13,1.21-2.25.13-3.43-1.03-1.12-2.2-1.65-3.79-1.15-5.84,1.82-11.34,4.38-16.58,7.5-3.64,2.17-7.3,4.44-11.09,6.2-4.37,2.03-8.99,3.97-14.03,4.2-7.6.35-15.07.45-22.32-2.73-6.17-2.71-11.95-6.09-17.8-9.37-5.42-3.04-11.14-5.25-17.16-6.68-1.88-.45-1.87-1.16-1.06-2.58,1.45-2.53,2.76-5.14,4.2-7.67.8-1.4.58-2.33-.71-3.4-4.31-3.57-8.91-6.71-13.6-9.74-1.33-.86-2.49-.6-3.75.03-3.47,1.74-6.71,3.89-10.47,5.1-9.92,3.2-19.68,3.44-29.5-.55-6.49-2.64-12.31-6.49-18.51-9.66-4.46-2.28-9.07-4.21-13.98-5.28-1.95-.42-2.31-1.28-1.33-2.94,1.23-2.08,2.37-4.21,3.6-6.29.97-1.63.76-2.78-.8-4.05-4.27-3.49-8.83-6.56-13.52-9.41-1.81-1.1-2.16-1.95-.45-3.49,4.01-3.62,7.23-8.06,11.5-11.43,1.49-1.18,1.36-2.07-.13-3.06-.55-.37-.98-.9-1.46-1.36-1.14-1.06-.97-1.95.25-2.84,1.93-1.41,3.81-2.88,5.17-4.97-1.17-.78-2.03-.08-2.9.28-9.73,3.94-19.42,3.8-29.18,0-3.98-1.55-7.56-3.79-11.23-5.85-5.98-3.36-12.02-6.49-18.77-7.96-1.61-.35-1.86-1.15-1.1-2.49,1.14-2.03,2.17-4.14,3.41-6.11,1.02-1.62.64-2.61-.78-3.79-3.98-3.33-8.35-6.07-12.71-8.83-1.43-.91-1.71-1.55-.39-2.78,3.73-3.44,6.6-7.74,10.74-10.78,1.45-1.06.95-1.74-.01-3.14-2.08-3-4.76-3.6-8.11-3.84-7.52-.55-13.81-4.53-20.14-8.16-6.02-3.45-12.15-6.59-18.98-8.09-1.4-.31-1.84-1-1.11-2.31,1.17-2.11,2.26-4.27,3.52-6.33.91-1.5.69-2.48-.66-3.62-4.04-3.39-8.47-6.19-12.91-8.98-1.54-.97-1.51-1.64-.28-2.79,3.72-3.45,6.6-7.74,10.74-10.78,1.28-.94,1.38-1.78,0-2.94-2.94-2.46-2.79-2.46.09-4.85,2.05-1.7,3.93-3.6,5.76-5.54,5.71-6.08,12.52-10.99,18.13-17.17,5.16-5.69,11.13-10.51,16.77-15.67,2.98-2.73,6.48-2.73,9.7.02,2.02,1.73,3.86,3.68,5.72,5.59,8.91,9.15,19.11,16.83,28.75,25.16,2.08,1.8,4.05,3.72,6.02,5.63,2.56,2.47,2.82,2.98.74,5.92-1.66,2.34-1.16,3.59.82,5.28,3.35,2.88,6.32,6.16,9.2,9.51.46.53,1.41,1.19.55,1.85-1.85,1.4-.5,2.19.39,3.12,9.36,9.77,20.11,17.96,30.34,26.74,2.15,1.84,4.03,3.99,6.23,5.76,2.09,1.68,1.94,3.34.77,5.43-1.83,3.26-1.74,3.27.97,5.95,2.61,2.57,5.32,5.05,7.6,7.94.86,1.09,1.67,1.58,3.15.67,3.99-2.44,6.84-2,10.31,1.35,4.49,4.33,8.81,8.85,13.47,12.98,6.91,6.13,14.09,11.95,21.1,17.97,2.91,2.49,5.72,5.09,8.5,7.73,2.49,2.36,2.73,3.25.71,5.95-2.59,3.46-1.82,3.36.87,6.07,1.18,1.18,2.44,2.28,3.54,3.52,1.01,1.14,1.75,1.01,2.9.09,4.13-3.28,7.63-7.21,11.27-10.98,5.16-5.34,10.89-10.06,16.34-15.07,4.26-3.91,8.52-3.62,12.88.42,2.68,2.49,5.17,5.18,7.74,7.79,8.96,9.12,19.24,16.69,28.84,25.06,3.07,2.68,5.95,5.59,9.06,8.22,2.09,1.77,2.09,3.58.78,5.69-.4.64-.73,1.33-1.24,1.87-1.33,1.45-1.04,2.53.4,3.74,1.38,1.17,2.34,1.4,3.73-.08,4.83-5.19,10.72-9.28,15.52-14.47,5.67-6.13,11.97-11.56,18.08-17.21.79-.74,1.57-1.5,2.43-2.15,3.98-2.99,7.36-2.76,10.94.71,4.84,4.69,9.56,9.51,14.56,14.04,4.92,4.45,10.11,8.6,15.19,12.88.22-.06.44-.13.67-.19Z"/>
    </g>
    <rect class="cls-1" width="1000" height="1000"/>
  </g>
</svg>