<?xml version="1.0" encoding="UTF-8"?>
<svg id="_레이어_2" data-name="레이어 2" xmlns="http://www.w3.org/2000/svg" viewBox="0 0 1000 1000">
  <defs>
    <style>
      .cls-1 {
        fill: none;
      }
    </style>
  </defs>
  <g id="_레이어_1-2" data-name="레이어 1">
    <rect class="cls-1" width="1000" height="1000"/>
    <g>
      <path d="m297.65,314.17c-7.37.07-13.96-1.22-20.16-4.11-15.71-7.34-25.04-19.71-27.51-36.76-3.06-21.2,5.06-37.95,21.87-50.72,5.58-4.24,11.47-8,18.18-10.32,3.8-1.32,7.62-1.82,11.53-.75,2.07.57,2.32-.06,1.68-1.89-2.7-7.73-3.09-15.67-1.59-23.66,2.49-13.19,9.88-23.13,20.9-30.46,6.13-4.08,12.65-7.33,19.85-9.23,5.45-1.44,10.4-.5,15.13,2.23,6.33,3.66,11.72,8.49,16.71,13.77.74.78,1.45,1.6,2.18,2.42.85-.48.48-1.22.47-1.79-.57-18.18,7.51-31.85,21.98-42.16,5.44-3.87,11.08-7.4,17.74-8.91,6-1.36,11.19.92,16.19,3.65,9.39,5.13,17.69,11.58,23.81,21.17.51-2.09.88-3.74,1.33-5.37,3.29-11.77,10.54-20.63,20.38-27.56,3-2.11,6.12-4.03,9.33-5.81,7.66-4.23,15.3-4.54,23.1-.28,9.84,5.38,18.77,11.78,24.89,21.45,14.11,22.28,6.93,55.44-21,65.99-17.38,6.56-38.15.77-49.4-14.12-.7-.92-1.38-1.86-2.35-3.17-3.62,17.84-13.4,30.21-30.81,35.14-17.2,4.87-32.19.13-44.96-12.93.07,4.33.1,8.28-.49,12.21-3.27,21.62-21.9,37.32-43.76,36.76-1.08-.03-2.15-.2-3.23-.32-1.74-.19-2.12.35-1.24,1.94,2.15,3.88,3.81,7.96,4.82,12.29,2.9,12.37,1.88,24.32-3.99,35.69-1.05,2.04-.78,2.61,1.45,3.29,9.17,2.82,16.87,8.21,24.03,14.43,8.77,7.62,14.55,17.06,16.94,28.47.92,4.4,1.41,8.87,1,13.39-.08.87-.01,1.76-.01,3.05,4.11-2.53,7.59-5.25,11.55-7.14,1.8-.86,3.58-1.79,5.41-2.59,7.34-3.18,14.46-2.34,21.42,1.24,13.5,6.93,25.2,15.9,33.06,29.19,3.46,5.86,5.78,12.17,7.05,18.87.21,1.1.19,2.3,1.11,3.7,2.28-3.82,4.4-7.38,7.19-10.44,9.26-10.2,19.93-18.38,33.14-22.88,5.1-1.74,10.05-1,14.87,1,10.62,4.41,19.69,11.09,27.74,19.24,2.1,2.13,2.1,2.14,3.07-.6,4.13-11.63,11.84-20.54,21.36-28.04,6.04-4.75,12.48-8.85,19.7-11.69,7.15-2.82,13.9-1.61,20.5,1.66,4.26,2.11,8.37,4.49,12.2,7.33.45.33.93.97,1.5.71.76-.35.39-1.19.36-1.8-.86-14.93,3.72-28.01,13.96-38.81,7.94-8.37,17.29-14.89,28.43-18.44,1.73-.55,2.08-.97,1.24-2.67-7.96-16.05-7.69-32.06.38-48,.32-.64,1.06-1.31.56-2.04-.48-.71-1.38-.35-2.1-.27-22.67,2.36-43.68-14.43-46.53-37.05-.46-3.64-.28-7.28-.54-11.38-2,1.76-3.62,3.37-5.42,4.75-13.13,10.15-27.66,12.55-43.08,6.65-15.76-6.03-24.75-17.99-26.93-34.65-2.57-19.73,5.52-34.82,21.33-46.2,3.79-2.73,7.77-5.12,12.03-7.1,6.32-2.93,12.5-2.96,18.76.11,10.65,5.22,20.03,11.93,26.56,22.07,4.48,6.95,6.81,14.6,7.07,22.87.06,1.91,0,3.82,0,5.85,2.29-2.19,4.48-4.27,6.65-6.36,3.12-3.02,6.54-5.67,10.09-8.16,6.27-4.4,12.87-5.84,20.31-3.2,13.29,4.73,24.97,11.66,32.45,24.04,7.31,12.09,8.46,25.05,4.23,38.48-.57,1.82-.74,2.71,1.65,2.04,5.57-1.55,10.79-.03,15.7,2.42,9.86,4.92,18.74,11.16,25.64,19.92,6.27,7.95,9.81,17,10.67,27.03,1.2,13.91-2.45,26.47-11.61,37.11-8.76,10.17-20.08,15.38-33.47,16.13-.75.04-1.5.05-2.25.1-.14,0-.27.15-.61.36,3.33,4.7,5.94,9.76,7.71,15.25,8.98,27.92-7.12,59.55-38.58,63.87-9.05,1.24-17.77.14-26.14-3.55-.67-.29-1.43-.95-2.09-.48-.71.51-.15,1.39-.03,2.1,2.81,17.68-.72,33.82-12.04,47.9-17.75,22.09-51.44,25.41-73.26,7.32-1.22-1.01-2.4-2.07-3.55-3.15-2.05-1.92-2.1-1.96-3.06.63-2.63,7.14-6.52,13.53-11.84,18.93-11.47,11.65-25.42,17.06-41.77,15.87-23.67-1.73-42.05-18.72-47.56-41.65-.48-2-.8-4.04-1.22-6.2-1.2.29-1.48,1.23-1.93,1.95-15.38,24.96-47.09,32.9-72.03,17.67-14.52-8.87-22.53-22.31-25.29-38.97-1.12-6.79-1.02-13.59.14-20.38.11-.64.59-1.39.06-1.9-.68-.65-1.38.06-2.03.35-27.68,12.2-59.14-3.41-65.92-32.86-3.34-14.53-.74-28.12,7.39-40.63.44-.68.87-1.36,1.58-2.47Z"/>
      <path d="m448.31,672.81c-3.8,7.89-8.58,14.36-15.11,19.33-17.04,12.95-35.65,15.46-55,6.38-19.67-9.23-28.93-25.91-30.87-47.13-.44-4.76.25-9.43.61-14.71-1.52,1.24-2.65,2.13-3.75,3.07-28.55,24.23-72.58,12.52-85.16-22.63-2.51-7-3.58-14.19-3.28-21.58.11-2.77-1.7-1.91-3.02-1.76-8.43.95-16.67.22-24.53-3.07-19.26-8.06-29.35-22.93-31.21-43.38-1.35-14.79,3.18-27.94,12.7-39.36.35-.42,1.02-.8.71-1.45-.3-.63-1.04-.37-1.59-.42-20.8-1.73-35.83-11.97-43.3-31.46-7.77-20.29-4.07-39.17,10.2-55.7,5.54-6.42,12.4-11.34,19.71-15.61,8.69-5.08,17.61-7.71,27.2-2.46.62-1.03-.14-1.42-.47-1.89-13.62-19.13-12.35-45.55,3.21-63.16,7.9-8.95,17.46-15.64,28.72-19.78,4.13-1.51,8.29-1.4,12.52-.19,2.28.65,3.17,1.72,3.14,4.2-.13,11.25-.05,22.5-.05,33.75,0,20.08-.05,40.17.05,60.25.01,2.5-.69,3.58-3.25,3.8-6.28.55-12.47.36-18.59-1.29-.72-.19-1.71-.99-2.22-.02-.37.71.64,1.24,1.12,1.77,8.8,9.46,13.52,20.68,14.34,33.54.75,11.67-2.01,22.48-8.39,32.29-1.21,1.86-.95,2.37,1.1,3.23,17.49,7.35,31.64,18.34,38.91,36.58,1.77,4.44,2.73,9.09,3.27,13.82.13,1.11.14,2.1,1.72,1.3,9.31-4.72,18.2-3.14,26.94,1.7,10.14,5.62,19.48,12.25,26.57,21.58,9.34,12.3,13.17,26.17,11.5,41.55-.08.73-.01,1.47-.01,2.63,3.06-2.96,5.89-5.71,8.98-8.16,6.42-5.11,13.24-9.51,20.96-12.46,6.06-2.31,12.01-1.87,17.73.79,14.25,6.63,26.42,15.83,34.81,29.39,3.43,5.55,5.83,11.59,7.23,18.58,1.6-2.7,2.79-5.02,4.25-7.15,9.5-13.92,22.21-23.74,38.08-29.41,6.01-2.15,11.72-.54,17.15,2.07,10.64,5.1,19.99,11.97,27.69,20.96,1.47,1.72,1.91,1.3,2.81-.44,8.57-16.62,22.31-27.47,39.2-34.69,6.98-2.98,13.73-1.52,20.24,1.71,7.97,3.95,15.18,9,21.69,15.05.24.22.52.39.9.68.74-.94.4-1.95.37-2.86-.84-19.58,6.52-35.55,21.3-48.19,6.16-5.27,12.92-9.64,20.25-13.18,8.26-3.99,16.35-3.92,24.5.17.94.47,2.35,1.83,2.14-.94-1.74-22.82,8.09-39.87,26.42-52.63,4.93-3.43,10.01-6.65,15.78-8.51,1.99-.64,1.47-1.71.99-3.06-5.51-15.61-4.49-30.77,3.32-45.4,2.11-3.96,4.92-7.46,8.07-11.05-4.67.39-8.96.46-13.28.05-2.28-.22-3.02-1.21-3.01-3.52.09-15.5.04-31,.04-46.5,0-15.92.06-31.83-.04-47.75-.02-2.47.84-3.57,3.13-4.22,3.97-1.11,7.95-1.5,11.8-.03,15.91,6.08,29.2,15.53,36.79,31.22,7.87,16.28,7.09,32.55-1.83,48.35-1.41,2.5-1.45,2.43,1.49,2.54,5.03.19,9.6,1.95,13.95,4.34,11.26,6.18,21.15,13.91,27.98,25.03,13.84,22.56,8.74,52.38-11.9,68.71-7.14,5.65-15.42,8.82-24.5,9.84-2.95.33-2.9.4-1.63,2.95,11.03,22.23,5.9,50.04-13.67,65.08-11.58,8.9-24.78,11.8-39.16,9.52-3.24-.51-3.25-.46-2.65,2.8,4.51,24.19-5.41,48.87-27.68,60.03-20.13,10.09-39.63,8.14-57.97-4.97-.79-.57-1.44-1.37-2.65-1.67-.42,1.33-.12,2.63-.07,3.91.9,22.79-7.2,41.19-27.1,53.18-20.88,12.58-49.06,7.82-64.94-10.46-1.65-1.9-2.04-1.27-2.9.55-9.23,19.52-30.45,31.53-51.88,29.42-22.31-2.19-40.07-17.09-46.21-38.76-.38-1.35-.8-2.7-1.37-4.64Z"/>
      <path d="m452.28,904.82c-14.34,25.06-39.3,29.71-56.28,24.59-23.97-7.22-34.74-24.95-37.18-48.86-18.3,19.55-39.76,25.29-63.09,11.78-23.24-13.46-27.49-35.35-21.15-60.04-19.06,15.42-39.45,18.18-58.66,1.78-18.46-15.75-18.71-36.05-8.52-57.23-5.12.92-10.23,1.19-15.35.29-16.56-2.9-28.87-16.05-30.71-32.76-1.77-16.14,4.51-28.71,17.08-38.48,3.56-2.77,7.4-5.09,11.44-7.11,5.96-2.98,11.8-3,17.74.02,8.28,4.2,15.83,9.37,21.24,17.02,7.81,11.05,9.53,23.2,5.65,36.16-.24.79-.48,1.57-.76,2.5,1.31.29,2.22-.43,3.17-.79,4.04-1.5,8.21-1.98,12.23-.39,15.53,6.12,28.08,15.63,34.39,31.71,3.57,9.1,3.97,18.49,1.41,27.96-.22.8-.45,1.6-.66,2.41-.02.07.02.16.12,1.01,1.98-2.79,4.2-4.64,6.4-6.53,6.23-5.35,13-9.87,20.61-13.05,5.38-2.25,10.86-2.71,16.29-.38,16.02,6.88,29.24,16.88,36.54,33.34,2.31,5.21,3.44,10.72,4.06,16.96,3.46-4.94,7.05-9.05,11.24-12.61,6.44-5.48,13.3-10.31,21.19-13.52,4.98-2.03,10.17-2.46,15.12-.33,17.61,7.56,31.61,19.01,38.95,37.34.76,1.89,1.34,3.86,2.05,5.93,1.25-.98,1.55-2.24,2.21-3.26,8.32-12.88,19.89-21.84,33.85-27.81,5.85-2.5,11.77-1.85,17.43.9,13.85,6.74,25.55,15.92,33.19,29.63.07.13.25.21.5.42.76-.72.83-1.75,1.11-2.64,4.29-13.62,12.99-23.83,24.49-31.91,4.44-3.12,9.02-5.97,14.05-8.07,6.15-2.58,12.2-2.36,18.15.47,11.77,5.59,21.95,13.21,29.7,23.83.29.39.61.75,1.3,1.58-.31-3.72-.1-6.9.3-10.05,1.89-14.94,9.26-26.71,21.01-35.88,5.4-4.22,11.11-7.91,17.44-10.64,6.35-2.74,12.54-2.75,18.86.05,5.91,2.62,11.29,6.06,16.43,9.93.64.49,1.18,1.18,2.29,1.29-.64-4.68-.71-9.29-.02-13.91,2.1-14.05,9.68-24.57,21.04-32.64,4.15-2.95,8.43-5.63,13.16-7.62,5.37-2.25,10.65-2.42,15.99-.04.59.26,1.23.43,2.11.74-.49-2.93-1.72-5.4-2.11-8.1-2.47-16.9,3.23-30.43,16.66-40.8,4.23-3.27,8.73-6.11,13.72-8.12,4.02-1.62,8.09-2.11,12.16-.4,13.28,5.55,24.4,13.69,29.61,27.66,5.11,13.68,3.46,26.94-5.65,38.5-8.86,11.23-20.95,15.39-35.1,13.64-.98-.12-1.96-.27-3.03-.41,10.28,21.24,9.66,41.31-8.68,57.5-15.41,13.61-33.15,13.26-50.93,3.82,3.61,25.44-3.48,46.29-28.24,56.92-22.46,9.64-42.12,3.23-58.36-15.62.56,3.8.39,7.15.2,10.51-1.2,21.91-15.75,40.44-36.71,46.52-20.55,5.96-44.17-3.67-54.7-22.3-.4-.71-.85-1.39-1.51-2.47-7.91,23.47-22.93,38.23-48.3,38.21-25.3-.03-40.34-14.66-48.2-38.11Z"/>
    </g>
  </g>
</svg>