<?xml version="1.0" encoding="UTF-8"?>
<svg id="_레이어_2" data-name="레이어 2" xmlns="http://www.w3.org/2000/svg" viewBox="0 0 1000 1000">
  <defs>
    <style>
      .cls-1 {
        fill: none;
      }
    </style>
  </defs>
  <g id="_레이어_1-2" data-name="레이어 1">
    <g>
      <path d="m509.36,479.52c-22.48.13-42.73-13.99-50.12-34.39-9.66-26.67-1.83-53.51,20.83-71.23,6.72-5.25,13.77-9.93,21.98-12.63,5.1-1.68,10.09-1.4,14.88.7,15.89,6.95,29.27,17,37.68,32.52,12,22.13,9.17,51.31-9.18,69.71-10.11,10.14-22.59,15.05-36.09,15.31Z"/>
      <path d="m500.62,716.52c-21.69.15-41.97-13.96-49.36-34.34-9.67-26.68-1.87-53.53,20.77-71.24,6.71-5.26,13.77-9.93,21.98-12.65,5.09-1.68,10.09-1.43,14.88.66,16.15,7.05,29.8,17.24,38.04,33.17,8.75,16.93,9.35,34.56,1.91,52.15-6.21,14.68-17.14,24.57-32.25,29.71-5.15,1.75-10.52,2.49-15.98,2.55Z"/>
      <path d="m550.21,890.32c-.39,17.31-6.32,32.11-20.32,42.89-22.47,17.32-54.79,11.53-70.27-12.36-14.2-21.92-11.03-52.2,7.38-70.72,6.94-6.98,14.79-12.65,23.72-16.82,6.8-3.17,13.5-3.03,20.2.33,13.69,6.86,25.37,15.96,32.73,29.74,4.47,8.38,6.64,17.38,6.56,26.94Z"/>
      <path d="m211.48,506.15c-25.05-.08-45.56-17.8-49.04-42.6-2.91-20.79,4.19-37.77,20.13-51.22,4.73-3.99,9.9-7.31,15.29-10.34,8.96-5.02,17.8-5.18,26.87-.2,11.41,6.27,21.61,13.86,28.58,25.1,13.76,22.2,9.61,53.12-11.78,69.3-8.85,6.69-18.92,10-30.05,9.96Z"/>
      <path d="m782.4,506.14c-26.79-.12-48.18-20.62-49.52-47.39-1.13-22.6,9.22-39.09,27.31-51.48,3.79-2.59,7.72-4.92,11.91-6.84,6.48-2.97,13.08-3.45,19.6-.46,14.65,6.7,27.2,16.01,34.71,30.69,11.38,22.24,6.15,50.53-14.14,65.73-8.8,6.59-18.83,9.84-29.87,9.75Z"/>
      <path d="m713,314.17c-29.34-.22-49.66-19.48-51.09-45.06-1.16-20.77,7.92-36.38,24.54-48.12,3.68-2.6,7.51-4.93,11.53-6.98,7.48-3.82,14.97-4.07,22.53-.24,9.52,4.83,18.18,10.77,25.06,19.06,6.57,7.92,10.34,17.05,11.38,27.24,1.4,13.6-1.9,26.02-10.53,36.69-9.49,11.75-22.12,17.19-33.42,17.39Z"/>
      <path d="m301.7,314.16c-31.31-.14-52.15-21.04-52.35-47.68-.15-19.94,9.16-34.62,25.02-45.76,4.23-2.97,8.66-5.6,13.42-7.68,6.24-2.73,12.43-2.81,18.62.07,13.18,6.14,24.58,14.44,31.92,27.34,11.02,19.33,7.71,45.05-7.69,60.09-9.32,9.11-20.59,13.56-28.95,13.61Z"/>
      <path d="m499.43,187.62c-22.91.34-42.78-17.92-43.06-42.93-.2-17.66,7.85-30.89,21.89-40.91,2.98-2.13,6.1-4.06,9.32-5.81,7.44-4.07,14.88-4.69,22.62-.58,11.62,6.17,21.85,13.79,27.81,25.94,10.15,20.69,3.79,48.09-18.39,59.5-6.32,3.25-13.01,5.05-20.18,4.79Z"/>
      <path d="m198.54,777.65c-19.31-.02-35.14-14.18-37.21-33.21-1.76-16.14,4.47-28.71,17.02-38.49,3.62-2.82,7.52-5.19,11.65-7.23,5.88-2.91,11.66-2.94,17.5.04,10.12,5.16,19.06,11.68,24.43,22.04,9.39,18.11,3.94,39.99-12.57,50.89-5.95,3.92-13.1,5.97-20.82,5.96Z"/>
      <path d="m758.76,732.26c.04-14.06,6.32-24.88,17.23-33.29,4.23-3.26,8.73-6.1,13.72-8.11,4.02-1.62,8.09-2.1,12.16-.4,13.27,5.55,24.27,13.72,29.64,27.62,6.28,16.25,1.38,35.54-13.36,45.88-14.25,10-34.17,8.8-47.11-3-8.43-7.68-12.31-17.36-12.27-28.7Z"/>
    </g>
    <rect class="cls-1" width="1000" height="1000"/>
  </g>
</svg>