<?xml version="1.0" encoding="UTF-8"?>
<svg id="_레이어_2" data-name="레이어 2" xmlns="http://www.w3.org/2000/svg" viewBox="0 0 1000 1000">
  <defs>
    <style>
      .cls-1 {
        fill: none;
      }
    </style>
  </defs>
  <g id="_레이어_1-2" data-name="레이어 1">
    <rect class="cls-1" width="1000" height="1000"/>
    <path d="m805.24,451.88c-9.16-43.69-32.05-79.19-64.98-108.73-2.69-2.42-5.43-4.76-8.19-7.05v-32.44c-1.8-10.83-2.99-21.76-6.4-32.3-8.65-26.71-23.99-48.95-44.75-67.59-32.31-29-70.55-45.87-112.59-55.03-18.78-4.09-37.74-6.28-56.96-6.81-50.83-1.4-99.4,7.54-144.87,31.04-28.97,14.98-53.63,35.07-72.03,62.2-13.31,19.61-21,41.41-22.99,65.07-.99,11.77-1.23,23.56-1.22,35.35-20.27,16.68-37.77,36.35-51.7,59.76-14.82,24.9-23.1,51.96-25.33,80.83-2.31,29.95-.65,59.96-.95,89.94-.21,20.66-.08,41.33.21,61.99.42,29.39,4.71,58.06,16.74,85.21,11.02,24.88,26.84,46.26,46.32,65.12,39.97,38.69,88.23,61.73,141.34,75.85,24.37,6.48,49.13,10.21,74.22,12.08.98.07,1.94.4,2.91.62h53.91c12.68-1.53,25.4-2.71,38.04-4.61,40.8-6.14,79.5-18.51,116.1-37.69,22.1-11.58,42.48-25.57,60.64-42.6,37-34.68,60.44-76.47,65.11-127.75.62-6.78,1.11-13.56,1.66-20.35v-154c-1.39-9.38-2.31-18.86-4.25-28.12Z"/>
  </g>
</svg>